<svg xmlns="http://www.w3.org/2000/svg" xmlns:xlink="http://www.w3.org/1999/xlink" viewBox="0 0 295 299"><defs><style>.cls-1{fill:none;}.cls-2{fill:#fff;}.cls-3{fill:#b7b7b7;}.cls-4{fill:#b2b2b2;}.cls-5{clip-path:url(#clip-path);}.cls-6{fill:#1e1e1e;}.cls-7{fill:#8080e0;}.cls-8{fill:#1c1b39;}.cls-9{fill:#292646;}</style><clipPath id="clip-path" transform="translate(-3 -2)"><path class="cls-1" d="M50.32,241.73l2.59,2.86,2.24,2.35,2.48,2.46,3.43,3.21,2.73,2.4,3.52,2.9,4.16,3.19,3.12,2.23,3.83,2.56,3.39,2.1,3.69,2.14L90.83,273l3.85,1.86L99,276.72l5.72,2.23,4.42,1.53,6.69,2,4.68,1.16,3.2.7,5.68,1,4.76.67,5.06.52,6.14.37h7.45l3.58,0,4.33-.26,3.72-.33,3.45-.41,3-.41,2.55-.42,4.34-.82,3.15-.7,3-.74,4.16-1.15,3.28-1,3.56-1.2,3.22-1.19,3.92-1.57,4.77-2.1,4.06-2,4.39-2.33,3.59-2.07,3.56-2.2,4.08-2.73,3.13-2.24,2.06-1.54,2.67-2.11,2.81-2.33,1.91-1.67,2.06-1.87,1.78-1.67,2.6-2.57L245,212l-6-2-6-2-8-3-9-2-9-2-8-1-4-1,2-4c4.61-9.23,6.8-19.4,10.8-28.88a144.92,144.92,0,0,0,9.29-29.52c1-5.1.87-10.33.76-15.52l-.35-16.53A38,38,0,0,1,218,96c1.12-5.42,10.88-18.18,6-23-6.78-6.78-13.57-13.83-21.37-19.46a142,142,0,0,0-13.17-8.13,32.94,32.94,0,0,0-6.57-3.12c-4.5-1.36-9.34-.66-13.94-1.22-5.15-.62-10.36-1-15.54-1.14A90.71,90.71,0,0,0,108,50l-9,6-4,5-4,6-2,5v4l-1,3-1,6-1,5-1,5c-.5,2.48-.74,5-1.11,7.55-1,6.48-5.55,11.68-6.55,18.34a47.17,47.17,0,0,0-.06,10,185.39,185.39,0,0,0,2,19.55c.59,3.46,1.45,7,3.7,9.73,3.61,4.31,6.52,6.73,9.07,11.82l1,4-5,1-4,2-2,2-3,3-3,3-4,1-6,2-4,3-5,3-4,2-3,1Z"/></clipPath></defs><title>Untitled-2</title><g id="Layer_1" data-name="Layer 1"><path class="cls-2" d="M47,231" transform="translate(-3 -2)"/><circle class="cls-3" cx="147.5" cy="147.5" r="147.5"/><circle class="cls-4" cx="146.5" cy="150.5" r="133.5"/></g><g id="Layer_2" data-name="Layer 2"><polygon class="cls-1" points="47.32 235.74 49.91 238.59 52.15 240.94 54.63 243.4 58.06 246.61 60.79 249.01 64.31 251.91 68.47 255.1 71.59 257.33 75.42 259.89 78.81 261.99 82.5 264.13 87.83 266.95 91.69 268.81 96.03 270.72 101.75 272.95 106.17 274.48 112.86 276.46 117.55 277.62 120.74 278.32 126.42 279.34 131.18 280.01 136.25 280.53 142.38 280.9 145.87 280.9 149.83 280.9 153.41 280.87 157.74 280.61 161.46 280.28 164.91 279.87 167.86 279.46 170.41 279.04 174.75 278.22 177.9 277.52 180.93 276.78 185.09 275.63 188.37 274.63 191.93 273.43 195.15 272.24 199.07 270.67 203.84 268.56 207.9 266.58 212.29 264.25 215.88 262.18 219.44 259.98 223.52 257.25 226.65 255.01 228.71 253.47 231.38 251.36 234.19 249.03 236.1 247.36 238.16 245.49 239.94 243.82 242.54 241.25 242 206 236 204 230 202 222 199 213 197 204 195 196 194 192 193 194 189 198 180 201 172 202 169 203 164 205 160 207 156 209 151 210 147 210 144 211 140 213 136 214 132 215 127 215 123 215 120 214 116 214 112 215 108 215 105 215 103 214 99 214 95 215 92 215 89 216 87 217 85 218 82 219 79 220 77 222 74 222 72 222 68 221 67 218 64 216 62 213 59 210 57 207 53 201 49 197 45 192 43 189 41 186 39 182 37 179 35 176 36 172 36 167 35 161 34 156 34 148 34 144 34 141 34 139 34 135 34 129 35 125 36 120 37 115 39 111 41 105 44 96 50 92 55 88 61 86 66 86 70 85 73 84 79 83 84 82 89 81 96 80 101 77 107 75 110 74 116 74 121 75 126 75 134 75 139 76 144 78 151 81 156 83 157 85 158 86 160 89 166 90 170 85 171 81 173 79 175 76 178 73 181 69 182 63 184 59 187 54 190 50 192 47 193 47.32 235.74"/><g class="cls-5"><path class="cls-2" d="M47,235" transform="translate(-3 -2)"/><circle class="cls-6" cx="147.5" cy="151.5" r="147.5"/><circle class="cls-7" cx="147.5" cy="151.5" r="133.5"/></g><path class="cls-8" d="M50,199l.57,43.36-2.66-3.43-2.51-3.1-2-2.67-1.85-2.55L39.7,228,38,225.46l-2.57-4.18L34,218.68l-1.53-2.8-.92-1.78c-2.87-5.51,3.39-7.4,7.48-10.1Z" transform="translate(-3 -2)"/><path class="cls-9" d="M245,248V212l13,2c2.16.33,7.2-.13,8.88,1.41,2.18,2-1,5.37-2.51,7.81l-1.54,2.45-1.66,2.52-1.87,2.69-1.67,2.3-1,1.36L255.46,236,254,237.85l-2,2.36-1.49,1.67-2.14,2.4L247,246l-2,2" transform="translate(-3 -2)"/></g></svg>