<svg id="Layer_1" data-name="Layer 1" xmlns="http://www.w3.org/2000/svg" xmlns:xlink="http://www.w3.org/1999/xlink" viewBox="0 0 604.74 159.84"><defs><style>.cls-1{opacity:0.6;isolation:isolate;fill:url(#linear-gradient);}.cls-2{fill:none;stroke:#00aeef;stroke-miterlimit:10;stroke-width:18.94px;}.cls-3{fill:#f7f7f7;}.cls-4{fill:#fff;}</style><linearGradient id="linear-gradient" x1="10.7" y1="86.85" x2="596.5" y2="86.85" gradientTransform="matrix(1, 0, 0, -1, 0, 166.6)" gradientUnits="userSpaceOnUse"><stop offset="0" stop-color="#00b2ed"/><stop offset="0.99" stop-color="#1d71b8"/></linearGradient></defs><title>CmsWeb</title><path class="cls-1" d="M596.5,59.6a50.3,50.3,0,1,0-100.6,0v.8H55.6a44.9,44.9,0,0,0,0,89.8H508.7a44.9,44.9,0,0,0,44.7-40.7A50.51,50.51,0,0,0,596.5,59.6Z" transform="translate(-1.23 0.17)"/><path class="cls-2" d="M596.5,59.6a50.3,50.3,0,1,0-100.6,0v.8H55.6a44.9,44.9,0,0,0,0,89.8H508.7a44.9,44.9,0,0,0,44.7-40.7A50.51,50.51,0,0,0,596.5,59.6Z" transform="translate(-1.23 0.17)"/><path class="cls-3" d="M522.8,54.4h-3.4a15.26,15.26,0,0,0,.1,1.8V58c0,.3-.6.5-1.8.5s-1.7-.1-1.7-.3V54.4c-2,.1-3.1.1-3.2.1s-.2-.1-.2-.4a10.3,10.3,0,0,1,.1-1.3V51.4c.1-.1.2-.2.3-.2h3V47.6c0-.1.1-.2.3-.2h2.6c.4,0,.6.1.6.2v3.6h3.4c.2,0,.2.1.2.2a11.31,11.31,0,0,1-.1,1.4,9.89,9.89,0,0,1-.1,1.5Z" transform="translate(-1.23 0.17)"/><path class="cls-3" d="M535.2,54.9c0,3.5-2.2,5.2-6.5,5.2-.6,0-1.5-.1-2.5-.2q-2.1-.3-2.1-.6v-1a6.64,6.64,0,0,1,.1-1.3c.1-.7.2-1.1.4-1.1a.31.31,0,0,1,.2.1,6.57,6.57,0,0,0,3.2.7c1.7,0,2.6-.6,2.6-1.7a1.51,1.51,0,0,0-.9-1.4,3.42,3.42,0,0,0-1.8-.4,7.17,7.17,0,0,0-1.3.1,7.17,7.17,0,0,1-1.3.1c-.3,0-.4-.1-.4-.4,0-.8,0-1.9.1-3.4s.1-2.7.1-3.4a1.69,1.69,0,0,1,.2-.5c.1-.2.2-.3.4-.3h7.9a.27.27,0,0,1,.3.3,12.83,12.83,0,0,1-.1,1.8c-.1,1-.3,1.5-.4,1.5h-.1a28.48,28.48,0,0,0-3.3-.2c-.9,0-1.3,0-1.4.1a3.47,3.47,0,0,0-.2,1.3c0,.1,0,.2.1.2a3.44,3.44,0,0,0,.9-.1c.4,0,.7-.1.9-.1a5.22,5.22,0,0,1,3.6,1.2A5.39,5.39,0,0,1,535.2,54.9Z" transform="translate(-1.23 0.17)"/><path class="cls-3" d="M550.3,52.7a7.69,7.69,0,0,1-2,5.2,6.56,6.56,0,0,1-5,2.3,6.41,6.41,0,0,1-5-2.3,7.76,7.76,0,0,1,0-10.4,6.78,6.78,0,0,1,10,0A7.24,7.24,0,0,1,550.3,52.7Zm-4.3,0a3.14,3.14,0,0,0-.7-2.1,2.32,2.32,0,0,0-1.9-.9,2.2,2.2,0,0,0-1.9.9,3.5,3.5,0,0,0,0,4.2,2.42,2.42,0,0,0,1.9,1,2.17,2.17,0,0,0,1.9-1A3.77,3.77,0,0,0,546,52.7Z" transform="translate(-1.23 0.17)"/><path class="cls-3" d="M562.2,59.5c0,.2-.1.3-.4.3a7.08,7.08,0,0,1-1.5.1,6.15,6.15,0,0,1-1.4-.1c-.1,0-.2-.1-.4-.2-.4-.5-1-1.4-1.7-2.4-.2.2-.8,1-1.9,2.4a1.38,1.38,0,0,1-.4.3,4.51,4.51,0,0,1-1.3.1c-1.2,0-1.9-.1-1.9-.4v-2a.76.76,0,0,1,.2-.4c.6-.6,1.5-1.6,2.7-2.9-.5-.5-1.1-1-1.6-1.6a6.74,6.74,0,0,1-1.3-1.5V49.1c0-.2.1-.3.4-.3h2.8c.2,0,.3.1.4.3a22.17,22.17,0,0,0,1.8,2.2c.7-.9,1.3-1.6,1.7-2.2a.4.4,0,0,1,.4-.2h3c.3,0,.4.1.4.3v2.1a.76.76,0,0,1-.2.4c-.6.6-1.5,1.5-2.6,2.7.6.6,1.5,1.6,2.6,2.8a.76.76,0,0,1,.2.4Z" transform="translate(-1.23 0.17)"/><path class="cls-3" d="M576.5,54.2a6,6,0,0,1-1.5,4.2,5.13,5.13,0,0,1-4,1.7,4.64,4.64,0,0,1-1.9-.4c-.7-.3-1-.4-.9-.4-.1,0-.2.1-.2.4a13.57,13.57,0,0,0,.1,1.8,13.57,13.57,0,0,1,.1,1.8c0,.3-.1.4-.4.4h-2.4a2.24,2.24,0,0,1-1-.1c-.2-.1-.4-.2-.4-.4v-9a20.15,20.15,0,0,0-.4-4.6v-.2c0-.1,0-.2.1-.2.3-.1.9-.2,1.7-.4s1.4-.2,1.8-.2.5.2.5.6.1.6.2.6c-.1,0,.3-.2,1-.6a4.14,4.14,0,0,1,2-.6,5.35,5.35,0,0,1,4.1,1.7C576.1,51.1,576.5,52.5,576.5,54.2Zm-4.3,0a2.27,2.27,0,0,0-.6-1.6,2,2,0,0,0-3,0,2.77,2.77,0,0,0-.5,1.6,3.1,3.1,0,0,0,.5,1.7,1.8,1.8,0,0,0,1.5.7A2.09,2.09,0,0,0,572.2,54.2Z" transform="translate(-1.23 0.17)"/><path class="cls-4" d="M282.18,100.49l7.47.19q-.73,5.8-4,9a11.85,11.85,0,0,1-8.56,3.16,12.21,12.21,0,0,1-9-3.6,12.06,12.06,0,0,1-3.61-8.92,12.2,12.2,0,0,1,3.68-9,12.38,12.38,0,0,1,9.08-3.66,12,12,0,0,1,8.86,3.59,14,14,0,0,1,3.48,6.9l-7.65.51q-1.27-3.93-4.87-3.93a4.93,4.93,0,0,0-3.77,1.58,5.64,5.64,0,0,0-1.48,4,5.47,5.47,0,0,0,1.46,3.9,5.32,5.32,0,0,0,7.3.18A6.13,6.13,0,0,0,282.18,100.49Z" transform="translate(-1.23 0.17)"/><path class="cls-4" d="M292.54,112.21V94.92a7.29,7.29,0,0,1,1.95-5.26,6.69,6.69,0,0,1,5.06-2A6.26,6.26,0,0,1,305.23,91a7.87,7.87,0,0,1,2.6-2.61,6.91,6.91,0,0,1,3.43-.78,6.11,6.11,0,0,1,4.95,2,8.86,8.86,0,0,1,1.73,5.87v16.68H310.8V96.6a4.27,4.27,0,0,0-.18-1.54.76.76,0,0,0-.75-.37c-.7,0-1.06.59-1.06,1.79v15.73h-7.13V96.6a3.92,3.92,0,0,0-.2-1.53.77.77,0,0,0-.75-.38c-.71,0-1.06.64-1.06,1.91v15.61Z" transform="translate(-1.23 0.17)"/><path class="cls-4" d="M333.53,88.11V95a3.93,3.93,0,0,0-1.2-.26,1.9,1.9,0,0,0-1.39.59,2,2,0,0,0-.58,1.45,3.94,3.94,0,0,0,.64,1.82l.54,1a9.91,9.91,0,0,1,1.48,5,7.94,7.94,0,0,1-2.49,5.92,8.36,8.36,0,0,1-6.07,2.43,7.9,7.9,0,0,1-3.41-.79v-6.94a3.51,3.51,0,0,0,1.81.65,2.27,2.27,0,0,0,1.55-.54,1.71,1.71,0,0,0,.63-1.35,7.08,7.08,0,0,0-1-2.3,11.24,11.24,0,0,1-1.6-5.62,8.06,8.06,0,0,1,2.41-5.85,7.85,7.85,0,0,1,5.78-2.45A8.79,8.79,0,0,1,333.53,88.11Z" transform="translate(-1.23 0.17)"/></svg>