<svg id="Layer_1" data-name="Layer 1" xmlns="http://www.w3.org/2000/svg" xmlns:xlink="http://www.w3.org/1999/xlink" viewBox="0 0 604.74 159.84"><defs><style>.cls-1{stroke:#eaa50c;opacity:0.6;isolation:isolate;fill:url(#linear-gradient);}.cls-1,.cls-2{stroke-miterlimit:10;}.cls-2{fill:none;stroke:#00af1d;stroke-width:18.94px;}.cls-3{fill:#f7f7f7;}.cls-4{fill:#fff;}</style><linearGradient id="linear-gradient" x1="13.4" y1="80.65" x2="599.2" y2="80.65" gradientTransform="matrix(1, 0, 0, -1, 0, 162)" gradientUnits="userSpaceOnUse"><stop offset="0.29" stop-color="#80c342"/><stop offset="0.99" stop-color="#2db34a"/><stop offset="1" stop-color="#299546"/></linearGradient></defs><title>DesignEntertainment</title><path class="cls-1" d="M599.2,61.2a50.3,50.3,0,0,0-100.6,0V62H58.3a44.9,44.9,0,0,0,0,89.8H511.4a44.9,44.9,0,0,0,44.7-40.7A50.51,50.51,0,0,0,599.2,61.2Z" transform="translate(-0.93 0.07)"/><path class="cls-2" d="M596.2,59.7a50.3,50.3,0,0,0-100.6,0v.8H55.3a44.9,44.9,0,0,0,0,89.8H508.4a44.9,44.9,0,0,0,44.7-40.7A50.51,50.51,0,0,0,596.2,59.7Z" transform="translate(-0.93 0.07)"/><path class="cls-3" d="M521.5,54.5h-3.4a15.26,15.26,0,0,0,.1,1.8v1.8c0,.3-.6.5-1.8.5s-1.7-.1-1.7-.3V54.5c-2,.1-3.1.1-3.2.1s-.2-.1-.2-.4a10.3,10.3,0,0,1,.1-1.3V51.5c.1-.1.2-.2.3-.2h3V47.7c0-.1.1-.2.3-.2h2.6c.4,0,.6.1.6.2v3.6h3.4c.2,0,.2.1.2.2a11.31,11.31,0,0,1-.1,1.4,9.89,9.89,0,0,1-.1,1.5Z" transform="translate(-0.93 0.07)"/><path class="cls-3" d="M533.9,55c0,3.5-2.2,5.2-6.5,5.2-.6,0-1.5-.1-2.5-.2q-2.1-.3-2.1-.6v-1a6.64,6.64,0,0,1,.1-1.3c.1-.7.2-1.1.4-1.1a.31.31,0,0,1,.2.1,6.57,6.57,0,0,0,3.2.7c1.7,0,2.6-.6,2.6-1.7a1.51,1.51,0,0,0-.9-1.4,3.42,3.42,0,0,0-1.8-.4,7.17,7.17,0,0,0-1.3.1,7.17,7.17,0,0,1-1.3.1c-.3,0-.4-.1-.4-.4,0-.8,0-1.9.1-3.4s.1-2.7.1-3.4a1.69,1.69,0,0,1,.2-.5c.1-.2.2-.3.4-.3h7.9a.27.27,0,0,1,.3.3,12.83,12.83,0,0,1-.1,1.8c-.1,1-.3,1.5-.4,1.5H532a28.48,28.48,0,0,0-3.3-.2c-.9,0-1.3,0-1.4.1a3.47,3.47,0,0,0-.2,1.3c0,.1,0,.2.1.2a3.44,3.44,0,0,0,.9-.1c.4,0,.7-.1.9-.1a5.22,5.22,0,0,1,3.6,1.2A5.39,5.39,0,0,1,533.9,55Z" transform="translate(-0.93 0.07)"/><path class="cls-3" d="M549,52.8a7.69,7.69,0,0,1-2,5.2,6.56,6.56,0,0,1-5,2.3,6.41,6.41,0,0,1-5-2.3,7.76,7.76,0,0,1,0-10.4,6.78,6.78,0,0,1,10,0A7.24,7.24,0,0,1,549,52.8Zm-4.3,0a3.14,3.14,0,0,0-.7-2.1,2.32,2.32,0,0,0-1.9-.9,2.2,2.2,0,0,0-1.9.9,3.5,3.5,0,0,0,0,4.2,2.42,2.42,0,0,0,1.9,1,2.17,2.17,0,0,0,1.9-1A3.77,3.77,0,0,0,544.7,52.8Z" transform="translate(-0.93 0.07)"/><path class="cls-3" d="M560.9,59.6c0,.2-.1.3-.4.3a7.08,7.08,0,0,1-1.5.1,6.15,6.15,0,0,1-1.4-.1c-.1,0-.2-.1-.4-.2-.4-.5-1-1.4-1.7-2.4-.2.2-.8,1-1.9,2.4a1.38,1.38,0,0,1-.4.3,4.51,4.51,0,0,1-1.3.1c-1.2,0-1.9-.1-1.9-.4v-2a.76.76,0,0,1,.2-.4c.6-.6,1.5-1.6,2.7-2.9-.5-.5-1.1-1-1.6-1.6a6.74,6.74,0,0,1-1.3-1.5V49.2c0-.2.1-.3.4-.3h2.8c.2,0,.3.1.4.3a22.17,22.17,0,0,0,1.8,2.2c.7-.9,1.3-1.6,1.7-2.2a.4.4,0,0,1,.4-.2h3c.3,0,.4.1.4.3v2.1a.76.76,0,0,1-.2.4c-.6.6-1.5,1.5-2.6,2.7.6.6,1.5,1.6,2.6,2.8a.76.76,0,0,1,.2.4Z" transform="translate(-0.93 0.07)"/><path class="cls-3" d="M575.2,54.3a6,6,0,0,1-1.5,4.2,5.13,5.13,0,0,1-4,1.7,4.64,4.64,0,0,1-1.9-.4c-.7-.3-1-.4-.9-.4-.1,0-.2.1-.2.4a13.57,13.57,0,0,0,.1,1.8,13.57,13.57,0,0,1,.1,1.8c0,.3-.1.4-.4.4h-2.4a2.24,2.24,0,0,1-1-.1c-.2-.1-.4-.2-.4-.4v-9a20.15,20.15,0,0,0-.4-4.6v-.2c0-.1,0-.2.1-.2.3-.1.9-.2,1.7-.4s1.4-.2,1.8-.2.5.2.5.6.1.6.2.6c-.1,0,.3-.2,1-.6a4.14,4.14,0,0,1,2-.6,5.35,5.35,0,0,1,4.1,1.7C574.8,51.2,575.2,52.6,575.2,54.3Zm-4.3,0a2.27,2.27,0,0,0-.6-1.6,2,2,0,0,0-3,0,2.77,2.77,0,0,0-.5,1.6,3.1,3.1,0,0,0,.5,1.7,1.8,1.8,0,0,0,1.5.7A2.09,2.09,0,0,0,570.9,54.3Z" transform="translate(-0.93 0.07)"/><path class="cls-4" d="M132.76,90h12.36l-3.82,9a9.23,9.23,0,0,1,3,3,7.83,7.83,0,0,1,.93,3.91,7.48,7.48,0,0,1-2.48,5.68,8.62,8.62,0,0,1-6.1,2.32,11.1,11.1,0,0,1-4-.76v-6.59a5.21,5.21,0,0,0,2.58.92,2.69,2.69,0,0,0,2-.85,3,3,0,0,0,.81-2.12,2.71,2.71,0,0,0-1.21-2.32,5.54,5.54,0,0,0-3.25-.86l1.73-4.6h-2.58Z" transform="translate(-0.93 0.07)"/><path class="cls-4" d="M158.17,96.72v16.62h-6.94V90h9q6,0,9.32,2.7a10.67,10.67,0,0,1,4,8.76,11.56,11.56,0,0,1-3.42,8.65,12,12,0,0,1-8.8,3.35c-.42,0-1.11,0-2.07-.07v-6.85h1.11q6.08,0,6.07-5.08,0-4.76-6-4.76Z" transform="translate(-0.93 0.07)"/><path class="cls-4" d="M194.37,101v6.25h-2.31v6.08h-6.94V98.87a9.47,9.47,0,0,1,2.52-6.76A8.37,8.37,0,0,1,194,89.44a8.61,8.61,0,0,1,7.06,3.64l-5.69,4.15a1.72,1.72,0,0,0-1.69-1.33c-1.07,0-1.61.74-1.61,2.22V101Z" transform="translate(-0.93 0.07)"/><path class="cls-4" d="M210.06,96a8.85,8.85,0,0,1,6.17,15.14,9,9,0,0,1-12.67,0,8.84,8.84,0,0,1,0-12.58A9,9,0,0,1,210.06,96Zm-.17,6.3a2.33,2.33,0,0,0-1.75.75,2.5,2.5,0,0,0-.71,1.82,2.53,2.53,0,0,0,.72,1.81,2.41,2.41,0,0,0,3.49,0,2.53,2.53,0,0,0,.72-1.81,2.5,2.5,0,0,0-.71-1.82A2.35,2.35,0,0,0,209.89,102.25Z" transform="translate(-0.93 0.07)"/><path class="cls-4" d="M230.87,96.13V103a2.5,2.5,0,0,0-1.21-.37c-1.16,0-1.74.88-1.74,2.66v8.08h-6.4V104a8.41,8.41,0,0,1,2-5.89A7,7,0,0,1,228.92,96,13.61,13.61,0,0,1,230.87,96.13Z" transform="translate(-0.93 0.07)"/><path class="cls-4" d="M254.42,99.09v5.2h-4.53a2.33,2.33,0,0,0-1.3.27,1.34,1.34,0,0,0,0,1.89,3.75,3.75,0,0,0,1.61.23h4.67v6.66h-5.45a8.49,8.49,0,0,1-5.88-1.83,6.79,6.79,0,0,1-2-5.31V97.06a6.88,6.88,0,0,1,1.92-5.2A7.52,7.52,0,0,1,248.83,90h6v6.7h-4.43c-1.2,0-1.79.38-1.79,1.16a1,1,0,0,0,.42,1,3.2,3.2,0,0,0,1.52.26Z" transform="translate(-0.93 0.07)"/><path class="cls-4" d="M273.56,113.34h-6.39v-9.62c0-1-.4-1.47-1.21-1.47s-1.2.49-1.2,1.47v9.62h-6.39v-9.5a7.76,7.76,0,0,1,2.2-5.61,7.69,7.69,0,0,1,11.27.37,8.7,8.7,0,0,1,1.72,5.76Z" transform="translate(-0.93 0.07)"/><path class="cls-4" d="M283,90v6.52h2.87v6.76H283a4.5,4.5,0,0,0,.64,2.8,3,3,0,0,0,2.35.77v6.71c-.33,0-.58,0-.73,0a8.61,8.61,0,0,1-4.1-1,8.23,8.23,0,0,1-3.08-2.73,10.39,10.39,0,0,1-1.47-5.85V90Z" transform="translate(-0.93 0.07)"/><path class="cls-4" d="M305.74,105.86h-9.69a4.49,4.49,0,0,1,.09-3h3.25a2,2,0,0,0-2.14-1.89,2.33,2.33,0,0,0-1.95,1,4.29,4.29,0,0,0-.75,2.61,4.48,4.48,0,0,0,.73,2.68,2.22,2.22,0,0,0,1.9,1,2.56,2.56,0,0,0,1.85-1l3.64,4.38a9,9,0,0,1-5.66,2,8.7,8.7,0,0,1-6.37-2.55,9,9,0,0,1,0-12.63,8.75,8.75,0,0,1,6.4-2.58,8.61,8.61,0,0,1,8.75,8.73C305.81,104.91,305.79,105.31,305.74,105.86Z" transform="translate(-0.93 0.07)"/><path class="cls-4" d="M317.74,96.13V103a2.5,2.5,0,0,0-1.21-.37c-1.16,0-1.75.88-1.75,2.66v8.08h-6.39V104a8.36,8.36,0,0,1,2-5.89A7,7,0,0,1,315.79,96,13.73,13.73,0,0,1,317.74,96.13Z" transform="translate(-0.93 0.07)"/><path class="cls-4" d="M325.31,90v6.52h2.87v6.76h-2.87a4.56,4.56,0,0,0,.64,2.8,3,3,0,0,0,2.35.77v6.71c-.33,0-.57,0-.73,0a8.64,8.64,0,0,1-4.1-1,8.23,8.23,0,0,1-3.08-2.73,10.39,10.39,0,0,1-1.47-5.85V90Z" transform="translate(-0.93 0.07)"/><path class="cls-4" d="M340.79,107v6.62a8.43,8.43,0,0,1-1.43.13,8.74,8.74,0,0,1-6.41-2.53A8.91,8.91,0,0,1,339.27,96a8.75,8.75,0,0,1,6.52,2.42,9,9,0,0,1,2.39,6.61v8.35h-6.39v-7.89a3.27,3.27,0,0,0-.66-2.15,2.17,2.17,0,0,0-1.77-.81,2.53,2.53,0,0,0-2.48,2.48,2.35,2.35,0,0,0,.67,1.74,2.25,2.25,0,0,0,1.69.69A2.83,2.83,0,0,0,340.79,107Z" transform="translate(-0.93 0.07)"/><path class="cls-4" d="M358.29,96.31v17H351.9v-17Zm-3.17-7.61a3.12,3.12,0,0,1,2.24.92,3,3,0,0,1,.05,4.34,3.49,3.49,0,0,1-4.59,0,2.85,2.85,0,0,1-.9-2.18,2.9,2.9,0,0,1,.95-2.16A3.13,3.13,0,0,1,355.12,88.7Z" transform="translate(-0.93 0.07)"/><path class="cls-4" d="M377.25,113.34h-6.39v-9.62c0-1-.41-1.47-1.22-1.47s-1.19.49-1.19,1.47v9.62h-6.4v-9.5a7.76,7.76,0,0,1,2.21-5.61,7.67,7.67,0,0,1,11.26.37,8.7,8.7,0,0,1,1.73,5.76Z" transform="translate(-0.93 0.07)"/><path class="cls-4" d="M404.35,113.34H398v-9.19a3.34,3.34,0,0,0-.22-1.47.85.85,0,0,0-.81-.41c-.71,0-1.07.63-1.07,1.9v9.17h-6.39v-9.19a3.31,3.31,0,0,0-.23-1.47.87.87,0,0,0-.82-.41c-.7,0-1.06.63-1.06,1.9v9.17H381V102.85A6.82,6.82,0,0,1,382.9,98a6.26,6.26,0,0,1,4.69-2,6.83,6.83,0,0,1,5.09,2.4,7.36,7.36,0,0,1,5-2.4,6.35,6.35,0,0,1,5.13,2.33,8,8,0,0,1,1.52,5.28Z" transform="translate(-0.93 0.07)"/><path class="cls-4" d="M424.84,105.86h-9.69a4.49,4.49,0,0,1,.09-3h3.25a2,2,0,0,0-2.14-1.89,2.33,2.33,0,0,0-2,1,4.29,4.29,0,0,0-.75,2.61,4.48,4.48,0,0,0,.73,2.68,2.2,2.2,0,0,0,1.9,1,2.56,2.56,0,0,0,1.85-1l3.64,4.38a9,9,0,0,1-5.66,2,8.7,8.7,0,0,1-6.37-2.55,9,9,0,0,1,0-12.63,8.75,8.75,0,0,1,6.4-2.58,8.61,8.61,0,0,1,8.75,8.73C424.91,104.91,424.89,105.31,424.84,105.86Z" transform="translate(-0.93 0.07)"/><path class="cls-4" d="M442.68,113.34h-6.39v-9.62c0-1-.4-1.47-1.21-1.47s-1.2.49-1.2,1.47v9.62h-6.39v-9.5a7.76,7.76,0,0,1,2.21-5.61A7.67,7.67,0,0,1,441,98.6a8.7,8.7,0,0,1,1.72,5.76Z" transform="translate(-0.93 0.07)"/><path class="cls-4" d="M452.1,90v6.52H455v6.76H452.1a4.5,4.5,0,0,0,.64,2.8,3,3,0,0,0,2.35.77v6.71c-.33,0-.57,0-.73,0a8.61,8.61,0,0,1-4.1-1,8.23,8.23,0,0,1-3.08-2.73,10.39,10.39,0,0,1-1.47-5.85V90Z" transform="translate(-0.93 0.07)"/></svg>