<svg id="Layer_1" data-name="Layer 1" xmlns="http://www.w3.org/2000/svg" xmlns:xlink="http://www.w3.org/1999/xlink" viewBox="0 0 604.74 159.84"><defs><style>.cls-1{stroke:#eaa50c;opacity:0.6;isolation:isolate;fill:url(#linear-gradient);}.cls-1,.cls-2{stroke-miterlimit:10;}.cls-2{fill:none;stroke:#00af1d;stroke-width:18.94px;}.cls-3{fill:#f7f7f7;}.cls-4{fill:#fff;}</style><linearGradient id="linear-gradient" x1="13.4" y1="80.65" x2="599.2" y2="80.65" gradientTransform="matrix(1, 0, 0, -1, 0, 162)" gradientUnits="userSpaceOnUse"><stop offset="0.29" stop-color="#80c342"/><stop offset="0.99" stop-color="#2db34a"/><stop offset="1" stop-color="#299546"/></linearGradient></defs><title>DesignGraphic</title><path class="cls-1" d="M599.2,61.2a50.3,50.3,0,0,0-100.6,0V62H58.3a44.9,44.9,0,0,0,0,89.8H511.4a44.9,44.9,0,0,0,44.7-40.7A50.51,50.51,0,0,0,599.2,61.2Z" transform="translate(-0.93 0.07)"/><path class="cls-2" d="M596.2,59.7a50.3,50.3,0,0,0-100.6,0v.8H55.3a44.9,44.9,0,0,0,0,89.8H508.4a44.9,44.9,0,0,0,44.7-40.7A50.51,50.51,0,0,0,596.2,59.7Z" transform="translate(-0.93 0.07)"/><path class="cls-3" d="M521.5,54.5h-3.4a15.26,15.26,0,0,0,.1,1.8v1.8c0,.3-.6.5-1.8.5s-1.7-.1-1.7-.3V54.5c-2,.1-3.1.1-3.2.1s-.2-.1-.2-.4a10.3,10.3,0,0,1,.1-1.3V51.5c.1-.1.2-.2.3-.2h3V47.7c0-.1.1-.2.3-.2h2.6c.4,0,.6.1.6.2v3.6h3.4c.2,0,.2.1.2.2a11.31,11.31,0,0,1-.1,1.4,9.89,9.89,0,0,1-.1,1.5Z" transform="translate(-0.93 0.07)"/><path class="cls-3" d="M533.9,55c0,3.5-2.2,5.2-6.5,5.2-.6,0-1.5-.1-2.5-.2q-2.1-.3-2.1-.6v-1a6.64,6.64,0,0,1,.1-1.3c.1-.7.2-1.1.4-1.1a.31.31,0,0,1,.2.1,6.57,6.57,0,0,0,3.2.7c1.7,0,2.6-.6,2.6-1.7a1.51,1.51,0,0,0-.9-1.4,3.42,3.42,0,0,0-1.8-.4,7.17,7.17,0,0,0-1.3.1,7.17,7.17,0,0,1-1.3.1c-.3,0-.4-.1-.4-.4,0-.8,0-1.9.1-3.4s.1-2.7.1-3.4a1.69,1.69,0,0,1,.2-.5c.1-.2.2-.3.4-.3h7.9a.27.27,0,0,1,.3.3,12.83,12.83,0,0,1-.1,1.8c-.1,1-.3,1.5-.4,1.5H532a28.48,28.48,0,0,0-3.3-.2c-.9,0-1.3,0-1.4.1a3.47,3.47,0,0,0-.2,1.3c0,.1,0,.2.1.2a3.44,3.44,0,0,0,.9-.1c.4,0,.7-.1.9-.1a5.22,5.22,0,0,1,3.6,1.2A5.39,5.39,0,0,1,533.9,55Z" transform="translate(-0.93 0.07)"/><path class="cls-3" d="M549,52.8a7.69,7.69,0,0,1-2,5.2,6.56,6.56,0,0,1-5,2.3,6.41,6.41,0,0,1-5-2.3,7.76,7.76,0,0,1,0-10.4,6.78,6.78,0,0,1,10,0A7.24,7.24,0,0,1,549,52.8Zm-4.3,0a3.14,3.14,0,0,0-.7-2.1,2.32,2.32,0,0,0-1.9-.9,2.2,2.2,0,0,0-1.9.9,3.5,3.5,0,0,0,0,4.2,2.42,2.42,0,0,0,1.9,1,2.17,2.17,0,0,0,1.9-1A3.77,3.77,0,0,0,544.7,52.8Z" transform="translate(-0.93 0.07)"/><path class="cls-3" d="M560.9,59.6c0,.2-.1.3-.4.3a7.08,7.08,0,0,1-1.5.1,6.15,6.15,0,0,1-1.4-.1c-.1,0-.2-.1-.4-.2-.4-.5-1-1.4-1.7-2.4-.2.2-.8,1-1.9,2.4a1.38,1.38,0,0,1-.4.3,4.51,4.51,0,0,1-1.3.1c-1.2,0-1.9-.1-1.9-.4v-2a.76.76,0,0,1,.2-.4c.6-.6,1.5-1.6,2.7-2.9-.5-.5-1.1-1-1.6-1.6a6.74,6.74,0,0,1-1.3-1.5V49.2c0-.2.1-.3.4-.3h2.8c.2,0,.3.1.4.3a22.17,22.17,0,0,0,1.8,2.2c.7-.9,1.3-1.6,1.7-2.2a.4.4,0,0,1,.4-.2h3c.3,0,.4.1.4.3v2.1a.76.76,0,0,1-.2.4c-.6.6-1.5,1.5-2.6,2.7.6.6,1.5,1.6,2.6,2.8a.76.76,0,0,1,.2.4Z" transform="translate(-0.93 0.07)"/><path class="cls-3" d="M575.2,54.3a6,6,0,0,1-1.5,4.2,5.13,5.13,0,0,1-4,1.7,4.64,4.64,0,0,1-1.9-.4c-.7-.3-1-.4-.9-.4-.1,0-.2.1-.2.4a13.57,13.57,0,0,0,.1,1.8,13.57,13.57,0,0,1,.1,1.8c0,.3-.1.4-.4.4h-2.4a2.24,2.24,0,0,1-1-.1c-.2-.1-.4-.2-.4-.4v-9a20.15,20.15,0,0,0-.4-4.6v-.2c0-.1,0-.2.1-.2.3-.1.9-.2,1.7-.4s1.4-.2,1.8-.2.5.2.5.6.1.6.2.6c-.1,0,.3-.2,1-.6a4.14,4.14,0,0,1,2-.6,5.35,5.35,0,0,1,4.1,1.7C574.8,51.2,575.2,52.6,575.2,54.3Zm-4.3,0a2.27,2.27,0,0,0-.6-1.6,2,2,0,0,0-3,0,2.77,2.77,0,0,0-.5,1.6,3.1,3.1,0,0,0,.5,1.7,1.8,1.8,0,0,0,1.5.7A2.09,2.09,0,0,0,570.9,54.3Z" transform="translate(-0.93 0.07)"/><path class="cls-4" d="M184.22,100.27h6.61a8.76,8.76,0,0,1,2.14,5.59,7.55,7.55,0,0,1-2.5,5.74,8.74,8.74,0,0,1-6.17,2.33,10.56,10.56,0,0,1-8.06-3.61,12.5,12.5,0,0,1-3.32-8.78,11.87,11.87,0,0,1,3.38-8.65,11.31,11.31,0,0,1,8.43-3.45,12.14,12.14,0,0,1,3.83.7v6.94a7,7,0,0,0-3-.77,5.42,5.42,0,0,0-4,1.52,5.94,5.94,0,0,0-.11,7.88,5.23,5.23,0,0,0,3.88,1.45c1,0,1.55-.3,1.55-.91,0-.45-.34-.68-1-.68h-1.66Z" transform="translate(-0.93 0.07)"/><path class="cls-4" d="M204.66,96.13V103a2.53,2.53,0,0,0-1.21-.37c-1.17,0-1.75.88-1.75,2.66v8.08h-6.39V104a8.36,8.36,0,0,1,2-5.89A7,7,0,0,1,202.71,96,13.73,13.73,0,0,1,204.66,96.13Z" transform="translate(-0.93 0.07)"/><path class="cls-4" d="M216,107v6.62a8.63,8.63,0,0,1-1.44.13,8.75,8.75,0,0,1-6.41-2.53A8.91,8.91,0,0,1,214.49,96,8.72,8.72,0,0,1,221,98.38a9,9,0,0,1,2.39,6.61v8.35H217v-7.89a3.27,3.27,0,0,0-.66-2.15,2.17,2.17,0,0,0-1.77-.81,2.53,2.53,0,0,0-2.48,2.48,2.35,2.35,0,0,0,.67,1.74,2.25,2.25,0,0,0,1.69.69A2.89,2.89,0,0,0,216,107Z" transform="translate(-0.93 0.07)"/><path class="cls-4" d="M233.13,119.65h-6.39V105.43a9.59,9.59,0,0,1,2-6.37,8.44,8.44,0,0,1,3-2.26A9.1,9.1,0,0,1,242,98.53a8.47,8.47,0,0,1,2.61,6.29,8.59,8.59,0,0,1-2.59,6.25,8.36,8.36,0,0,1-6.16,2.63q-.57,0-1.71-.12v-7a2.55,2.55,0,0,0,1.58.64,2.3,2.3,0,0,0,1.7-.74,2.43,2.43,0,0,0,.71-1.74,2.31,2.31,0,0,0-.74-1.72,2.46,2.46,0,0,0-1.76-.71c-1.64,0-2.46,1.13-2.46,3.4Z" transform="translate(-0.93 0.07)"/><path class="cls-4" d="M253.76,90v7.12A5.53,5.53,0,0,1,257,96a4.78,4.78,0,0,1,3.91,1.78,7.42,7.42,0,0,1,1.44,4.8v10.8H256v-9a3.06,3.06,0,0,0-.23-1.47,1,1,0,0,0-.9-.38c-.71,0-1.07.53-1.07,1.59v9.26h-6.39V90Z" transform="translate(-0.93 0.07)"/><path class="cls-4" d="M272.47,96.31v17h-6.39v-17Zm-3.18-7.61a3.13,3.13,0,0,1,2.25.92,2.9,2.9,0,0,1,.95,2.16,2.85,2.85,0,0,1-.9,2.18,3.51,3.51,0,0,1-4.6,0,3,3,0,0,1,.05-4.34A3.16,3.16,0,0,1,269.29,88.7Z" transform="translate(-0.93 0.07)"/><path class="cls-4" d="M286.69,105.5l6.34-.24a9,9,0,0,1-2.75,6.07,8.39,8.39,0,0,1-6,2.37,8.58,8.58,0,0,1-6.35-2.61,8.74,8.74,0,0,1-2.59-6.41,8.35,8.35,0,0,1,2.61-6.17,8.86,8.86,0,0,1,15,4.6l-6.48.24a2.58,2.58,0,0,0-2.12-1.1,2.37,2.37,0,0,0-1.79.72,2.47,2.47,0,0,0-.7,1.81,2.56,2.56,0,0,0,.74,1.87,2.49,2.49,0,0,0,1.85.75A2.42,2.42,0,0,0,286.69,105.5Z" transform="translate(-0.93 0.07)"/><path class="cls-4" d="M312,96.72v16.62H305V90h9q6,0,9.32,2.7a10.67,10.67,0,0,1,4,8.76,11.56,11.56,0,0,1-3.42,8.65,12,12,0,0,1-8.8,3.35c-.42,0-1.11,0-2.07-.07v-6.85h1.11q6.07,0,6.07-5.08,0-4.76-6-4.76Z" transform="translate(-0.93 0.07)"/><path class="cls-4" d="M346.93,105.86h-9.69a4.49,4.49,0,0,1,.09-3h3.24a2,2,0,0,0-2.13-1.89,2.33,2.33,0,0,0-1.95,1,4.29,4.29,0,0,0-.75,2.61,4.54,4.54,0,0,0,.72,2.68,2.23,2.23,0,0,0,1.91,1,2.52,2.52,0,0,0,1.84-1l3.65,4.38a9,9,0,0,1-5.66,2,8.72,8.72,0,0,1-6.38-2.55,9,9,0,0,1,0-12.63,8.75,8.75,0,0,1,6.4-2.58,8.61,8.61,0,0,1,8.75,8.73C347,104.91,347,105.31,346.93,105.86Z" transform="translate(-0.93 0.07)"/><path class="cls-4" d="M360.26,96.54v6.74a2.63,2.63,0,0,0-1.85.5,3.3,3.3,0,0,0-.64,2c-.3,3.3-1.58,5.62-3.83,7a10.18,10.18,0,0,1-5.09,1.06H348V107h.29a3.07,3.07,0,0,0,2.19-.64,3.36,3.36,0,0,0,.76-2.25,15.89,15.89,0,0,1,.49-3.67,5.31,5.31,0,0,1,1.43-2.11,7.19,7.19,0,0,1,5.21-1.83Z" transform="translate(-0.93 0.07)"/><path class="cls-4" d="M368.74,96.31v17h-6.39v-17Zm-3.18-7.61a3.14,3.14,0,0,1,2.25.92,2.9,2.9,0,0,1,.95,2.16,2.85,2.85,0,0,1-.9,2.18,3.51,3.51,0,0,1-4.6,0,2.85,2.85,0,0,1-.9-2.18,2.9,2.9,0,0,1,.95-2.16A3.14,3.14,0,0,1,365.56,88.7Z" transform="translate(-0.93 0.07)"/><path class="cls-4" d="M381.59,106.32v5.86a7.69,7.69,0,0,1-2.65.52,6.82,6.82,0,0,1-5.24-2.35,8.16,8.16,0,0,1-2.14-5.72,8.27,8.27,0,0,1,2.58-6.17A8.75,8.75,0,0,1,380.48,96a9.36,9.36,0,0,1,3.83.8,7.25,7.25,0,0,1,2.87,2.15c1.16,1.5,1.74,3.66,1.74,6.5V111a10.58,10.58,0,0,1-2.59,7.41,8.67,8.67,0,0,1-6.74,2.85,10.81,10.81,0,0,1-3.2-.63v-5.82a5.21,5.21,0,0,0,2.53.69,3.27,3.27,0,0,0,2.67-1.14,5,5,0,0,0,.94-3.25V104.7c0-1.79-.72-2.69-2.17-2.69a2.22,2.22,0,0,0-1.62.71,2.3,2.3,0,0,0-.69,1.64,2.19,2.19,0,0,0,.66,1.62,2.24,2.24,0,0,0,1.63.65A2.63,2.63,0,0,0,381.59,106.32Z" transform="translate(-0.93 0.07)"/><path class="cls-4" d="M407.87,113.34h-6.39v-9.62c0-1-.4-1.47-1.21-1.47s-1.2.49-1.2,1.47v9.62h-6.39v-9.5a7.76,7.76,0,0,1,2.21-5.61,7.67,7.67,0,0,1,11.26.37,8.7,8.7,0,0,1,1.72,5.76Z" transform="translate(-0.93 0.07)"/></svg>