<svg id="Layer_1" data-name="Layer 1" xmlns="http://www.w3.org/2000/svg" xmlns:xlink="http://www.w3.org/1999/xlink" viewBox="0 0 604.74 159.84"><defs><style>.cls-1{stroke:#eaa50c;opacity:0.6;isolation:isolate;fill:url(#linear-gradient);}.cls-1,.cls-2{stroke-miterlimit:10;}.cls-2{fill:none;stroke:#00af1d;stroke-width:18.94px;}.cls-3{fill:#f7f7f7;}.cls-4{fill:#fff;}</style><linearGradient id="linear-gradient" x1="13.4" y1="80.65" x2="599.2" y2="80.65" gradientTransform="matrix(1, 0, 0, -1, 0, 162)" gradientUnits="userSpaceOnUse"><stop offset="0.29" stop-color="#80c342"/><stop offset="0.99" stop-color="#2db34a"/><stop offset="1" stop-color="#299546"/></linearGradient></defs><title>DesignIntro</title><path class="cls-1" d="M599.2,61.2a50.3,50.3,0,0,0-100.6,0V62H58.3a44.9,44.9,0,0,0,0,89.8H511.4a44.9,44.9,0,0,0,44.7-40.7A50.51,50.51,0,0,0,599.2,61.2Z" transform="translate(-0.93 0.07)"/><path class="cls-2" d="M596.2,59.7a50.3,50.3,0,0,0-100.6,0v.8H55.3a44.9,44.9,0,0,0,0,89.8H508.4a44.9,44.9,0,0,0,44.7-40.7A50.51,50.51,0,0,0,596.2,59.7Z" transform="translate(-0.93 0.07)"/><path class="cls-3" d="M521.5,54.5h-3.4a15.26,15.26,0,0,0,.1,1.8v1.8c0,.3-.6.5-1.8.5s-1.7-.1-1.7-.3V54.5c-2,.1-3.1.1-3.2.1s-.2-.1-.2-.4a10.3,10.3,0,0,1,.1-1.3V51.5c.1-.1.2-.2.3-.2h3V47.7c0-.1.1-.2.3-.2h2.6c.4,0,.6.1.6.2v3.6h3.4c.2,0,.2.1.2.2a11.31,11.31,0,0,1-.1,1.4,9.89,9.89,0,0,1-.1,1.5Z" transform="translate(-0.93 0.07)"/><path class="cls-3" d="M533.9,55c0,3.5-2.2,5.2-6.5,5.2-.6,0-1.5-.1-2.5-.2q-2.1-.3-2.1-.6v-1a6.64,6.64,0,0,1,.1-1.3c.1-.7.2-1.1.4-1.1a.31.31,0,0,1,.2.1,6.57,6.57,0,0,0,3.2.7c1.7,0,2.6-.6,2.6-1.7a1.51,1.51,0,0,0-.9-1.4,3.42,3.42,0,0,0-1.8-.4,7.17,7.17,0,0,0-1.3.1,7.17,7.17,0,0,1-1.3.1c-.3,0-.4-.1-.4-.4,0-.8,0-1.9.1-3.4s.1-2.7.1-3.4a1.69,1.69,0,0,1,.2-.5c.1-.2.2-.3.4-.3h7.9a.27.27,0,0,1,.3.3,12.83,12.83,0,0,1-.1,1.8c-.1,1-.3,1.5-.4,1.5H532a28.48,28.48,0,0,0-3.3-.2c-.9,0-1.3,0-1.4.1a3.47,3.47,0,0,0-.2,1.3c0,.1,0,.2.1.2a3.44,3.44,0,0,0,.9-.1c.4,0,.7-.1.9-.1a5.22,5.22,0,0,1,3.6,1.2A5.39,5.39,0,0,1,533.9,55Z" transform="translate(-0.93 0.07)"/><path class="cls-3" d="M549,52.8a7.69,7.69,0,0,1-2,5.2,6.56,6.56,0,0,1-5,2.3,6.41,6.41,0,0,1-5-2.3,7.76,7.76,0,0,1,0-10.4,6.78,6.78,0,0,1,10,0A7.24,7.24,0,0,1,549,52.8Zm-4.3,0a3.14,3.14,0,0,0-.7-2.1,2.32,2.32,0,0,0-1.9-.9,2.2,2.2,0,0,0-1.9.9,3.5,3.5,0,0,0,0,4.2,2.42,2.42,0,0,0,1.9,1,2.17,2.17,0,0,0,1.9-1A3.77,3.77,0,0,0,544.7,52.8Z" transform="translate(-0.93 0.07)"/><path class="cls-3" d="M560.9,59.6c0,.2-.1.3-.4.3a7.08,7.08,0,0,1-1.5.1,6.15,6.15,0,0,1-1.4-.1c-.1,0-.2-.1-.4-.2-.4-.5-1-1.4-1.7-2.4-.2.2-.8,1-1.9,2.4a1.38,1.38,0,0,1-.4.3,4.51,4.51,0,0,1-1.3.1c-1.2,0-1.9-.1-1.9-.4v-2a.76.76,0,0,1,.2-.4c.6-.6,1.5-1.6,2.7-2.9-.5-.5-1.1-1-1.6-1.6a6.74,6.74,0,0,1-1.3-1.5V49.2c0-.2.1-.3.4-.3h2.8c.2,0,.3.1.4.3a22.17,22.17,0,0,0,1.8,2.2c.7-.9,1.3-1.6,1.7-2.2a.4.4,0,0,1,.4-.2h3c.3,0,.4.1.4.3v2.1a.76.76,0,0,1-.2.4c-.6.6-1.5,1.5-2.6,2.7.6.6,1.5,1.6,2.6,2.8a.76.76,0,0,1,.2.4Z" transform="translate(-0.93 0.07)"/><path class="cls-3" d="M575.2,54.3a6,6,0,0,1-1.5,4.2,5.13,5.13,0,0,1-4,1.7,4.64,4.64,0,0,1-1.9-.4c-.7-.3-1-.4-.9-.4-.1,0-.2.1-.2.4a13.57,13.57,0,0,0,.1,1.8,13.57,13.57,0,0,1,.1,1.8c0,.3-.1.4-.4.4h-2.4a2.24,2.24,0,0,1-1-.1c-.2-.1-.4-.2-.4-.4v-9a20.15,20.15,0,0,0-.4-4.6v-.2c0-.1,0-.2.1-.2.3-.1.9-.2,1.7-.4s1.4-.2,1.8-.2.5.2.5.6.1.6.2.6c-.1,0,.3-.2,1-.6a4.14,4.14,0,0,1,2-.6,5.35,5.35,0,0,1,4.1,1.7C574.8,51.2,575.2,52.6,575.2,54.3Zm-4.3,0a2.27,2.27,0,0,0-.6-1.6,2,2,0,0,0-3,0,2.77,2.77,0,0,0-.5,1.6,3.1,3.1,0,0,0,.5,1.7,1.8,1.8,0,0,0,1.5.7A2.09,2.09,0,0,0,570.9,54.3Z" transform="translate(-0.93 0.07)"/><path class="cls-4" d="M41.28,90v23.32H34.34V90Z" transform="translate(-0.93 0.07)"/><path class="cls-4" d="M60.66,113.34H54.27v-9.62c0-1-.41-1.47-1.22-1.47s-1.19.49-1.19,1.47v9.62H45.47v-9.5a7.76,7.76,0,0,1,2.2-5.61,7.67,7.67,0,0,1,11.26.37,8.7,8.7,0,0,1,1.73,5.76Z" transform="translate(-0.93 0.07)"/><path class="cls-4" d="M70.08,90v6.52H73v6.76H70.08a4.5,4.5,0,0,0,.64,2.8,2.94,2.94,0,0,0,2.35.77v6.71c-.33,0-.58,0-.74,0a8.57,8.57,0,0,1-4.09-1,8.33,8.33,0,0,1-3.09-2.73A10.39,10.39,0,0,1,63.68,104V90Z" transform="translate(-0.93 0.07)"/><path class="cls-4" d="M85.44,96.13V103a2.5,2.5,0,0,0-1.21-.37c-1.17,0-1.75.88-1.75,2.66v8.08H76.09V104a8.36,8.36,0,0,1,2-5.89A7,7,0,0,1,83.49,96,13.73,13.73,0,0,1,85.44,96.13Z" transform="translate(-0.93 0.07)"/><path class="cls-4" d="M95.4,96a8.48,8.48,0,0,1,6.22,2.6,8.86,8.86,0,0,1,0,12.54,9,9,0,0,1-12.67,0,8.84,8.84,0,0,1,0-12.58A9,9,0,0,1,95.4,96Zm-.17,6.3a2.32,2.32,0,0,0-1.74.75,2.63,2.63,0,0,0,0,3.63,2.39,2.39,0,0,0,3.48,0A2.63,2.63,0,0,0,97,103,2.34,2.34,0,0,0,95.23,102.25Z" transform="translate(-0.93 0.07)"/><path class="cls-4" d="M117.36,90h6.4v14.2a9.6,9.6,0,0,1-2.06,6.37,8.31,8.31,0,0,1-3,2.26,9.1,9.1,0,0,1-10.16-1.73,8.44,8.44,0,0,1-2.62-6.29,8.57,8.57,0,0,1,2.6-6.23A8.33,8.33,0,0,1,114.68,96c.38,0,.95,0,1.71.11v7a2.55,2.55,0,0,0-1.57-.62,2.27,2.27,0,0,0-1.7.73,2.38,2.38,0,0,0-.71,1.75,2.27,2.27,0,0,0,.73,1.7,2.46,2.46,0,0,0,1.76.71c1.64,0,2.46-1.13,2.46-3.4Z" transform="translate(-0.93 0.07)"/><path class="cls-4" d="M127.12,96.54h6.39v9.63c0,1,.41,1.45,1.22,1.45s1.19-.48,1.19-1.45V96.54h6.39v9.51a7.73,7.73,0,0,1-2.2,5.59,7.19,7.19,0,0,1-5.4,2.29,7.28,7.28,0,0,1-5.86-2.65,8.72,8.72,0,0,1-1.73-5.74Z" transform="translate(-0.93 0.07)"/><path class="cls-4" d="M156.5,105.5l6.34-.24a9,9,0,0,1-2.75,6.07,8.39,8.39,0,0,1-6,2.37,8.58,8.58,0,0,1-6.35-2.61,8.74,8.74,0,0,1-2.59-6.41,8.35,8.35,0,0,1,2.61-6.17,8.86,8.86,0,0,1,15,4.6l-6.48.24a2.58,2.58,0,0,0-2.12-1.1,2.37,2.37,0,0,0-1.79.72,2.48,2.48,0,0,0-.71,1.81,2.56,2.56,0,0,0,.75,1.87,2.49,2.49,0,0,0,1.85.75A2.42,2.42,0,0,0,156.5,105.5Z" transform="translate(-0.93 0.07)"/><path class="cls-4" d="M171.32,90v6.52h2.87v6.76h-2.87a4.5,4.5,0,0,0,.64,2.8,2.94,2.94,0,0,0,2.35.77v6.71c-.33,0-.58,0-.74,0a8.6,8.6,0,0,1-4.09-1,8.33,8.33,0,0,1-3.09-2.73,10.39,10.39,0,0,1-1.47-5.85V90Z" transform="translate(-0.93 0.07)"/><path class="cls-4" d="M183.72,96.31v17h-6.39v-17Zm-3.18-7.61a3.13,3.13,0,0,1,2.25.92,2.9,2.9,0,0,1,1,2.16,2.85,2.85,0,0,1-.9,2.18,3.49,3.49,0,0,1-4.59,0,2.85,2.85,0,0,1-.9-2.18,2.9,2.9,0,0,1,1-2.16A3.12,3.12,0,0,1,180.54,88.7Z" transform="translate(-0.93 0.07)"/><path class="cls-4" d="M195.57,96a8.85,8.85,0,0,1,6.17,15.14,9,9,0,0,1-12.67,0,8.84,8.84,0,0,1,0-12.58A9,9,0,0,1,195.57,96Zm-.17,6.3a2.33,2.33,0,0,0-1.75.75,2.5,2.5,0,0,0-.71,1.82,2.53,2.53,0,0,0,.72,1.81,2.41,2.41,0,0,0,3.49,0,2.66,2.66,0,0,0,0-3.63A2.35,2.35,0,0,0,195.4,102.25Z" transform="translate(-0.93 0.07)"/><path class="cls-4" d="M222.23,113.34h-6.39v-9.62c0-1-.41-1.47-1.22-1.47s-1.19.49-1.19,1.47v9.62H207v-9.5a7.76,7.76,0,0,1,2.21-5.61,7.67,7.67,0,0,1,11.26.37,8.7,8.7,0,0,1,1.73,5.76Z" transform="translate(-0.93 0.07)"/><path class="cls-4" d="M240.39,90v6.52h2.87v6.76h-2.87a4.56,4.56,0,0,0,.64,2.8,3,3,0,0,0,2.35.77v6.71c-.33,0-.57,0-.73,0a8.57,8.57,0,0,1-4.09-1,8.26,8.26,0,0,1-3.09-2.73A10.39,10.39,0,0,1,234,104V90Z" transform="translate(-0.93 0.07)"/><path class="cls-4" d="M254.49,96a8.45,8.45,0,0,1,6.21,2.6,8.85,8.85,0,0,1,0,12.54,9,9,0,0,1-12.67,0,8.84,8.84,0,0,1,0-12.58A9,9,0,0,1,254.49,96Zm-.17,6.3a2.32,2.32,0,0,0-1.74.75,2.63,2.63,0,0,0,0,3.63,2.39,2.39,0,0,0,3.48,0,2.63,2.63,0,0,0,0-3.63A2.34,2.34,0,0,0,254.32,102.25Z" transform="translate(-0.93 0.07)"/><path class="cls-4" d="M291.05,106.59v6.75H276l7.49-14,.26-.48a2.38,2.38,0,0,0,.3-1.11c0-.92-.54-1.39-1.62-1.39a1.51,1.51,0,0,0-1.1.47,1.5,1.5,0,0,0-.47,1.11,1.73,1.73,0,0,0,.61,1.29l-3,5.34a8.26,8.26,0,0,1-2.89-3,8.26,8.26,0,0,1,1.37-9.73,8.11,8.11,0,0,1,11.49,0,7.89,7.89,0,0,1,2.37,5.78,7.74,7.74,0,0,1-.87,3.62l-2.77,5.38Z" transform="translate(-0.93 0.07)"/><path class="cls-4" d="M302,96.72v16.62h-6.94V90h9q6,0,9.32,2.7a10.67,10.67,0,0,1,4,8.76,11.6,11.6,0,0,1-3.42,8.65,12,12,0,0,1-8.81,3.35c-.42,0-1.11,0-2.06-.07v-6.85h1.11c4,0,6.07-1.69,6.07-5.08q0-4.76-6-4.76Z" transform="translate(-0.93 0.07)"/><path class="cls-4" d="M338.44,107v6.62a8.54,8.54,0,0,1-1.44.13,8.75,8.75,0,0,1-6.41-2.53A8.91,8.91,0,0,1,336.92,96a8.76,8.76,0,0,1,6.52,2.42,9,9,0,0,1,2.38,6.61v8.35h-6.39v-7.89a3.27,3.27,0,0,0-.66-2.15,2.17,2.17,0,0,0-1.77-.81,2.51,2.51,0,0,0-1.81,4.22,2.25,2.25,0,0,0,1.69.69A2.89,2.89,0,0,0,338.44,107Z" transform="translate(-0.93 0.07)"/><path class="cls-4" d="M364.74,113.34h-6.39v-9.62c0-1-.41-1.47-1.22-1.47s-1.19.49-1.19,1.47v9.62h-6.39v-9.5a7.76,7.76,0,0,1,2.2-5.61A7.67,7.67,0,0,1,363,98.6a8.7,8.7,0,0,1,1.73,5.76Z" transform="translate(-0.93 0.07)"/><path class="cls-4" d="M379,90h6.39v14.2a9.59,9.59,0,0,1-2.05,6.37,8.44,8.44,0,0,1-3,2.26,9.1,9.1,0,0,1-10.16-1.73,8.48,8.48,0,0,1-2.62-6.29,8.57,8.57,0,0,1,2.6-6.23A8.33,8.33,0,0,1,376.27,96c.38,0,1,0,1.71.11v7a2.55,2.55,0,0,0-1.57-.62,2.27,2.27,0,0,0-1.7.73A2.42,2.42,0,0,0,374,105a2.28,2.28,0,0,0,.74,1.7,2.45,2.45,0,0,0,1.76.71c1.64,0,2.46-1.13,2.46-3.4Z" transform="translate(-0.93 0.07)"/><path class="cls-4" d="M399.36,90h12.36l-3.81,9a9.19,9.19,0,0,1,3,3,7.83,7.83,0,0,1,.93,3.91,7.45,7.45,0,0,1-2.48,5.68,8.61,8.61,0,0,1-6.1,2.32,11,11,0,0,1-4-.76v-6.59a5.15,5.15,0,0,0,2.58.92,2.69,2.69,0,0,0,2-.85,3,3,0,0,0,.81-2.12,2.72,2.72,0,0,0-1.22-2.32,5.5,5.5,0,0,0-3.24-.86l1.72-4.6h-2.58Z" transform="translate(-0.93 0.07)"/><path class="cls-4" d="M424.78,96.72v16.62h-6.94V90h9c4,0,7.07.9,9.31,2.7a10.65,10.65,0,0,1,4,8.76,11.56,11.56,0,0,1-3.42,8.65,12,12,0,0,1-8.8,3.35c-.42,0-1.11,0-2.07-.07v-6.85H427q6.08,0,6.07-5.08,0-4.76-6-4.76Z" transform="translate(-0.93 0.07)"/><path class="cls-4" d="M471.91,89.91v6.65a3.9,3.9,0,0,0-1.16-.25,1.79,1.79,0,0,0-1.35.58,1.92,1.92,0,0,0-.57,1.4,3.86,3.86,0,0,0,.62,1.78l.53.92a9.61,9.61,0,0,1,1.43,4.82,7.73,7.73,0,0,1-2.41,5.76,8.16,8.16,0,0,1-5.91,2.36,7.74,7.74,0,0,1-3.31-.77v-6.75a3.37,3.37,0,0,0,1.76.63,2.24,2.24,0,0,0,1.51-.52,1.67,1.67,0,0,0,.6-1.31,6.61,6.61,0,0,0-1-2.24,10.91,10.91,0,0,1-1.55-5.47,7.8,7.8,0,0,1,2.35-5.68,7.58,7.58,0,0,1,5.61-2.38A8.78,8.78,0,0,1,471.91,89.91Z" transform="translate(-0.93 0.07)"/><path class="cls-4" d="M481.34,90v23.32H475V90Zm9.79,6.29-3.12,6.2,4.65,10.83h-7.08l-4-11.12,2.91-5.91Z" transform="translate(-0.93 0.07)"/><path class="cls-4" d="M500.21,96.31v17h-6.39v-17ZM497,88.7a3.13,3.13,0,0,1,2.25.92,2.9,2.9,0,0,1,1,2.16,2.85,2.85,0,0,1-.9,2.18,3.51,3.51,0,0,1-4.6,0,2.85,2.85,0,0,1-.9-2.18,2.9,2.9,0,0,1,.95-2.16A3.16,3.16,0,0,1,497,88.7Z" transform="translate(-0.93 0.07)"/><path class="cls-4" d="M510.36,90v23.32H504V90Z" transform="translate(-0.93 0.07)"/><path class="cls-4" d="M520.49,90v23.32H514.1V90Z" transform="translate(-0.93 0.07)"/><path class="cls-4" d="M534.92,96.54v6.74a2.67,2.67,0,0,0-1.86.5,3.36,3.36,0,0,0-.64,2c-.29,3.3-1.57,5.62-3.82,7a10.2,10.2,0,0,1-5.1,1.06h-.89V107h.29a3.08,3.08,0,0,0,2.2-.64,3.41,3.41,0,0,0,.76-2.25,15.35,15.35,0,0,1,.49-3.67,5.31,5.31,0,0,1,1.43-2.11A7.19,7.19,0,0,1,533,96.54Z" transform="translate(-0.93 0.07)"/></svg>