<svg id="Layer_1" data-name="Layer 1" xmlns="http://www.w3.org/2000/svg" xmlns:xlink="http://www.w3.org/1999/xlink" viewBox="0 0 604.74 159.84"><defs><style>.cls-1{opacity:0.6;isolation:isolate;fill:url(#linear-gradient);}.cls-2{fill:none;stroke:#d89c07;stroke-miterlimit:10;stroke-width:18.94px;}.cls-3{fill:#f7f7f7;}.cls-4{fill:#fff;}</style><linearGradient id="linear-gradient" x1="9.4" y1="-569.45" x2="595.2" y2="-569.45" gradientTransform="translate(0 654.6)" gradientUnits="userSpaceOnUse"><stop offset="0.17" stop-color="#febe2a"/><stop offset="0.99" stop-color="#e99723"/></linearGradient></defs><title>DigitalVideo</title><path class="cls-1" d="M595.2,65a50.3,50.3,0,0,0-100.6,0v.8H54.3a44.9,44.9,0,0,0,0,89.8H507.4a44.9,44.9,0,0,0,44.7-40.7A50.51,50.51,0,0,0,595.2,65Z" transform="translate(-0.93 -3.23)"/><path class="cls-2" d="M596.2,63a50.3,50.3,0,0,0-100.6,0v.8H55.3a44.9,44.9,0,0,0,0,89.8H508.4a44.9,44.9,0,0,0,44.7-40.7A50.51,50.51,0,0,0,596.2,63Z" transform="translate(-0.93 -3.23)"/><path class="cls-3" d="M521.5,59.8h-3.4a15.26,15.26,0,0,0,.1,1.8v1.8c0,.3-.6.5-1.8.5s-1.7-.1-1.7-.3V59.8c-2,.1-3.1.1-3.2.1s-.2-.1-.2-.4a10.3,10.3,0,0,1,.1-1.3V56.8c.1-.1.2-.2.3-.2h3V53c0-.1.1-.2.3-.2h2.6c.4,0,.6.1.6.2v3.6h3.4c.2,0,.2.1.2.2a11.31,11.31,0,0,1-.1,1.4,9.89,9.89,0,0,1-.1,1.5Z" transform="translate(-0.93 -3.23)"/><path class="cls-3" d="M533.9,60.3c0,3.5-2.2,5.2-6.5,5.2-.6,0-1.5-.1-2.5-.2q-2.1-.3-2.1-.6v-1a6.64,6.64,0,0,1,.1-1.3c.1-.7.2-1.1.4-1.1a.31.31,0,0,1,.2.1,6.57,6.57,0,0,0,3.2.7c1.7,0,2.6-.6,2.6-1.7a1.51,1.51,0,0,0-.9-1.4,3.42,3.42,0,0,0-1.8-.4,7.17,7.17,0,0,0-1.3.1,7.17,7.17,0,0,1-1.3.1c-.3,0-.4-.1-.4-.4,0-.8,0-1.9.1-3.4s.1-2.7.1-3.4a1.69,1.69,0,0,1,.2-.5c.1-.2.2-.3.4-.3h7.9a.27.27,0,0,1,.3.3,12.83,12.83,0,0,1-.1,1.8c-.1,1-.3,1.5-.4,1.5H532a28.48,28.48,0,0,0-3.3-.2c-.9,0-1.3,0-1.4.1a3.47,3.47,0,0,0-.2,1.3c0,.1,0,.2.1.2a3.44,3.44,0,0,0,.9-.1c.4,0,.7-.1.9-.1a5.22,5.22,0,0,1,3.6,1.2A5.39,5.39,0,0,1,533.9,60.3Z" transform="translate(-0.93 -3.23)"/><path class="cls-3" d="M549,58.1a7.69,7.69,0,0,1-2,5.2,6.56,6.56,0,0,1-5,2.3,6.41,6.41,0,0,1-5-2.3,7.76,7.76,0,0,1,0-10.4,6.78,6.78,0,0,1,10,0A7.24,7.24,0,0,1,549,58.1Zm-4.3,0A3.14,3.14,0,0,0,544,56a2.32,2.32,0,0,0-1.9-.9,2.2,2.2,0,0,0-1.9.9,3.5,3.5,0,0,0,0,4.2,2.42,2.42,0,0,0,1.9,1,2.17,2.17,0,0,0,1.9-1A3.77,3.77,0,0,0,544.7,58.1Z" transform="translate(-0.93 -3.23)"/><path class="cls-3" d="M560.9,64.9c0,.2-.1.3-.4.3a7.08,7.08,0,0,1-1.5.1,6.15,6.15,0,0,1-1.4-.1c-.1,0-.2-.1-.4-.2-.4-.5-1-1.4-1.7-2.4-.2.2-.8,1-1.9,2.4a1.38,1.38,0,0,1-.4.3,4.51,4.51,0,0,1-1.3.1c-1.2,0-1.9-.1-1.9-.4V63a.76.76,0,0,1,.2-.4c.6-.6,1.5-1.6,2.7-2.9-.5-.5-1.1-1-1.6-1.6a6.74,6.74,0,0,1-1.3-1.5V54.5c0-.2.1-.3.4-.3h2.8c.2,0,.3.1.4.3a22.17,22.17,0,0,0,1.8,2.2c.7-.9,1.3-1.6,1.7-2.2a.4.4,0,0,1,.4-.2h3c.3,0,.4.1.4.3v2.1a.76.76,0,0,1-.2.4c-.6.6-1.5,1.5-2.6,2.7.6.6,1.5,1.6,2.6,2.8a.76.76,0,0,1,.2.4Z" transform="translate(-0.93 -3.23)"/><path class="cls-3" d="M575.2,59.6a6,6,0,0,1-1.5,4.2,5.13,5.13,0,0,1-4,1.7,4.64,4.64,0,0,1-1.9-.4c-.7-.3-1-.4-.9-.4-.1,0-.2.1-.2.4a13.57,13.57,0,0,0,.1,1.8,13.57,13.57,0,0,1,.1,1.8c0,.3-.1.4-.4.4h-2.4a2.24,2.24,0,0,1-1-.1c-.2-.1-.4-.2-.4-.4v-9a20.15,20.15,0,0,0-.4-4.6v-.2c0-.1,0-.2.1-.2.3-.1.9-.2,1.7-.4s1.4-.2,1.8-.2.5.2.5.6.1.6.2.6c-.1,0,.3-.2,1-.6a4.14,4.14,0,0,1,2-.6,5.35,5.35,0,0,1,4.1,1.7C574.8,56.5,575.2,57.9,575.2,59.6Zm-4.3,0a2.27,2.27,0,0,0-.6-1.6,2,2,0,0,0-3,0,2.77,2.77,0,0,0-.5,1.6,3.1,3.1,0,0,0,.5,1.7,1.8,1.8,0,0,0,1.5.7A2.09,2.09,0,0,0,570.9,59.6Z" transform="translate(-0.93 -3.23)"/><path class="cls-4" d="M191.05,95.22l-10.46,25.36L170.2,95.22h8.27l2.19,7.49,2.43-7.49Z" transform="translate(-0.93 -3.23)"/><path class="cls-4" d="M198.7,101.69v17.52h-6.58V101.69Zm-3.27-7.83a3.24,3.24,0,0,1,2.31.94,3,3,0,0,1,1,2.23,3,3,0,0,1-.93,2.25,3.3,3.3,0,0,1-2.36.88,3.34,3.34,0,0,1-2.37-.88,3.12,3.12,0,0,1,.06-4.48A3.24,3.24,0,0,1,195.43,93.86Z" transform="translate(-0.93 -3.23)"/><path class="cls-4" d="M213.36,95.22h6.57v14.61a9.87,9.87,0,0,1-2.11,6.55,8.5,8.5,0,0,1-3.08,2.32,9.4,9.4,0,0,1-10.45-1.77,8.73,8.73,0,0,1-2.69-6.47,8.85,8.85,0,0,1,2.67-6.42,8.61,8.61,0,0,1,6.33-2.71c.39,0,1,0,1.76.11v7.24a2.64,2.64,0,0,0-1.62-.63,2.36,2.36,0,0,0-1.75.75,2.46,2.46,0,0,0-.73,1.8,2.33,2.33,0,0,0,.76,1.75,2.52,2.52,0,0,0,1.81.73q2.53,0,2.53-3.5Z" transform="translate(-0.93 -3.23)"/><path class="cls-4" d="M240.62,111.51h-10a4.53,4.53,0,0,1-.23-1.39,4.88,4.88,0,0,1,.31-1.72h3.34a2.06,2.06,0,0,0-2.19-2,2.4,2.4,0,0,0-2,1,4.41,4.41,0,0,0-.77,2.68,4.69,4.69,0,0,0,.75,2.76,2.29,2.29,0,0,0,2,1,2.63,2.63,0,0,0,1.89-1l3.75,4.5a9.21,9.21,0,0,1-5.82,2,9,9,0,0,1-6.56-2.62,9.25,9.25,0,0,1,0-13,9,9,0,0,1,6.58-2.65,8.85,8.85,0,0,1,9,9C240.69,110.54,240.67,111,240.62,111.51Z" transform="translate(-0.93 -3.23)"/><path class="cls-4" d="M251.66,101.32a8.66,8.66,0,0,1,6.39,2.68,9.1,9.1,0,0,1,0,12.89,9.28,9.28,0,0,1-13,0,8.77,8.77,0,0,1-2.71-6.46A8.68,8.68,0,0,1,245,104,9.19,9.19,0,0,1,251.66,101.32Zm-.17,6.48a2.42,2.42,0,0,0-1.8.77,2.6,2.6,0,0,0-.74,1.87,2.56,2.56,0,0,0,.75,1.86,2.46,2.46,0,0,0,3.59,0,2.55,2.55,0,0,0,.74-1.86,2.59,2.59,0,0,0-.73-1.87A2.44,2.44,0,0,0,251.49,107.8Z" transform="translate(-0.93 -3.23)"/><path class="cls-4" d="M282.19,112.64v6.8a9.29,9.29,0,0,1-8.06-2.46,9.16,9.16,0,0,1,6.5-15.65,9,9,0,0,1,6.71,2.49,9.29,9.29,0,0,1,2.45,6.8v8.59h-6.58v-8.12a3.39,3.39,0,0,0-.67-2.21,2.24,2.24,0,0,0-1.82-.83,2.6,2.6,0,0,0-2.55,2.55,2.48,2.48,0,0,0,.68,1.79,2.34,2.34,0,0,0,1.75.7A3,3,0,0,0,282.19,112.64Z" transform="translate(-0.93 -3.23)"/><path class="cls-4" d="M309.25,119.21h-6.58v-9.89c0-1-.41-1.52-1.24-1.52s-1.24.51-1.24,1.52v9.89h-6.57v-9.77a8,8,0,0,1,2.27-5.78,7.9,7.9,0,0,1,11.58.38,9,9,0,0,1,1.78,5.93Z" transform="translate(-0.93 -3.23)"/><path class="cls-4" d="M323.87,95.22h6.58v14.61a9.93,9.93,0,0,1-2.11,6.55,8.63,8.63,0,0,1-3.09,2.32,9,9,0,0,1-3.84.86,9.12,9.12,0,0,1-6.61-2.63,9.08,9.08,0,0,1,0-12.89,8.61,8.61,0,0,1,6.32-2.71c.39,0,1,0,1.76.11v7.24a2.64,2.64,0,0,0-1.62-.63,2.36,2.36,0,0,0-1.75.75,2.49,2.49,0,0,0-.72,1.8,2.36,2.36,0,0,0,.75,1.75,2.56,2.56,0,0,0,1.81.73q2.54,0,2.53-3.5Z" transform="translate(-0.93 -3.23)"/><path class="cls-4" d="M352.42,106.52V113h-2.37v6.26h-7.14V104.32a9.73,9.73,0,0,1,2.59-6.95A8.62,8.62,0,0,1,352,94.62a8.87,8.87,0,0,1,7.26,3.74l-5.85,4.28a1.78,1.78,0,0,0-1.74-1.38c-1.1,0-1.65.77-1.65,2.29v3Z" transform="translate(-0.93 -3.23)"/><path class="cls-4" d="M366.82,101.69v17.52h-6.58V101.69Zm-3.27-7.83a3.24,3.24,0,0,1,2.31.94,3,3,0,0,1,1,2.23,3,3,0,0,1-.92,2.25,3.3,3.3,0,0,1-2.36.88,3.34,3.34,0,0,1-2.37-.88,3,3,0,0,1-.92-2.25,3,3,0,0,1,1-2.23A3.24,3.24,0,0,1,363.55,93.86Z" transform="translate(-0.93 -3.23)"/><path class="cls-4" d="M377.26,95.22v24h-6.58v-24Z" transform="translate(-0.93 -3.23)"/><path class="cls-4" d="M405.15,119.21h-6.57v-9.46a3.52,3.52,0,0,0-.23-1.51.85.85,0,0,0-.82-.42q-1.11,0-1.11,2v9.44h-6.58v-9.46a3.52,3.52,0,0,0-.23-1.51.89.89,0,0,0-.84-.42c-.73,0-1.09.65-1.09,2v9.44h-6.57V108.42a7,7,0,0,1,2-5,6.44,6.44,0,0,1,4.82-2.07,7.06,7.06,0,0,1,5.24,2.47,7.59,7.59,0,0,1,5.17-2.47,6.49,6.49,0,0,1,5.27,2.4,8.25,8.25,0,0,1,1.56,5.43Z" transform="translate(-0.93 -3.23)"/></svg>