<svg id="Layer_1" data-name="Layer 1" xmlns="http://www.w3.org/2000/svg" xmlns:xlink="http://www.w3.org/1999/xlink" viewBox="0 0 604.74 159.84"><defs><style>.cls-1{opacity:0.6;isolation:isolate;fill:url(#linear-gradient);}.cls-2{fill:none;stroke:#d89c07;stroke-miterlimit:10;stroke-width:18.94px;}.cls-3{fill:#f7f7f7;}.cls-4{fill:#fff;}</style><linearGradient id="linear-gradient" x1="9.4" y1="-569.45" x2="595.2" y2="-569.45" gradientTransform="translate(0 654.6)" gradientUnits="userSpaceOnUse"><stop offset="0.17" stop-color="#febe2a"/><stop offset="0.99" stop-color="#e99723"/></linearGradient></defs><title>DigitalAnimation</title><path class="cls-1" d="M595.2,65a50.3,50.3,0,0,0-100.6,0v.8H54.3a44.9,44.9,0,0,0,0,89.8H507.4a44.9,44.9,0,0,0,44.7-40.7A50.51,50.51,0,0,0,595.2,65Z" transform="translate(-0.93 -3.23)"/><path class="cls-2" d="M596.2,63a50.3,50.3,0,0,0-100.6,0v.8H55.3a44.9,44.9,0,0,0,0,89.8H508.4a44.9,44.9,0,0,0,44.7-40.7A50.51,50.51,0,0,0,596.2,63Z" transform="translate(-0.93 -3.23)"/><path class="cls-3" d="M521.5,59.8h-3.4a15.26,15.26,0,0,0,.1,1.8v1.8c0,.3-.6.5-1.8.5s-1.7-.1-1.7-.3V59.8c-2,.1-3.1.1-3.2.1s-.2-.1-.2-.4a10.3,10.3,0,0,1,.1-1.3V56.8c.1-.1.2-.2.3-.2h3V53c0-.1.1-.2.3-.2h2.6c.4,0,.6.1.6.2v3.6h3.4c.2,0,.2.1.2.2a11.31,11.31,0,0,1-.1,1.4,9.89,9.89,0,0,1-.1,1.5Z" transform="translate(-0.93 -3.23)"/><path class="cls-3" d="M533.9,60.3c0,3.5-2.2,5.2-6.5,5.2-.6,0-1.5-.1-2.5-.2q-2.1-.3-2.1-.6v-1a6.64,6.64,0,0,1,.1-1.3c.1-.7.2-1.1.4-1.1a.31.31,0,0,1,.2.1,6.57,6.57,0,0,0,3.2.7c1.7,0,2.6-.6,2.6-1.7a1.51,1.51,0,0,0-.9-1.4,3.42,3.42,0,0,0-1.8-.4,7.17,7.17,0,0,0-1.3.1,7.17,7.17,0,0,1-1.3.1c-.3,0-.4-.1-.4-.4,0-.8,0-1.9.1-3.4s.1-2.7.1-3.4a1.69,1.69,0,0,1,.2-.5c.1-.2.2-.3.4-.3h7.9a.27.27,0,0,1,.3.3,12.83,12.83,0,0,1-.1,1.8c-.1,1-.3,1.5-.4,1.5H532a28.48,28.48,0,0,0-3.3-.2c-.9,0-1.3,0-1.4.1a3.47,3.47,0,0,0-.2,1.3c0,.1,0,.2.1.2a3.44,3.44,0,0,0,.9-.1c.4,0,.7-.1.9-.1a5.22,5.22,0,0,1,3.6,1.2A5.39,5.39,0,0,1,533.9,60.3Z" transform="translate(-0.93 -3.23)"/><path class="cls-3" d="M549,58.1a7.69,7.69,0,0,1-2,5.2,6.56,6.56,0,0,1-5,2.3,6.41,6.41,0,0,1-5-2.3,7.76,7.76,0,0,1,0-10.4,6.78,6.78,0,0,1,10,0A7.24,7.24,0,0,1,549,58.1Zm-4.3,0A3.14,3.14,0,0,0,544,56a2.32,2.32,0,0,0-1.9-.9,2.2,2.2,0,0,0-1.9.9,3.5,3.5,0,0,0,0,4.2,2.42,2.42,0,0,0,1.9,1,2.17,2.17,0,0,0,1.9-1A3.77,3.77,0,0,0,544.7,58.1Z" transform="translate(-0.93 -3.23)"/><path class="cls-3" d="M560.9,64.9c0,.2-.1.3-.4.3a7.08,7.08,0,0,1-1.5.1,6.15,6.15,0,0,1-1.4-.1c-.1,0-.2-.1-.4-.2-.4-.5-1-1.4-1.7-2.4-.2.2-.8,1-1.9,2.4a1.38,1.38,0,0,1-.4.3,4.51,4.51,0,0,1-1.3.1c-1.2,0-1.9-.1-1.9-.4V63a.76.76,0,0,1,.2-.4c.6-.6,1.5-1.6,2.7-2.9-.5-.5-1.1-1-1.6-1.6a6.74,6.74,0,0,1-1.3-1.5V54.5c0-.2.1-.3.4-.3h2.8c.2,0,.3.1.4.3a22.17,22.17,0,0,0,1.8,2.2c.7-.9,1.3-1.6,1.7-2.2a.4.4,0,0,1,.4-.2h3c.3,0,.4.1.4.3v2.1a.76.76,0,0,1-.2.4c-.6.6-1.5,1.5-2.6,2.7.6.6,1.5,1.6,2.6,2.8a.76.76,0,0,1,.2.4Z" transform="translate(-0.93 -3.23)"/><path class="cls-3" d="M575.2,59.6a6,6,0,0,1-1.5,4.2,5.13,5.13,0,0,1-4,1.7,4.64,4.64,0,0,1-1.9-.4c-.7-.3-1-.4-.9-.4-.1,0-.2.1-.2.4a13.57,13.57,0,0,0,.1,1.8,13.57,13.57,0,0,1,.1,1.8c0,.3-.1.4-.4.4h-2.4a2.24,2.24,0,0,1-1-.1c-.2-.1-.4-.2-.4-.4v-9a20.15,20.15,0,0,0-.4-4.6v-.2c0-.1,0-.2.1-.2.3-.1.9-.2,1.7-.4s1.4-.2,1.8-.2.5.2.5.6.1.6.2.6c-.1,0,.3-.2,1-.6a4.14,4.14,0,0,1,2-.6,5.35,5.35,0,0,1,4.1,1.7C574.8,56.5,575.2,57.9,575.2,59.6Zm-4.3,0a2.27,2.27,0,0,0-.6-1.6,2,2,0,0,0-3,0,2.77,2.77,0,0,0-.5,1.6,3.1,3.1,0,0,0,.5,1.7,1.8,1.8,0,0,0,1.5.7A2.09,2.09,0,0,0,570.9,59.6Z" transform="translate(-0.93 -3.23)"/><path class="cls-4" d="M207.51,107.17v6.33h-2.06v5.71h-7.13V104a9.39,9.39,0,0,1,2.41-6.88,9.14,9.14,0,0,1,6.8-2.45q4.22,0,6.24,2.22c1.34,1.49,2,3.77,2,6.87v15.5h-7.14v-15a4.08,4.08,0,0,0-.33-2,1.29,1.29,0,0,0-1.2-.54c-1.11,0-1.67.83-1.67,2.49v3Z" transform="translate(-0.93 -3.23)"/><path class="cls-4" d="M235.25,119.21h-6.58v-9.89c0-1-.41-1.52-1.24-1.52s-1.24.51-1.24,1.52v9.89h-6.57v-9.77a8,8,0,0,1,2.27-5.78,7.9,7.9,0,0,1,11.58.38,9,9,0,0,1,1.78,5.93Z" transform="translate(-0.93 -3.23)"/><path class="cls-4" d="M245.65,101.69v17.52h-6.57V101.69Zm-3.27-7.83a3.27,3.27,0,0,1,2.32.94,3.13,3.13,0,0,1,.05,4.48,3.62,3.62,0,0,1-4.73,0A3,3,0,0,1,239.1,97a3,3,0,0,1,1-2.23A3.24,3.24,0,0,1,242.38,93.86Z" transform="translate(-0.93 -3.23)"/><path class="cls-4" d="M273.57,119.21H267v-9.46a3.56,3.56,0,0,0-.22-1.51.87.87,0,0,0-.83-.42q-1.11,0-1.11,2v9.44h-6.57v-9.46a3.34,3.34,0,0,0-.24-1.51.88.88,0,0,0-.83-.42c-.73,0-1.09.65-1.09,2v9.44h-6.58V108.42a7,7,0,0,1,2-5,6.42,6.42,0,0,1,4.81-2.07,7,7,0,0,1,5.24,2.47,7.61,7.61,0,0,1,5.17-2.47,6.49,6.49,0,0,1,5.27,2.4,8.2,8.2,0,0,1,1.57,5.43Z" transform="translate(-0.93 -3.23)"/><path class="cls-4" d="M287.16,112.64v6.8a9.18,9.18,0,0,1-1.48.14,9,9,0,0,1-6.59-2.6,9.16,9.16,0,0,1,6.5-15.65,9,9,0,0,1,6.71,2.49,9.29,9.29,0,0,1,2.45,6.8v8.59h-6.57v-8.12a3.39,3.39,0,0,0-.68-2.21,2.24,2.24,0,0,0-1.82-.83,2.58,2.58,0,0,0-1.86,4.34,2.3,2.3,0,0,0,1.74.7A3,3,0,0,0,287.16,112.64Z" transform="translate(-0.93 -3.23)"/><path class="cls-4" d="M304.44,95.22v6.71h2.95v6.95h-2.95a4.72,4.72,0,0,0,.65,2.88,3,3,0,0,0,2.42.79v6.91l-.75,0a8.93,8.93,0,0,1-4.21-1,8.57,8.57,0,0,1-3.18-2.81,10.7,10.7,0,0,1-1.51-6V95.22Z" transform="translate(-0.93 -3.23)"/><path class="cls-4" d="M317.2,101.69v17.52h-6.58V101.69Zm-3.27-7.83a3.24,3.24,0,0,1,2.31.94,3,3,0,0,1,1,2.23,3,3,0,0,1-.92,2.25,3.3,3.3,0,0,1-2.36.88,3.34,3.34,0,0,1-2.37-.88,3.12,3.12,0,0,1,.06-4.48A3.24,3.24,0,0,1,313.93,93.86Z" transform="translate(-0.93 -3.23)"/><path class="cls-4" d="M329.38,101.32a8.69,8.69,0,0,1,6.39,2.68,9.09,9.09,0,0,1,0,12.89,9.27,9.27,0,0,1-13,0,8.73,8.73,0,0,1-2.71-6.46A8.65,8.65,0,0,1,322.7,104,9.18,9.18,0,0,1,329.38,101.32Zm-.18,6.48a2.4,2.4,0,0,0-1.79.77,2.6,2.6,0,0,0-.74,1.87,2.56,2.56,0,0,0,.75,1.86,2.44,2.44,0,0,0,3.58,0,2.71,2.71,0,0,0,0-3.73A2.41,2.41,0,0,0,329.2,107.8Z" transform="translate(-0.93 -3.23)"/><path class="cls-4" d="M356.8,119.21h-6.57v-9.89c0-1-.42-1.52-1.25-1.52s-1.23.51-1.23,1.52v9.89h-6.58v-9.77a8,8,0,0,1,2.27-5.78A7.91,7.91,0,0,1,355,104,9,9,0,0,1,356.8,110Z" transform="translate(-0.93 -3.23)"/></svg>