<svg id="Layer_1" data-name="Layer 1" xmlns="http://www.w3.org/2000/svg" xmlns:xlink="http://www.w3.org/1999/xlink" viewBox="0 0 604.74 159.84"><defs><style>.cls-1{opacity:0.6;isolation:isolate;fill:url(#linear-gradient);}.cls-2{fill:none;stroke:#d89c07;stroke-miterlimit:10;stroke-width:18.94px;}.cls-3{fill:#f7f7f7;}.cls-4{fill:#fff;}</style><linearGradient id="linear-gradient" x1="9.4" y1="-569.45" x2="595.2" y2="-569.45" gradientTransform="translate(0 654.6)" gradientUnits="userSpaceOnUse"><stop offset="0.17" stop-color="#febe2a"/><stop offset="0.99" stop-color="#e99723"/></linearGradient></defs><title>DigitalMusic</title><path class="cls-1" d="M595.2,65a50.3,50.3,0,0,0-100.6,0v.8H54.3a44.9,44.9,0,0,0,0,89.8H507.4a44.9,44.9,0,0,0,44.7-40.7A50.51,50.51,0,0,0,595.2,65Z" transform="translate(-0.93 -3.23)"/><path class="cls-2" d="M596.2,63a50.3,50.3,0,0,0-100.6,0v.8H55.3a44.9,44.9,0,0,0,0,89.8H508.4a44.9,44.9,0,0,0,44.7-40.7A50.51,50.51,0,0,0,596.2,63Z" transform="translate(-0.93 -3.23)"/><path class="cls-3" d="M521.5,59.8h-3.4a15.26,15.26,0,0,0,.1,1.8v1.8c0,.3-.6.5-1.8.5s-1.7-.1-1.7-.3V59.8c-2,.1-3.1.1-3.2.1s-.2-.1-.2-.4a10.3,10.3,0,0,1,.1-1.3V56.8c.1-.1.2-.2.3-.2h3V53c0-.1.1-.2.3-.2h2.6c.4,0,.6.1.6.2v3.6h3.4c.2,0,.2.1.2.2a11.31,11.31,0,0,1-.1,1.4,9.89,9.89,0,0,1-.1,1.5Z" transform="translate(-0.93 -3.23)"/><path class="cls-3" d="M533.9,60.3c0,3.5-2.2,5.2-6.5,5.2-.6,0-1.5-.1-2.5-.2q-2.1-.3-2.1-.6v-1a6.64,6.64,0,0,1,.1-1.3c.1-.7.2-1.1.4-1.1a.31.31,0,0,1,.2.1,6.57,6.57,0,0,0,3.2.7c1.7,0,2.6-.6,2.6-1.7a1.51,1.51,0,0,0-.9-1.4,3.42,3.42,0,0,0-1.8-.4,7.17,7.17,0,0,0-1.3.1,7.17,7.17,0,0,1-1.3.1c-.3,0-.4-.1-.4-.4,0-.8,0-1.9.1-3.4s.1-2.7.1-3.4a1.69,1.69,0,0,1,.2-.5c.1-.2.2-.3.4-.3h7.9a.27.27,0,0,1,.3.3,12.83,12.83,0,0,1-.1,1.8c-.1,1-.3,1.5-.4,1.5H532a28.48,28.48,0,0,0-3.3-.2c-.9,0-1.3,0-1.4.1a3.47,3.47,0,0,0-.2,1.3c0,.1,0,.2.1.2a3.44,3.44,0,0,0,.9-.1c.4,0,.7-.1.9-.1a5.22,5.22,0,0,1,3.6,1.2A5.39,5.39,0,0,1,533.9,60.3Z" transform="translate(-0.93 -3.23)"/><path class="cls-3" d="M549,58.1a7.69,7.69,0,0,1-2,5.2,6.56,6.56,0,0,1-5,2.3,6.41,6.41,0,0,1-5-2.3,7.76,7.76,0,0,1,0-10.4,6.78,6.78,0,0,1,10,0A7.24,7.24,0,0,1,549,58.1Zm-4.3,0A3.14,3.14,0,0,0,544,56a2.32,2.32,0,0,0-1.9-.9,2.2,2.2,0,0,0-1.9.9,3.5,3.5,0,0,0,0,4.2,2.42,2.42,0,0,0,1.9,1,2.17,2.17,0,0,0,1.9-1A3.77,3.77,0,0,0,544.7,58.1Z" transform="translate(-0.93 -3.23)"/><path class="cls-3" d="M560.9,64.9c0,.2-.1.3-.4.3a7.08,7.08,0,0,1-1.5.1,6.15,6.15,0,0,1-1.4-.1c-.1,0-.2-.1-.4-.2-.4-.5-1-1.4-1.7-2.4-.2.2-.8,1-1.9,2.4a1.38,1.38,0,0,1-.4.3,4.51,4.51,0,0,1-1.3.1c-1.2,0-1.9-.1-1.9-.4V63a.76.76,0,0,1,.2-.4c.6-.6,1.5-1.6,2.7-2.9-.5-.5-1.1-1-1.6-1.6a6.74,6.74,0,0,1-1.3-1.5V54.5c0-.2.1-.3.4-.3h2.8c.2,0,.3.1.4.3a22.17,22.17,0,0,0,1.8,2.2c.7-.9,1.3-1.6,1.7-2.2a.4.4,0,0,1,.4-.2h3c.3,0,.4.1.4.3v2.1a.76.76,0,0,1-.2.4c-.6.6-1.5,1.5-2.6,2.7.6.6,1.5,1.6,2.6,2.8a.76.76,0,0,1,.2.4Z" transform="translate(-0.93 -3.23)"/><path class="cls-3" d="M575.2,59.6a6,6,0,0,1-1.5,4.2,5.13,5.13,0,0,1-4,1.7,4.64,4.64,0,0,1-1.9-.4c-.7-.3-1-.4-.9-.4-.1,0-.2.1-.2.4a13.57,13.57,0,0,0,.1,1.8,13.57,13.57,0,0,1,.1,1.8c0,.3-.1.4-.4.4h-2.4a2.24,2.24,0,0,1-1-.1c-.2-.1-.4-.2-.4-.4v-9a20.15,20.15,0,0,0-.4-4.6v-.2c0-.1,0-.2.1-.2.3-.1.9-.2,1.7-.4s1.4-.2,1.8-.2.5.2.5.6.1.6.2.6c-.1,0,.3-.2,1-.6a4.14,4.14,0,0,1,2-.6,5.35,5.35,0,0,1,4.1,1.7C574.8,56.5,575.2,57.9,575.2,59.6Zm-4.3,0a2.27,2.27,0,0,0-.6-1.6,2,2,0,0,0-3,0,2.77,2.77,0,0,0-.5,1.6,3.1,3.1,0,0,0,.5,1.7,1.8,1.8,0,0,0,1.5.7A2.09,2.09,0,0,0,570.9,59.6Z" transform="translate(-0.93 -3.23)"/><path class="cls-4" d="M179.94,102.11v17.1h-7.13v-24h9.3q6.12,0,9.58,2.78a11,11,0,0,1,4.11,9,11.89,11.89,0,0,1-3.52,8.9,12.4,12.4,0,0,1-9.05,3.44c-.43,0-1.14,0-2.13-.07v-7h1.15q6.24,0,6.24-5.22,0-4.91-6.14-4.9Z" transform="translate(-0.93 -3.23)"/><path class="cls-4" d="M205.24,101.69v17.52h-6.57V101.69ZM202,93.86a3.24,3.24,0,0,1,2.31.94,3,3,0,0,1,1,2.23,3,3,0,0,1-.93,2.25,3.6,3.6,0,0,1-4.72,0,3,3,0,0,1-.93-2.25,3,3,0,0,1,1-2.23A3.24,3.24,0,0,1,202,93.86Z" transform="translate(-0.93 -3.23)"/><path class="cls-4" d="M218.46,112v6a7.88,7.88,0,0,1-2.73.52,7,7,0,0,1-5.38-2.4,8.42,8.42,0,0,1-2.21-5.89,8.51,8.51,0,0,1,2.65-6.35,9,9,0,0,1,6.53-2.58,9.65,9.65,0,0,1,3.93.82,7.37,7.37,0,0,1,3,2.22Q226,106.66,226,111v5.76a10.9,10.9,0,0,1-2.66,7.62,8.93,8.93,0,0,1-6.94,2.93,11.17,11.17,0,0,1-3.29-.65v-6a5.4,5.4,0,0,0,2.61.71,3.36,3.36,0,0,0,2.74-1.17,5.16,5.16,0,0,0,1-3.35v-6.59c0-1.84-.75-2.76-2.24-2.76a2.25,2.25,0,0,0-1.66.73,2.33,2.33,0,0,0-.71,1.68,2.28,2.28,0,0,0,.68,1.67,2.31,2.31,0,0,0,1.68.66A2.78,2.78,0,0,0,218.46,112Z" transform="translate(-0.93 -3.23)"/><path class="cls-4" d="M236.44,101.69v17.52h-6.57V101.69Zm-3.27-7.83a3.24,3.24,0,0,1,2.31.94,3.12,3.12,0,0,1,.06,4.48,3.34,3.34,0,0,1-2.37.88,3.3,3.3,0,0,1-2.36-.88,3,3,0,0,1-.93-2.25,3,3,0,0,1,1-2.23A3.24,3.24,0,0,1,233.17,93.86Z" transform="translate(-0.93 -3.23)"/><path class="cls-4" d="M246.16,95.22v6.71h3v6.95h-3a4.65,4.65,0,0,0,.66,2.88,3,3,0,0,0,2.42.79v6.91l-.76,0a9,9,0,0,1-4.21-1,8.54,8.54,0,0,1-3.17-2.81,10.7,10.7,0,0,1-1.51-6V95.22Z" transform="translate(-0.93 -3.23)"/><path class="cls-4" d="M262.09,112.64v6.8A9.31,9.31,0,0,1,254,117a9.17,9.17,0,0,1,6.5-15.65,9,9,0,0,1,6.71,2.49,9.29,9.29,0,0,1,2.45,6.8v8.59h-6.57v-8.12a3.39,3.39,0,0,0-.68-2.21,2.24,2.24,0,0,0-1.82-.83,2.58,2.58,0,0,0-1.86,4.34,2.3,2.3,0,0,0,1.74.7A3,3,0,0,0,262.09,112.64Z" transform="translate(-0.93 -3.23)"/><path class="cls-4" d="M280.09,95.22v24h-6.58v-24Z" transform="translate(-0.93 -3.23)"/><path class="cls-4" d="M292.94,119.21V101.92a7.29,7.29,0,0,1,1.95-5.26,6.69,6.69,0,0,1,5.06-2A6.26,6.26,0,0,1,305.63,98a7.87,7.87,0,0,1,2.6-2.61,6.93,6.93,0,0,1,3.43-.78,6.14,6.14,0,0,1,5,2,8.91,8.91,0,0,1,1.72,5.87v16.68H311.2V103.6a4.27,4.27,0,0,0-.18-1.54.76.76,0,0,0-.75-.37c-.7,0-1.06.59-1.06,1.79v15.73h-7.13V103.6a3.92,3.92,0,0,0-.2-1.53.76.76,0,0,0-.75-.38c-.7,0-1.06.64-1.06,1.91v15.61Z" transform="translate(-0.93 -3.23)"/><path class="cls-4" d="M322.17,101.93h6.57v9.9c0,1,.42,1.49,1.25,1.49s1.23-.49,1.23-1.49v-9.9h6.58v9.78a8,8,0,0,1-2.27,5.75,7.88,7.88,0,0,1-11.58-.38,8.88,8.88,0,0,1-1.78-5.9Z" transform="translate(-0.93 -3.23)"/><path class="cls-4" d="M352.62,101.93v6.93a2.66,2.66,0,0,0-1.91.52,3.34,3.34,0,0,0-.66,2q-.46,5.08-3.94,7.18a10.46,10.46,0,0,1-5.24,1.09H340v-7h.3a3.18,3.18,0,0,0,2.26-.66,3.51,3.51,0,0,0,.78-2.32,16,16,0,0,1,.5-3.77,5.5,5.5,0,0,1,1.47-2.17,7.37,7.37,0,0,1,5.36-1.88Z" transform="translate(-0.93 -3.23)"/><path class="cls-4" d="M361.33,101.69v17.52h-6.57V101.69Zm-3.27-7.83a3.25,3.25,0,0,1,2.32.94,3.13,3.13,0,0,1,.05,4.48,3.62,3.62,0,0,1-4.73,0,3,3,0,0,1-.92-2.25,3,3,0,0,1,1-2.23A3.24,3.24,0,0,1,358.06,93.86Z" transform="translate(-0.93 -3.23)"/><path class="cls-4" d="M376,111.14l6.52-.24a9.28,9.28,0,0,1-2.83,6.24,8.63,8.63,0,0,1-6.2,2.44,8.83,8.83,0,0,1-6.53-2.69,9,9,0,0,1-2.67-6.59,8.6,8.6,0,0,1,2.69-6.35,9.19,9.19,0,0,1,12.25-.56,8.79,8.79,0,0,1,3.13,5.29l-6.66.25a2.64,2.64,0,0,0-2.18-1.13,2.5,2.5,0,0,0-1.85.74,2.57,2.57,0,0,0-.72,1.87,2.6,2.6,0,0,0,.77,1.91,2.55,2.55,0,0,0,1.91.77A2.48,2.48,0,0,0,376,111.14Z" transform="translate(-0.93 -3.23)"/></svg>