<svg id="Layer_1" data-name="Layer 1" xmlns="http://www.w3.org/2000/svg" xmlns:xlink="http://www.w3.org/1999/xlink" viewBox="0 0 604.74 159.84"><defs><style>.cls-1{opacity:0.6;isolation:isolate;fill:url(#linear-gradient);}.cls-2{fill:none;stroke:#d89c07;stroke-miterlimit:10;stroke-width:18.94px;}.cls-3{fill:#f7f7f7;}.cls-4{fill:#fff;}</style><linearGradient id="linear-gradient" x1="9.4" y1="-569.45" x2="595.2" y2="-569.45" gradientTransform="translate(0 654.6)" gradientUnits="userSpaceOnUse"><stop offset="0.17" stop-color="#febe2a"/><stop offset="0.99" stop-color="#e99723"/></linearGradient></defs><title>DigitalIntro</title><path class="cls-1" d="M595.2,65a50.3,50.3,0,0,0-100.6,0v.8H54.3a44.9,44.9,0,0,0,0,89.8H507.4a44.9,44.9,0,0,0,44.7-40.7A50.51,50.51,0,0,0,595.2,65Z" transform="translate(-0.93 -3.23)"/><path class="cls-2" d="M596.2,63a50.3,50.3,0,0,0-100.6,0v.8H55.3a44.9,44.9,0,0,0,0,89.8H508.4a44.9,44.9,0,0,0,44.7-40.7A50.51,50.51,0,0,0,596.2,63Z" transform="translate(-0.93 -3.23)"/><path class="cls-3" d="M521.5,59.8h-3.4a15.26,15.26,0,0,0,.1,1.8v1.8c0,.3-.6.5-1.8.5s-1.7-.1-1.7-.3V59.8c-2,.1-3.1.1-3.2.1s-.2-.1-.2-.4a10.3,10.3,0,0,1,.1-1.3V56.8c.1-.1.2-.2.3-.2h3V53c0-.1.1-.2.3-.2h2.6c.4,0,.6.1.6.2v3.6h3.4c.2,0,.2.1.2.2a11.31,11.31,0,0,1-.1,1.4,9.89,9.89,0,0,1-.1,1.5Z" transform="translate(-0.93 -3.23)"/><path class="cls-3" d="M533.9,60.3c0,3.5-2.2,5.2-6.5,5.2-.6,0-1.5-.1-2.5-.2q-2.1-.3-2.1-.6v-1a6.64,6.64,0,0,1,.1-1.3c.1-.7.2-1.1.4-1.1a.31.31,0,0,1,.2.1,6.57,6.57,0,0,0,3.2.7c1.7,0,2.6-.6,2.6-1.7a1.51,1.51,0,0,0-.9-1.4,3.42,3.42,0,0,0-1.8-.4,7.17,7.17,0,0,0-1.3.1,7.17,7.17,0,0,1-1.3.1c-.3,0-.4-.1-.4-.4,0-.8,0-1.9.1-3.4s.1-2.7.1-3.4a1.69,1.69,0,0,1,.2-.5c.1-.2.2-.3.4-.3h7.9a.27.27,0,0,1,.3.3,12.83,12.83,0,0,1-.1,1.8c-.1,1-.3,1.5-.4,1.5H532a28.48,28.48,0,0,0-3.3-.2c-.9,0-1.3,0-1.4.1a3.47,3.47,0,0,0-.2,1.3c0,.1,0,.2.1.2a3.44,3.44,0,0,0,.9-.1c.4,0,.7-.1.9-.1a5.22,5.22,0,0,1,3.6,1.2A5.39,5.39,0,0,1,533.9,60.3Z" transform="translate(-0.93 -3.23)"/><path class="cls-3" d="M549,58.1a7.69,7.69,0,0,1-2,5.2,6.56,6.56,0,0,1-5,2.3,6.41,6.41,0,0,1-5-2.3,7.76,7.76,0,0,1,0-10.4,6.78,6.78,0,0,1,10,0A7.24,7.24,0,0,1,549,58.1Zm-4.3,0A3.14,3.14,0,0,0,544,56a2.32,2.32,0,0,0-1.9-.9,2.2,2.2,0,0,0-1.9.9,3.5,3.5,0,0,0,0,4.2,2.42,2.42,0,0,0,1.9,1,2.17,2.17,0,0,0,1.9-1A3.77,3.77,0,0,0,544.7,58.1Z" transform="translate(-0.93 -3.23)"/><path class="cls-3" d="M560.9,64.9c0,.2-.1.3-.4.3a7.08,7.08,0,0,1-1.5.1,6.15,6.15,0,0,1-1.4-.1c-.1,0-.2-.1-.4-.2-.4-.5-1-1.4-1.7-2.4-.2.2-.8,1-1.9,2.4a1.38,1.38,0,0,1-.4.3,4.51,4.51,0,0,1-1.3.1c-1.2,0-1.9-.1-1.9-.4V63a.76.76,0,0,1,.2-.4c.6-.6,1.5-1.6,2.7-2.9-.5-.5-1.1-1-1.6-1.6a6.74,6.74,0,0,1-1.3-1.5V54.5c0-.2.1-.3.4-.3h2.8c.2,0,.3.1.4.3a22.17,22.17,0,0,0,1.8,2.2c.7-.9,1.3-1.6,1.7-2.2a.4.4,0,0,1,.4-.2h3c.3,0,.4.1.4.3v2.1a.76.76,0,0,1-.2.4c-.6.6-1.5,1.5-2.6,2.7.6.6,1.5,1.6,2.6,2.8a.76.76,0,0,1,.2.4Z" transform="translate(-0.93 -3.23)"/><path class="cls-3" d="M575.2,59.6a6,6,0,0,1-1.5,4.2,5.13,5.13,0,0,1-4,1.7,4.64,4.64,0,0,1-1.9-.4c-.7-.3-1-.4-.9-.4-.1,0-.2.1-.2.4a13.57,13.57,0,0,0,.1,1.8,13.57,13.57,0,0,1,.1,1.8c0,.3-.1.4-.4.4h-2.4a2.24,2.24,0,0,1-1-.1c-.2-.1-.4-.2-.4-.4v-9a20.15,20.15,0,0,0-.4-4.6v-.2c0-.1,0-.2.1-.2.3-.1.9-.2,1.7-.4s1.4-.2,1.8-.2.5.2.5.6.1.6.2.6c-.1,0,.3-.2,1-.6a4.14,4.14,0,0,1,2-.6,5.35,5.35,0,0,1,4.1,1.7C574.8,56.5,575.2,57.9,575.2,59.6Zm-4.3,0a2.27,2.27,0,0,0-.6-1.6,2,2,0,0,0-3,0,2.77,2.77,0,0,0-.5,1.6,3.1,3.1,0,0,0,.5,1.7,1.8,1.8,0,0,0,1.5.7A2.09,2.09,0,0,0,570.9,59.6Z" transform="translate(-0.93 -3.23)"/><path class="cls-4" d="M43.35,95.21v20H37.41v-20Z" transform="translate(-0.93 -3.23)"/><path class="cls-4" d="M60,115.21H54.49V107c0-.84-.35-1.26-1-1.26s-1,.42-1,1.26v8.25H46.94v-8.14a6.68,6.68,0,0,1,1.89-4.82,6.59,6.59,0,0,1,9.66.32A7.51,7.51,0,0,1,60,107.5Z" transform="translate(-0.93 -3.23)"/><path class="cls-4" d="M68,95.21v5.6H70.5v5.79H68a3.84,3.84,0,0,0,.55,2.4,2.5,2.5,0,0,0,2,.66v5.76H70a7.53,7.53,0,0,1-3.51-.86,7.07,7.07,0,0,1-2.64-2.35,8.9,8.9,0,0,1-1.26-5v-12Z" transform="translate(-0.93 -3.23)"/><path class="cls-4" d="M81.21,100.46v5.86a2.13,2.13,0,0,0-1-.32q-1.5,0-1.5,2.28v6.93H73.19v-8a7.18,7.18,0,0,1,1.73-5,5.94,5.94,0,0,1,4.62-1.88A10.93,10.93,0,0,1,81.21,100.46Z" transform="translate(-0.93 -3.23)"/><path class="cls-4" d="M89.75,100.3a7.22,7.22,0,0,1,5.32,2.23,7.58,7.58,0,0,1,0,10.75,7.74,7.74,0,0,1-10.86,0,7.56,7.56,0,0,1,0-10.78A7.68,7.68,0,0,1,89.75,100.3Zm-.15,5.4a2,2,0,0,0-1.5.64,2.27,2.27,0,0,0,0,3.11,2,2,0,0,0,3,0,2.12,2.12,0,0,0,.62-1.55,2.16,2.16,0,0,0-.61-1.56A2,2,0,0,0,89.6,105.7Z" transform="translate(-0.93 -3.23)"/><path class="cls-4" d="M108.57,95.21h5.48v12.18a8.25,8.25,0,0,1-1.76,5.46,7.19,7.19,0,0,1-2.57,1.94,7.71,7.71,0,0,1-3.2.71,7.57,7.57,0,0,1-5.51-2.19,7.57,7.57,0,0,1,0-10.74,7.13,7.13,0,0,1,5.27-2.26c.32,0,.81,0,1.46.09v6a2.12,2.12,0,0,0-1.34-.53,2,2,0,0,0-1.46.62,2.07,2.07,0,0,0-.61,1.5,2,2,0,0,0,.63,1.46,2.12,2.12,0,0,0,1.51.61c1.41,0,2.11-1,2.11-2.92Z" transform="translate(-0.93 -3.23)"/><path class="cls-4" d="M116.93,100.81h5.48v8.25c0,.83.35,1.24,1,1.24s1-.41,1-1.24v-8.25H130V109a6.62,6.62,0,0,1-1.89,4.79,6.18,6.18,0,0,1-4.63,2,6.26,6.26,0,0,1-5-2.27,7.48,7.48,0,0,1-1.48-4.92Z" transform="translate(-0.93 -3.23)"/><path class="cls-4" d="M142.11,108.49l5.44-.21a7.73,7.73,0,0,1-2.36,5.2,7.19,7.19,0,0,1-5.17,2,7.37,7.37,0,0,1-5.44-2.24,7.53,7.53,0,0,1-2.22-5.5,7.09,7.09,0,0,1,2.24-5.28,7.59,7.59,0,0,1,12.82,3.94l-5.56.2a2.19,2.19,0,0,0-1.81-.94,2.06,2.06,0,0,0-1.54.62,2.13,2.13,0,0,0-.6,1.55,2.16,2.16,0,0,0,.64,1.6,2.13,2.13,0,0,0,1.59.64A2.06,2.06,0,0,0,142.11,108.49Z" transform="translate(-0.93 -3.23)"/><path class="cls-4" d="M154.81,95.21v5.6h2.46v5.79h-2.46a3.91,3.91,0,0,0,.55,2.4,2.54,2.54,0,0,0,2,.66v5.76h-.63a7.53,7.53,0,0,1-3.51-.86,7.07,7.07,0,0,1-2.64-2.35,8.9,8.9,0,0,1-1.26-5v-12Z" transform="translate(-0.93 -3.23)"/><path class="cls-4" d="M165.45,100.61v14.6H160v-14.6Zm-2.73-6.52a2.68,2.68,0,0,1,1.93.78,2.49,2.49,0,0,1,.81,1.85,2.45,2.45,0,0,1-.77,1.88,3,3,0,0,1-3.94,0,2.59,2.59,0,0,1,.05-3.73A2.67,2.67,0,0,1,162.72,94.09Z" transform="translate(-0.93 -3.23)"/><path class="cls-4" d="M175.6,100.3a7.21,7.21,0,0,1,5.32,2.23,7.59,7.59,0,0,1,0,10.75,7.75,7.75,0,0,1-10.87,0,7.58,7.58,0,0,1,0-10.78A7.7,7.7,0,0,1,175.6,100.3Zm-.15,5.4a2,2,0,0,0-1.49.64,2.17,2.17,0,0,0-.62,1.56,2.13,2.13,0,0,0,.63,1.55,2,2,0,0,0,1.48.65,2,2,0,0,0,1.51-.65,2.26,2.26,0,0,0,0-3.11A2,2,0,0,0,175.45,105.7Z" transform="translate(-0.93 -3.23)"/><path class="cls-4" d="M198.45,115.21H193V107c0-.84-.34-1.26-1-1.26s-1,.42-1,1.26v8.25h-5.48v-8.14a6.68,6.68,0,0,1,1.89-4.82,6.58,6.58,0,0,1,9.65.32,7.46,7.46,0,0,1,1.48,4.93Z" transform="translate(-0.93 -3.23)"/><path class="cls-4" d="M214,95.21v5.6h2.46v5.79H214a3.91,3.91,0,0,0,.55,2.4,2.54,2.54,0,0,0,2,.66v5.76H216a7.53,7.53,0,0,1-3.51-.86,7.17,7.17,0,0,1-2.65-2.35,8.9,8.9,0,0,1-1.26-5v-12Z" transform="translate(-0.93 -3.23)"/><path class="cls-4" d="M226.11,100.3a7.22,7.22,0,0,1,5.32,2.23,7.58,7.58,0,0,1,0,10.75,7.74,7.74,0,0,1-10.86,0,7.58,7.58,0,0,1,0-10.78A7.7,7.7,0,0,1,226.11,100.3Zm-.15,5.4a2,2,0,0,0-1.49.64,2.26,2.26,0,0,0,0,3.11,2,2,0,0,0,1.49.65,2,2,0,0,0,1.5-.65,2.13,2.13,0,0,0,.63-1.55,2.17,2.17,0,0,0-.62-1.56A2,2,0,0,0,226,105.7Z" transform="translate(-0.93 -3.23)"/><path class="cls-4" d="M249.79,101v14.25h-5.94v-20h7.75c3.39,0,6.06.78,8,2.32A9.17,9.17,0,0,1,263,105a10,10,0,0,1-2.93,7.42,10.36,10.36,0,0,1-7.55,2.87q-.54,0-1.77-.06v-5.88h1q5.21,0,5.2-4.35,0-4.08-5.11-4.08Z" transform="translate(-0.93 -3.23)"/><path class="cls-4" d="M270.87,100.61v14.6H265.4v-14.6Zm-2.72-6.52a2.71,2.71,0,0,1,1.93.78,2.6,2.6,0,0,1,0,3.73,3,3,0,0,1-3.94,0,2.6,2.6,0,0,1,0-3.73A2.7,2.7,0,0,1,268.15,94.09Z" transform="translate(-0.93 -3.23)"/><path class="cls-4" d="M281.89,109.19v5a6.38,6.38,0,0,1-2.27.44,5.87,5.87,0,0,1-4.49-2,7,7,0,0,1-1.84-4.91,7.12,7.12,0,0,1,2.21-5.29,7.53,7.53,0,0,1,5.44-2.15,8.08,8.08,0,0,1,3.28.69,6.23,6.23,0,0,1,2.46,1.84,8.91,8.91,0,0,1,1.49,5.57v4.8a9.05,9.05,0,0,1-2.22,6.35,7.42,7.42,0,0,1-5.77,2.44,9.16,9.16,0,0,1-2.74-.54v-5a4.45,4.45,0,0,0,2.16.59,2.81,2.81,0,0,0,2.29-1,4.26,4.26,0,0,0,.8-2.79V107.8c0-1.54-.62-2.3-1.86-2.3a1.87,1.87,0,0,0-1.38.61,1.91,1.91,0,0,0-.59,1.39,1.87,1.87,0,0,0,.56,1.4,1.92,1.92,0,0,0,1.4.55A2.25,2.25,0,0,0,281.89,109.19Z" transform="translate(-0.93 -3.23)"/><path class="cls-4" d="M296.87,100.61v14.6H291.4v-14.6Zm-2.72-6.52a2.71,2.71,0,0,1,1.93.78,2.6,2.6,0,0,1,0,3.73,3,3,0,0,1-3.94,0,2.6,2.6,0,0,1,0-3.73A2.71,2.71,0,0,1,294.15,94.09Z" transform="translate(-0.93 -3.23)"/><path class="cls-4" d="M305,95.21v5.6h2.46v5.79H305a3.92,3.92,0,0,0,.54,2.4,2.54,2.54,0,0,0,2,.66v5.76h-.63a7.53,7.53,0,0,1-3.51-.86,7.07,7.07,0,0,1-2.64-2.35,8.9,8.9,0,0,1-1.26-5v-12Z" transform="translate(-0.93 -3.23)"/><path class="cls-4" d="M318.25,109.73v5.67a7.08,7.08,0,0,1-1.23.12,7.55,7.55,0,0,1-5.5-2.17,7.63,7.63,0,0,1,5.42-13,7.49,7.49,0,0,1,5.59,2.07,7.75,7.75,0,0,1,2.05,5.67v7.16H319.1v-6.77a2.79,2.79,0,0,0-.57-1.84,1.84,1.84,0,0,0-1.51-.69,2.16,2.16,0,0,0-1.56,3.62,1.94,1.94,0,0,0,1.45.58A2.45,2.45,0,0,0,318.25,109.73Z" transform="translate(-0.93 -3.23)"/><path class="cls-4" d="M333.25,95.21v20h-5.48v-20Z" transform="translate(-0.93 -3.23)"/><path class="cls-4" d="M355,103v4.46h-3.88a2,2,0,0,0-1.12.23.91.91,0,0,0-.33.79.89.89,0,0,0,.33.83,3.19,3.19,0,0,0,1.38.2h4v5.71h-4.67a7.27,7.27,0,0,1-5-1.58,5.81,5.81,0,0,1-1.74-4.54v-7.84a5.86,5.86,0,0,1,1.64-4.45,6.42,6.42,0,0,1,4.64-1.59h5.17V101h-3.79c-1,0-1.54.33-1.54,1a.91.91,0,0,0,.36.82,2.72,2.72,0,0,0,1.31.22Z" transform="translate(-0.93 -3.23)"/><path class="cls-4" d="M371.44,115.21H366V107c0-.84-.35-1.26-1-1.26s-1,.42-1,1.26v8.25h-5.48v-8.14a6.68,6.68,0,0,1,1.89-4.82,6.59,6.59,0,0,1,9.66.32,7.51,7.51,0,0,1,1.48,4.93Z" transform="translate(-0.93 -3.23)"/><path class="cls-4" d="M379.51,95.21v5.6H382v5.79h-2.46a3.84,3.84,0,0,0,.55,2.4,2.5,2.5,0,0,0,2,.66v5.76h-.63a7.53,7.53,0,0,1-3.51-.86,7.07,7.07,0,0,1-2.64-2.35,8.9,8.9,0,0,1-1.26-5v-12Z" transform="translate(-0.93 -3.23)"/><path class="cls-4" d="M399,108.79h-8.31a4.24,4.24,0,0,1-.19-1.15,4,4,0,0,1,.27-1.44h2.78a1.73,1.73,0,0,0-1.83-1.62,2,2,0,0,0-1.67.87,3.64,3.64,0,0,0-.65,2.23,3.86,3.86,0,0,0,.63,2.3,1.9,1.9,0,0,0,1.63.88,2.16,2.16,0,0,0,1.58-.82l3.12,3.75a7.66,7.66,0,0,1-4.85,1.71,7.45,7.45,0,0,1-5.46-2.18,7.7,7.7,0,0,1,0-10.82,7.49,7.49,0,0,1,5.49-2.22,7.38,7.38,0,0,1,7.5,7.49C399.08,108,399.06,108.33,399,108.79Z" transform="translate(-0.93 -3.23)"/><path class="cls-4" d="M409.3,100.46v5.86a2.1,2.1,0,0,0-1-.32c-1,0-1.49.76-1.49,2.28v6.93h-5.48v-8a7.18,7.18,0,0,1,1.73-5,5.94,5.94,0,0,1,4.61-1.88A10.82,10.82,0,0,1,409.3,100.46Z" transform="translate(-0.93 -3.23)"/><path class="cls-4" d="M415.79,95.21v5.6h2.46v5.79h-2.46a3.84,3.84,0,0,0,.55,2.4,2.53,2.53,0,0,0,2,.66v5.76h-.63a7.46,7.46,0,0,1-3.5-.86,7.17,7.17,0,0,1-2.65-2.35,8.9,8.9,0,0,1-1.26-5v-12Z" transform="translate(-0.93 -3.23)"/><path class="cls-4" d="M429.06,109.73v5.67a7.08,7.08,0,0,1-1.23.12,7.51,7.51,0,0,1-5.49-2.17,7.63,7.63,0,0,1,5.42-13,7.5,7.5,0,0,1,5.59,2.07,7.74,7.74,0,0,1,2,5.67v7.16h-5.48v-6.77a2.84,2.84,0,0,0-.56-1.84,1.86,1.86,0,0,0-1.52-.69,2.16,2.16,0,0,0-1.55,3.62,1.93,1.93,0,0,0,1.45.58A2.42,2.42,0,0,0,429.06,109.73Z" transform="translate(-0.93 -3.23)"/><path class="cls-4" d="M444.06,100.61v14.6h-5.48v-14.6Zm-2.72-6.52a2.67,2.67,0,0,1,1.92.78,2.46,2.46,0,0,1,.82,1.85,2.49,2.49,0,0,1-.77,1.88,3,3,0,0,1-3.94,0,2.45,2.45,0,0,1-.77-1.88,2.49,2.49,0,0,1,.81-1.85A2.7,2.7,0,0,1,441.34,94.09Z" transform="translate(-0.93 -3.23)"/><path class="cls-4" d="M460.31,115.21h-5.48V107c0-.84-.35-1.26-1-1.26s-1,.42-1,1.26v8.25h-5.47v-8.14a6.71,6.71,0,0,1,1.88-4.82,6.59,6.59,0,0,1,9.66.32,7.51,7.51,0,0,1,1.48,4.93Z" transform="translate(-0.93 -3.23)"/><path class="cls-4" d="M483.54,115.21h-5.48v-7.88a2.83,2.83,0,0,0-.19-1.26.71.71,0,0,0-.69-.35c-.61,0-.92.54-.92,1.62v7.87h-5.48v-7.88a2.8,2.8,0,0,0-.2-1.26.71.71,0,0,0-.69-.35c-.61,0-.91.54-.91,1.62v7.87H463.5v-9a5.81,5.81,0,0,1,1.66-4.19,5.38,5.38,0,0,1,4-1.72,5.91,5.91,0,0,1,4.37,2,6.34,6.34,0,0,1,4.3-2,5.46,5.46,0,0,1,4.4,2,6.89,6.89,0,0,1,1.3,4.53Z" transform="translate(-0.93 -3.23)"/><path class="cls-4" d="M501.1,108.79h-8.3a3.88,3.88,0,0,1-.19-1.15,4.21,4.21,0,0,1,.26-1.44h2.78a1.71,1.71,0,0,0-1.83-1.62,2,2,0,0,0-1.67.87,3.64,3.64,0,0,0-.64,2.23,3.93,3.93,0,0,0,.62,2.3,1.91,1.91,0,0,0,1.63.88,2.18,2.18,0,0,0,1.59-.82l3.12,3.75a7.68,7.68,0,0,1-4.85,1.71,7.47,7.47,0,0,1-5.47-2.18,7.69,7.69,0,0,1,0-10.82,7.47,7.47,0,0,1,5.48-2.22,7.38,7.38,0,0,1,7.5,7.49C501.16,108,501.14,108.33,501.1,108.79Z" transform="translate(-0.93 -3.23)"/><path class="cls-4" d="M516.4,115.21h-5.48V107c0-.84-.35-1.26-1-1.26s-1,.42-1,1.26v8.25h-5.48v-8.14a6.68,6.68,0,0,1,1.89-4.82,6.59,6.59,0,0,1,9.66.32,7.51,7.51,0,0,1,1.48,4.93Z" transform="translate(-0.93 -3.23)"/><path class="cls-4" d="M524.47,95.21v5.6h2.46v5.79h-2.46A3.84,3.84,0,0,0,525,109a2.5,2.5,0,0,0,2,.66v5.76h-.63a7.53,7.53,0,0,1-3.51-.86,7.07,7.07,0,0,1-2.64-2.35,8.9,8.9,0,0,1-1.26-5v-12Z" transform="translate(-0.93 -3.23)"/></svg>