<svg id="Layer_1" data-name="Layer 1" xmlns="http://www.w3.org/2000/svg" xmlns:xlink="http://www.w3.org/1999/xlink" viewBox="0 0 604.74 159.84"><defs><style>.cls-1{opacity:0.6;isolation:isolate;fill:url(#linear-gradient);}.cls-2{fill:none;stroke:#f44242;stroke-miterlimit:10;stroke-width:18.94px;}.cls-3{fill:#f7f7f7;}.cls-4{fill:#fff;}</style><linearGradient id="linear-gradient" x1="12.4" y1="-571.45" x2="598.2" y2="-571.45" gradientTransform="translate(0 654.6)" gradientUnits="userSpaceOnUse"><stop offset="0.04" stop-color="#ef4725"/><stop offset="0.99" stop-color="#a91e22"/></linearGradient></defs><title>EssentialTools</title><path class="cls-1" d="M598.2,63a50.3,50.3,0,0,0-100.6,0v.8H57.3a44.9,44.9,0,0,0,0,89.8H510.4a44.9,44.9,0,0,0,44.7-40.7A50.51,50.51,0,0,0,598.2,63Z" transform="translate(-3.93 -1.23)"/><path class="cls-2" d="M599.2,61a50.3,50.3,0,0,0-100.6,0v.8H58.3a44.9,44.9,0,0,0,0,89.8H511.4a44.9,44.9,0,0,0,44.7-40.7A50.51,50.51,0,0,0,599.2,61Z" transform="translate(-3.93 -1.23)"/><path class="cls-3" d="M524.5,57.8h-3.4a15.26,15.26,0,0,0,.1,1.8v1.8c0,.3-.6.5-1.8.5s-1.7-.1-1.7-.3V57.8c-2,.1-3.1.1-3.2.1s-.2-.1-.2-.4a10.3,10.3,0,0,1,.1-1.3V54.8c.1-.1.2-.2.3-.2h3V51c0-.1.1-.2.3-.2h2.6c.4,0,.6.1.6.2v3.6h3.4c.2,0,.2.1.2.2a11.31,11.31,0,0,1-.1,1.4,9.89,9.89,0,0,1-.1,1.5Z" transform="translate(-3.93 -1.23)"/><path class="cls-3" d="M536.9,58.3c0,3.5-2.2,5.2-6.5,5.2-.6,0-1.5-.1-2.5-.2q-2.1-.3-2.1-.6v-1a6.64,6.64,0,0,1,.1-1.3c.1-.7.2-1.1.4-1.1a.31.31,0,0,1,.2.1,6.57,6.57,0,0,0,3.2.7c1.7,0,2.6-.6,2.6-1.7a1.51,1.51,0,0,0-.9-1.4,3.42,3.42,0,0,0-1.8-.4,7.17,7.17,0,0,0-1.3.1,7.17,7.17,0,0,1-1.3.1c-.3,0-.4-.1-.4-.4,0-.8,0-1.9.1-3.4s.1-2.7.1-3.4a1.69,1.69,0,0,1,.2-.5c.1-.2.2-.3.4-.3h7.9a.27.27,0,0,1,.3.3,12.83,12.83,0,0,1-.1,1.8c-.1,1-.3,1.5-.4,1.5H535a28.48,28.48,0,0,0-3.3-.2c-.9,0-1.3,0-1.4.1a3.47,3.47,0,0,0-.2,1.3c0,.1,0,.2.1.2a3.44,3.44,0,0,0,.9-.1c.4,0,.7-.1.9-.1a5.22,5.22,0,0,1,3.6,1.2A5.39,5.39,0,0,1,536.9,58.3Z" transform="translate(-3.93 -1.23)"/><path class="cls-3" d="M552,56.1a7.69,7.69,0,0,1-2,5.2,6.56,6.56,0,0,1-5,2.3,6.41,6.41,0,0,1-5-2.3,7.76,7.76,0,0,1,0-10.4,6.78,6.78,0,0,1,10,0A7.24,7.24,0,0,1,552,56.1Zm-4.3,0A3.14,3.14,0,0,0,547,54a2.32,2.32,0,0,0-1.9-.9,2.2,2.2,0,0,0-1.9.9,3.5,3.5,0,0,0,0,4.2,2.42,2.42,0,0,0,1.9,1,2.17,2.17,0,0,0,1.9-1A3.77,3.77,0,0,0,547.7,56.1Z" transform="translate(-3.93 -1.23)"/><path class="cls-3" d="M563.9,62.9c0,.2-.1.3-.4.3a7.08,7.08,0,0,1-1.5.1,6.15,6.15,0,0,1-1.4-.1c-.1,0-.2-.1-.4-.2-.4-.5-1-1.4-1.7-2.4-.2.2-.8,1-1.9,2.4a1.38,1.38,0,0,1-.4.3,4.51,4.51,0,0,1-1.3.1c-1.2,0-1.9-.1-1.9-.4V61a.76.76,0,0,1,.2-.4c.6-.6,1.5-1.6,2.7-2.9-.5-.5-1.1-1-1.6-1.6a6.74,6.74,0,0,1-1.3-1.5V52.5c0-.2.1-.3.4-.3h2.8c.2,0,.3.1.4.3a22.17,22.17,0,0,0,1.8,2.2c.7-.9,1.3-1.6,1.7-2.2a.4.4,0,0,1,.4-.2h3c.3,0,.4.1.4.3v2.1a.76.76,0,0,1-.2.4c-.6.6-1.5,1.5-2.6,2.7.6.6,1.5,1.6,2.6,2.8a.76.76,0,0,1,.2.4Z" transform="translate(-3.93 -1.23)"/><path class="cls-3" d="M578.2,57.6a6,6,0,0,1-1.5,4.2,5.13,5.13,0,0,1-4,1.7,4.64,4.64,0,0,1-1.9-.4c-.7-.3-1-.4-.9-.4-.1,0-.2.1-.2.4a13.57,13.57,0,0,0,.1,1.8,13.57,13.57,0,0,1,.1,1.8c0,.3-.1.4-.4.4h-2.4a2.24,2.24,0,0,1-1-.1c-.2-.1-.4-.2-.4-.4v-9a20.15,20.15,0,0,0-.4-4.6v-.2c0-.1,0-.2.1-.2.3-.1.9-.2,1.7-.4s1.4-.2,1.8-.2.5.2.5.6.1.6.2.6c-.1,0,.3-.2,1-.6a4.14,4.14,0,0,1,2-.6,5.35,5.35,0,0,1,4.1,1.7C577.8,54.5,578.2,55.9,578.2,57.6Zm-4.3,0a2.27,2.27,0,0,0-.6-1.6,2,2,0,0,0-3,0,2.77,2.77,0,0,0-.5,1.6,3.1,3.1,0,0,0,.5,1.7,1.8,1.8,0,0,0,1.5.7A2.09,2.09,0,0,0,573.9,57.6Z" transform="translate(-3.93 -1.23)"/><path class="cls-4" d="M200.08,92.82a11.86,11.86,0,0,1,8.75,3.71,12.61,12.61,0,1,1-21.56,8.88A12.05,12.05,0,0,1,191,96.48,12.49,12.49,0,0,1,200.08,92.82Zm-.21,7.07a5,5,0,0,0-3.74,1.61,5.69,5.69,0,0,0,0,7.81,5.15,5.15,0,0,0,7.49,0,5.73,5.73,0,0,0,0-7.82A5,5,0,0,0,199.87,99.89Z" transform="translate(-3.93 -1.23)"/><path class="cls-4" d="M231,117.41h-6.58v-9.89c0-1-.41-1.52-1.25-1.52s-1.23.51-1.23,1.52v9.89h-6.57v-9.77a8,8,0,0,1,2.27-5.78,7.9,7.9,0,0,1,11.58.38,9,9,0,0,1,1.78,5.93Z" transform="translate(-3.93 -1.23)"/><path class="cls-4" d="M241.37,93.42v24H234.8v-24Z" transform="translate(-3.93 -1.23)"/><path class="cls-4" d="M251.8,99.89v17.52h-6.58V99.89Zm-3.27-7.83a3.24,3.24,0,0,1,2.31.94,3,3,0,0,1,1,2.23,3,3,0,0,1-.92,2.25,3.3,3.3,0,0,1-2.36.88,3.34,3.34,0,0,1-2.37-.88,3.13,3.13,0,0,1,.05-4.48A3.28,3.28,0,0,1,248.53,92.06Z" transform="translate(-3.93 -1.23)"/><path class="cls-4" d="M271.29,117.41h-6.57v-9.89c0-1-.42-1.52-1.25-1.52s-1.23.51-1.23,1.52v9.89h-6.58v-9.77a8,8,0,0,1,2.27-5.78,7.9,7.9,0,0,1,11.58.38,9,9,0,0,1,1.78,5.93Z" transform="translate(-3.93 -1.23)"/><path class="cls-4" d="M292.35,109.71h-10a4.56,4.56,0,0,1,.09-3.11h3.34a2.07,2.07,0,0,0-2.2-1.95,2.37,2.37,0,0,0-2,1,4.35,4.35,0,0,0-.78,2.68,4.69,4.69,0,0,0,.75,2.76,2.3,2.3,0,0,0,2,1,2.63,2.63,0,0,0,1.9-1l3.74,4.5a9.17,9.17,0,0,1-5.81,2.05,9,9,0,0,1-6.56-2.62,9.25,9.25,0,0,1,0-13,9,9,0,0,1,6.58-2.65,8.85,8.85,0,0,1,9,9C292.42,108.74,292.4,109.15,292.35,109.71Z" transform="translate(-3.93 -1.23)"/><path class="cls-4" d="M315,100.31v17.1h-7.14v-17.1H302.4V93.42h18.06v6.89Z" transform="translate(-3.93 -1.23)"/><path class="cls-4" d="M330.92,99.52a8.65,8.65,0,0,1,6.38,2.68,9.08,9.08,0,0,1,0,12.89,9.27,9.27,0,0,1-13,0,8.73,8.73,0,0,1-2.71-6.46,8.65,8.65,0,0,1,2.71-6.47A9.18,9.18,0,0,1,330.92,99.52Zm-.18,6.48a2.4,2.4,0,0,0-1.79.77,2.71,2.71,0,0,0,0,3.73,2.37,2.37,0,0,0,1.78.78,2.41,2.41,0,0,0,1.8-.78,2.56,2.56,0,0,0,.75-1.86,2.6,2.6,0,0,0-.74-1.87A2.43,2.43,0,0,0,330.74,106Z" transform="translate(-3.93 -1.23)"/><path class="cls-4" d="M351,99.52a8.66,8.66,0,0,1,6.39,2.68,9.08,9.08,0,0,1,0,12.89,9.28,9.28,0,0,1-13,0,8.76,8.76,0,0,1-2.7-6.46,8.67,8.67,0,0,1,2.7-6.47A9.21,9.21,0,0,1,351,99.52Zm-.17,6.48a2.4,2.4,0,0,0-1.79.77,2.56,2.56,0,0,0-.74,1.87,2.59,2.59,0,0,0,.74,1.86,2.46,2.46,0,0,0,3.59,0,2.56,2.56,0,0,0,.75-1.86,2.6,2.6,0,0,0-.74-1.87A2.43,2.43,0,0,0,350.85,106Z" transform="translate(-3.93 -1.23)"/><path class="cls-4" d="M369.39,93.42v24h-6.57v-24Z" transform="translate(-3.93 -1.23)"/><path class="cls-4" d="M384.23,100.13v6.93a2.68,2.68,0,0,0-1.91.52,3.49,3.49,0,0,0-.66,2q-.45,5.07-3.93,7.17a10.46,10.46,0,0,1-5.24,1.09h-.92v-7h.3a3.16,3.16,0,0,0,2.26-.66,3.5,3.5,0,0,0,.78-2.31,16.6,16.6,0,0,1,.5-3.78,5.5,5.5,0,0,1,1.47-2.17,7.39,7.39,0,0,1,5.36-1.88Z" transform="translate(-3.93 -1.23)"/></svg>