<svg id="Layer_1" data-name="Layer 1" xmlns="http://www.w3.org/2000/svg" xmlns:xlink="http://www.w3.org/1999/xlink" viewBox="0 0 604.74 159.84"><defs><style>.cls-1{opacity:0.6;isolation:isolate;fill:url(#linear-gradient);}.cls-2{fill:none;stroke:#f44242;stroke-miterlimit:10;stroke-width:18.94px;}.cls-3{fill:#f7f7f7;}.cls-4{fill:#fff;}</style><linearGradient id="linear-gradient" x1="12.4" y1="-571.45" x2="598.2" y2="-571.45" gradientTransform="translate(0 654.6)" gradientUnits="userSpaceOnUse"><stop offset="0.04" stop-color="#ef4725"/><stop offset="0.99" stop-color="#a91e22"/></linearGradient></defs><title>EssentialCreatives</title><path class="cls-1" d="M598.2,63a50.3,50.3,0,0,0-100.6,0v.8H57.3a44.9,44.9,0,0,0,0,89.8H510.4a44.9,44.9,0,0,0,44.7-40.7A50.51,50.51,0,0,0,598.2,63Z" transform="translate(-3.93 -1.23)"/><path class="cls-2" d="M599.2,61a50.3,50.3,0,0,0-100.6,0v.8H58.3a44.9,44.9,0,0,0,0,89.8H511.4a44.9,44.9,0,0,0,44.7-40.7A50.51,50.51,0,0,0,599.2,61Z" transform="translate(-3.93 -1.23)"/><path class="cls-3" d="M524.5,57.8h-3.4a15.26,15.26,0,0,0,.1,1.8v1.8c0,.3-.6.5-1.8.5s-1.7-.1-1.7-.3V57.8c-2,.1-3.1.1-3.2.1s-.2-.1-.2-.4a10.3,10.3,0,0,1,.1-1.3V54.8c.1-.1.2-.2.3-.2h3V51c0-.1.1-.2.3-.2h2.6c.4,0,.6.1.6.2v3.6h3.4c.2,0,.2.1.2.2a11.31,11.31,0,0,1-.1,1.4,9.89,9.89,0,0,1-.1,1.5Z" transform="translate(-3.93 -1.23)"/><path class="cls-3" d="M536.9,58.3c0,3.5-2.2,5.2-6.5,5.2-.6,0-1.5-.1-2.5-.2q-2.1-.3-2.1-.6v-1a6.64,6.64,0,0,1,.1-1.3c.1-.7.2-1.1.4-1.1a.31.31,0,0,1,.2.1,6.57,6.57,0,0,0,3.2.7c1.7,0,2.6-.6,2.6-1.7a1.51,1.51,0,0,0-.9-1.4,3.42,3.42,0,0,0-1.8-.4,7.17,7.17,0,0,0-1.3.1,7.17,7.17,0,0,1-1.3.1c-.3,0-.4-.1-.4-.4,0-.8,0-1.9.1-3.4s.1-2.7.1-3.4a1.69,1.69,0,0,1,.2-.5c.1-.2.2-.3.4-.3h7.9a.27.27,0,0,1,.3.3,12.83,12.83,0,0,1-.1,1.8c-.1,1-.3,1.5-.4,1.5H535a28.48,28.48,0,0,0-3.3-.2c-.9,0-1.3,0-1.4.1a3.47,3.47,0,0,0-.2,1.3c0,.1,0,.2.1.2a3.44,3.44,0,0,0,.9-.1c.4,0,.7-.1.9-.1a5.22,5.22,0,0,1,3.6,1.2A5.39,5.39,0,0,1,536.9,58.3Z" transform="translate(-3.93 -1.23)"/><path class="cls-3" d="M552,56.1a7.69,7.69,0,0,1-2,5.2,6.56,6.56,0,0,1-5,2.3,6.41,6.41,0,0,1-5-2.3,7.76,7.76,0,0,1,0-10.4,6.78,6.78,0,0,1,10,0A7.24,7.24,0,0,1,552,56.1Zm-4.3,0A3.14,3.14,0,0,0,547,54a2.32,2.32,0,0,0-1.9-.9,2.2,2.2,0,0,0-1.9.9,3.5,3.5,0,0,0,0,4.2,2.42,2.42,0,0,0,1.9,1,2.17,2.17,0,0,0,1.9-1A3.77,3.77,0,0,0,547.7,56.1Z" transform="translate(-3.93 -1.23)"/><path class="cls-3" d="M563.9,62.9c0,.2-.1.3-.4.3a7.08,7.08,0,0,1-1.5.1,6.15,6.15,0,0,1-1.4-.1c-.1,0-.2-.1-.4-.2-.4-.5-1-1.4-1.7-2.4-.2.2-.8,1-1.9,2.4a1.38,1.38,0,0,1-.4.3,4.51,4.51,0,0,1-1.3.1c-1.2,0-1.9-.1-1.9-.4V61a.76.76,0,0,1,.2-.4c.6-.6,1.5-1.6,2.7-2.9-.5-.5-1.1-1-1.6-1.6a6.74,6.74,0,0,1-1.3-1.5V52.5c0-.2.1-.3.4-.3h2.8c.2,0,.3.1.4.3a22.17,22.17,0,0,0,1.8,2.2c.7-.9,1.3-1.6,1.7-2.2a.4.4,0,0,1,.4-.2h3c.3,0,.4.1.4.3v2.1a.76.76,0,0,1-.2.4c-.6.6-1.5,1.5-2.6,2.7.6.6,1.5,1.6,2.6,2.8a.76.76,0,0,1,.2.4Z" transform="translate(-3.93 -1.23)"/><path class="cls-3" d="M578.2,57.6a6,6,0,0,1-1.5,4.2,5.13,5.13,0,0,1-4,1.7,4.64,4.64,0,0,1-1.9-.4c-.7-.3-1-.4-.9-.4-.1,0-.2.1-.2.4a13.57,13.57,0,0,0,.1,1.8,13.57,13.57,0,0,1,.1,1.8c0,.3-.1.4-.4.4h-2.4a2.24,2.24,0,0,1-1-.1c-.2-.1-.4-.2-.4-.4v-9a20.15,20.15,0,0,0-.4-4.6v-.2c0-.1,0-.2.1-.2.3-.1.9-.2,1.7-.4s1.4-.2,1.8-.2.5.2.5.6.1.6.2.6c-.1,0,.3-.2,1-.6a4.14,4.14,0,0,1,2-.6,5.35,5.35,0,0,1,4.1,1.7C577.8,54.5,578.2,55.9,578.2,57.6Zm-4.3,0a2.27,2.27,0,0,0-.6-1.6,2,2,0,0,0-3,0,2.77,2.77,0,0,0-.5,1.6,3.1,3.1,0,0,0,.5,1.7,1.8,1.8,0,0,0,1.5.7A2.09,2.09,0,0,0,573.9,57.6Z" transform="translate(-3.93 -1.23)"/><path class="cls-4" d="M91.22,117.41V100.12a7.29,7.29,0,0,1,2-5.26,6.69,6.69,0,0,1,5.06-2,6.26,6.26,0,0,1,5.68,3.39,7.87,7.87,0,0,1,2.6-2.61,6.91,6.91,0,0,1,3.43-.78,6.11,6.11,0,0,1,5,2,8.86,8.86,0,0,1,1.73,5.87v16.68h-7.14V101.8a4,4,0,0,0-.19-1.54.74.74,0,0,0-.74-.37c-.71,0-1.06.59-1.06,1.79v15.73h-7.13V101.8a3.92,3.92,0,0,0-.2-1.53.77.77,0,0,0-.75-.38c-.71,0-1.06.64-1.06,1.91v15.61Z" transform="translate(-3.93 -1.23)"/><path class="cls-4" d="M128.76,99.52a8.66,8.66,0,0,1,6.39,2.68,9.08,9.08,0,0,1,0,12.89,9.28,9.28,0,0,1-13,0,8.76,8.76,0,0,1-2.7-6.46,8.67,8.67,0,0,1,2.7-6.47A9.19,9.19,0,0,1,128.76,99.52Zm-.17,6.48a2.42,2.42,0,0,0-1.8.77,2.59,2.59,0,0,0-.73,1.87,2.55,2.55,0,0,0,.74,1.86,2.46,2.46,0,0,0,3.59,0,2.56,2.56,0,0,0,.75-1.86,2.6,2.6,0,0,0-.74-1.87A2.43,2.43,0,0,0,128.59,106Z" transform="translate(-3.93 -1.23)"/><path class="cls-4" d="M146.75,93.42v14.36c0,2.33.83,3.5,2.51,3.5a2.55,2.55,0,0,0,1.82-.73,2.39,2.39,0,0,0,.75-1.77,2.51,2.51,0,0,0-.71-1.8,2.28,2.28,0,0,0-1.72-.73,3.06,3.06,0,0,0-1.65.63V99.64c.77-.07,1.36-.1,1.75-.1a8.62,8.62,0,0,1,6.36,2.67,9.17,9.17,0,0,1,0,12.92,9.12,9.12,0,0,1-6.61,2.63,9,9,0,0,1-3.84-.86,8.63,8.63,0,0,1-3.09-2.32,9.87,9.87,0,0,1-2.11-6.55V93.42Z" transform="translate(-3.93 -1.23)"/><path class="cls-4" d="M168,99.89v17.52h-6.57V99.89Zm-3.27-7.83A3.24,3.24,0,0,1,167,93a3.12,3.12,0,0,1,.06,4.48,3.34,3.34,0,0,1-2.37.88,3.3,3.3,0,0,1-2.36-.88,3,3,0,0,1-.92-2.25,3,3,0,0,1,1-2.23A3.24,3.24,0,0,1,164.69,92.06Z" transform="translate(-3.93 -1.23)"/><path class="cls-4" d="M178.4,93.42v24h-6.57v-24Z" transform="translate(-3.93 -1.23)"/><path class="cls-4" d="M199.48,109.71h-10a4.56,4.56,0,0,1,.09-3.11h3.34a2.07,2.07,0,0,0-2.2-1.95,2.37,2.37,0,0,0-2,1,4.34,4.34,0,0,0-.77,2.68,4.69,4.69,0,0,0,.74,2.76,2.3,2.3,0,0,0,2,1,2.63,2.63,0,0,0,1.9-1l3.75,4.5a9.21,9.21,0,0,1-5.82,2.05,9,9,0,0,1-6.56-2.62,9.25,9.25,0,0,1,0-13,9,9,0,0,1,6.58-2.65,8.85,8.85,0,0,1,9,9C199.55,108.74,199.53,109.15,199.48,109.71Z" transform="translate(-3.93 -1.23)"/><path class="cls-4" d="M220.4,105.37v6.33h-2.06v5.71H211.2V102.15a9.4,9.4,0,0,1,2.42-6.88,9.14,9.14,0,0,1,6.8-2.45q4.22,0,6.24,2.22c1.34,1.49,2,3.77,2,6.87v15.5h-7.14v-15a4.08,4.08,0,0,0-.33-1.95,1.31,1.31,0,0,0-1.2-.54c-1.11,0-1.67.83-1.67,2.49v3Z" transform="translate(-3.93 -1.23)"/><path class="cls-4" d="M238.7,123.9h-6.58V109.27a9.91,9.91,0,0,1,2.11-6.55,8.51,8.51,0,0,1,3.09-2.32,9,9,0,0,1,3.84-.86,9.08,9.08,0,0,1,6.61,2.63,9.09,9.09,0,0,1,0,12.9,8.57,8.57,0,0,1-6.32,2.71c-.4,0-1,0-1.76-.12v-7.24a2.61,2.61,0,0,0,1.62.65,2.33,2.33,0,0,0,1.74-.76,2.47,2.47,0,0,0,.73-1.79,2.39,2.39,0,0,0-.75-1.77,2.51,2.51,0,0,0-1.81-.73q-2.53,0-2.53,3.5Z" transform="translate(-3.93 -1.23)"/><path class="cls-4" d="M259.53,123.9H253V109.27a9.91,9.91,0,0,1,2.11-6.55,8.51,8.51,0,0,1,3.09-2.32,9,9,0,0,1,3.84-.86,9.08,9.08,0,0,1,6.61,2.63,9.09,9.09,0,0,1,0,12.9,8.57,8.57,0,0,1-6.32,2.71c-.4,0-1,0-1.76-.12v-7.24a2.61,2.61,0,0,0,1.62.65,2.33,2.33,0,0,0,1.74-.76,2.47,2.47,0,0,0,.73-1.79,2.39,2.39,0,0,0-.75-1.77,2.51,2.51,0,0,0-1.81-.73q-2.54,0-2.53,3.5Z" transform="translate(-3.93 -1.23)"/><path class="cls-4" d="M285.16,100.13v6.93a2.66,2.66,0,0,0-1.91.52,3.35,3.35,0,0,0-.66,2q-.46,5.07-3.94,7.17a10.46,10.46,0,0,1-5.24,1.09h-.91v-7h.3a3.18,3.18,0,0,0,2.26-.66,3.5,3.5,0,0,0,.78-2.31,16,16,0,0,1,.5-3.78,5.5,5.5,0,0,1,1.47-2.17,7.37,7.37,0,0,1,5.36-1.88Z" transform="translate(-3.93 -1.23)"/><path class="cls-4" d="M305.81,103.77v6.89h-2.94v6.75H296.3V102.52a9.86,9.86,0,0,1,.86-4.29,9,9,0,0,1,3.31-3.7,8.5,8.5,0,0,1,4.64-1.43l.7,0V100l-.33,0a2.35,2.35,0,0,0-1.93.83,3.62,3.62,0,0,0-.68,2.35v.6Z" transform="translate(-3.93 -1.23)"/><path class="cls-4" d="M317,99.52a8.69,8.69,0,0,1,6.39,2.68,9.09,9.09,0,0,1,0,12.89,9.27,9.27,0,0,1-13,0,8.73,8.73,0,0,1-2.71-6.46,8.65,8.65,0,0,1,2.71-6.47A9.18,9.18,0,0,1,317,99.52Zm-.18,6.48a2.4,2.4,0,0,0-1.79.77,2.6,2.6,0,0,0-.74,1.87,2.56,2.56,0,0,0,.75,1.86,2.37,2.37,0,0,0,1.78.78,2.41,2.41,0,0,0,1.8-.78,2.56,2.56,0,0,0,.75-1.86,2.6,2.6,0,0,0-.74-1.87A2.41,2.41,0,0,0,316.83,106Z" transform="translate(-3.93 -1.23)"/><path class="cls-4" d="M338.42,99.71v7a2.58,2.58,0,0,0-1.25-.38c-1.2,0-1.79.91-1.79,2.74v8.31H328.8v-9.58a8.55,8.55,0,0,1,2.08-6,7.12,7.12,0,0,1,5.53-2.26A13.27,13.27,0,0,1,338.42,99.71Z" transform="translate(-3.93 -1.23)"/><path class="cls-4" d="M366.07,105.69l7.47.19q-.74,5.81-4,9A11.77,11.77,0,0,1,361,118a12.61,12.61,0,0,1-8.9-21.53,12.37,12.37,0,0,1,9.08-3.66A12,12,0,0,1,370,96.41a13.93,13.93,0,0,1,3.49,6.9l-7.65.51q-1.29-3.93-4.87-3.93a4.93,4.93,0,0,0-3.77,1.58,5.64,5.64,0,0,0-1.49,4,5.47,5.47,0,0,0,1.46,3.9,5.34,5.34,0,0,0,7.31.18A6.21,6.21,0,0,0,366.07,105.69Z" transform="translate(-3.93 -1.23)"/><path class="cls-4" d="M386,99.71v7a2.58,2.58,0,0,0-1.25-.38c-1.2,0-1.79.91-1.79,2.74v8.31h-6.58v-9.58a8.55,8.55,0,0,1,2.08-6A7.12,7.12,0,0,1,384,99.52,13.27,13.27,0,0,1,386,99.71Z" transform="translate(-3.93 -1.23)"/><path class="cls-4" d="M405.2,109.71h-10a4.56,4.56,0,0,1,.09-3.11h3.34a2.07,2.07,0,0,0-2.2-1.95,2.37,2.37,0,0,0-2,1,4.35,4.35,0,0,0-.78,2.68,4.69,4.69,0,0,0,.75,2.76,2.3,2.3,0,0,0,2,1,2.63,2.63,0,0,0,1.9-1l3.74,4.5a9.17,9.17,0,0,1-5.82,2.05,8.94,8.94,0,0,1-6.55-2.62,8.73,8.73,0,0,1-2.66-6.48,8.84,8.84,0,0,1,2.68-6.51,9,9,0,0,1,6.59-2.65,8.86,8.86,0,0,1,9,9C405.27,108.74,405.24,109.15,405.2,109.71Z" transform="translate(-3.93 -1.23)"/><path class="cls-4" d="M417.66,110.84v6.8a9.31,9.31,0,0,1-8.07-2.46,9.16,9.16,0,0,1,6.5-15.64A9,9,0,0,1,422.8,102a9.25,9.25,0,0,1,2.45,6.8v8.59h-6.57v-8.12a3.39,3.39,0,0,0-.68-2.21,2.24,2.24,0,0,0-1.82-.83,2.42,2.42,0,0,0-1.79.76,2.57,2.57,0,0,0-.07,3.58,2.33,2.33,0,0,0,1.74.7A3,3,0,0,0,417.66,110.84Z" transform="translate(-3.93 -1.23)"/><path class="cls-4" d="M434.94,93.42v6.71h2.95v7h-2.95a4.65,4.65,0,0,0,.66,2.88,3,3,0,0,0,2.41.79v6.91l-.75,0a9,9,0,0,1-4.21-1,8.46,8.46,0,0,1-3.17-2.81,10.7,10.7,0,0,1-1.52-6V93.42Z" transform="translate(-3.93 -1.23)"/><path class="cls-4" d="M447.7,99.89v17.52h-6.57V99.89Zm-3.27-7.83a3.24,3.24,0,0,1,2.31.94,3,3,0,0,1,1,2.23,3,3,0,0,1-.93,2.25,3.6,3.6,0,0,1-4.72,0,3,3,0,0,1-.93-2.25,3,3,0,0,1,1-2.23A3.24,3.24,0,0,1,444.43,92.06Z" transform="translate(-3.93 -1.23)"/><path class="cls-4" d="M464.73,99.89l-8.19,18.21-8.08-18.21h6.27l1.86,4.73,2-4.73Z" transform="translate(-3.93 -1.23)"/><path class="cls-4" d="M482.66,109.71h-10a4.53,4.53,0,0,1-.23-1.39,4.88,4.88,0,0,1,.31-1.72h3.34a2.06,2.06,0,0,0-2.19-1.95,2.4,2.4,0,0,0-2,1,4.41,4.41,0,0,0-.77,2.68,4.69,4.69,0,0,0,.75,2.76,2.29,2.29,0,0,0,2,1,2.61,2.61,0,0,0,1.89-1l3.75,4.5a9.21,9.21,0,0,1-5.82,2.05,9,9,0,0,1-6.56-2.62,9.25,9.25,0,0,1,0-13,9,9,0,0,1,6.58-2.65,8.85,8.85,0,0,1,9,9C482.73,108.74,482.71,109.15,482.66,109.71Z" transform="translate(-3.93 -1.23)"/><path class="cls-4" d="M496.37,100.13v6.93a2.65,2.65,0,0,0-1.9.52,3.35,3.35,0,0,0-.66,2q-.46,5.07-3.94,7.17a10.46,10.46,0,0,1-5.24,1.09h-.91v-7h.3a3.2,3.2,0,0,0,2.26-.66,3.5,3.5,0,0,0,.78-2.31,16,16,0,0,1,.5-3.78A5.5,5.5,0,0,1,489,102a7.37,7.37,0,0,1,5.36-1.88Z" transform="translate(-3.93 -1.23)"/></svg>