<svg id="Layer_1" data-name="Layer 1" xmlns="http://www.w3.org/2000/svg" xmlns:xlink="http://www.w3.org/1999/xlink" viewBox="0 0 604.74 159.84"><defs><style>.cls-1{opacity:0.6;isolation:isolate;fill:url(#linear-gradient);}.cls-2{fill:none;stroke:#f44242;stroke-miterlimit:10;stroke-width:18.94px;}.cls-3{fill:#f7f7f7;}.cls-4{fill:#fff;}</style><linearGradient id="linear-gradient" x1="12.4" y1="-571.45" x2="598.2" y2="-571.45" gradientTransform="translate(0 654.6)" gradientUnits="userSpaceOnUse"><stop offset="0.04" stop-color="#ef4725"/><stop offset="0.99" stop-color="#a91e22"/></linearGradient></defs><title>EssentialIntro</title><path class="cls-1" d="M598.2,63a50.3,50.3,0,0,0-100.6,0v.8H57.3a44.9,44.9,0,0,0,0,89.8H510.4a44.9,44.9,0,0,0,44.7-40.7A50.51,50.51,0,0,0,598.2,63Z" transform="translate(-3.93 -1.23)"/><path class="cls-2" d="M599.2,61a50.3,50.3,0,0,0-100.6,0v.8H58.3a44.9,44.9,0,0,0,0,89.8H511.4a44.9,44.9,0,0,0,44.7-40.7A50.51,50.51,0,0,0,599.2,61Z" transform="translate(-3.93 -1.23)"/><path class="cls-3" d="M524.5,57.8h-3.4a15.26,15.26,0,0,0,.1,1.8v1.8c0,.3-.6.5-1.8.5s-1.7-.1-1.7-.3V57.8c-2,.1-3.1.1-3.2.1s-.2-.1-.2-.4a10.3,10.3,0,0,1,.1-1.3V54.8c.1-.1.2-.2.3-.2h3V51c0-.1.1-.2.3-.2h2.6c.4,0,.6.1.6.2v3.6h3.4c.2,0,.2.1.2.2a11.31,11.31,0,0,1-.1,1.4,9.89,9.89,0,0,1-.1,1.5Z" transform="translate(-3.93 -1.23)"/><path class="cls-3" d="M536.9,58.3c0,3.5-2.2,5.2-6.5,5.2-.6,0-1.5-.1-2.5-.2q-2.1-.3-2.1-.6v-1a6.64,6.64,0,0,1,.1-1.3c.1-.7.2-1.1.4-1.1a.31.31,0,0,1,.2.1,6.57,6.57,0,0,0,3.2.7c1.7,0,2.6-.6,2.6-1.7a1.51,1.51,0,0,0-.9-1.4,3.42,3.42,0,0,0-1.8-.4,7.17,7.17,0,0,0-1.3.1,7.17,7.17,0,0,1-1.3.1c-.3,0-.4-.1-.4-.4,0-.8,0-1.9.1-3.4s.1-2.7.1-3.4a1.69,1.69,0,0,1,.2-.5c.1-.2.2-.3.4-.3h7.9a.27.27,0,0,1,.3.3,12.83,12.83,0,0,1-.1,1.8c-.1,1-.3,1.5-.4,1.5H535a28.48,28.48,0,0,0-3.3-.2c-.9,0-1.3,0-1.4.1a3.47,3.47,0,0,0-.2,1.3c0,.1,0,.2.1.2a3.44,3.44,0,0,0,.9-.1c.4,0,.7-.1.9-.1a5.22,5.22,0,0,1,3.6,1.2A5.39,5.39,0,0,1,536.9,58.3Z" transform="translate(-3.93 -1.23)"/><path class="cls-3" d="M552,56.1a7.69,7.69,0,0,1-2,5.2,6.56,6.56,0,0,1-5,2.3,6.41,6.41,0,0,1-5-2.3,7.76,7.76,0,0,1,0-10.4,6.78,6.78,0,0,1,10,0A7.24,7.24,0,0,1,552,56.1Zm-4.3,0A3.14,3.14,0,0,0,547,54a2.32,2.32,0,0,0-1.9-.9,2.2,2.2,0,0,0-1.9.9,3.5,3.5,0,0,0,0,4.2,2.42,2.42,0,0,0,1.9,1,2.17,2.17,0,0,0,1.9-1A3.77,3.77,0,0,0,547.7,56.1Z" transform="translate(-3.93 -1.23)"/><path class="cls-3" d="M563.9,62.9c0,.2-.1.3-.4.3a7.08,7.08,0,0,1-1.5.1,6.15,6.15,0,0,1-1.4-.1c-.1,0-.2-.1-.4-.2-.4-.5-1-1.4-1.7-2.4-.2.2-.8,1-1.9,2.4a1.38,1.38,0,0,1-.4.3,4.51,4.51,0,0,1-1.3.1c-1.2,0-1.9-.1-1.9-.4V61a.76.76,0,0,1,.2-.4c.6-.6,1.5-1.6,2.7-2.9-.5-.5-1.1-1-1.6-1.6a6.74,6.74,0,0,1-1.3-1.5V52.5c0-.2.1-.3.4-.3h2.8c.2,0,.3.1.4.3a22.17,22.17,0,0,0,1.8,2.2c.7-.9,1.3-1.6,1.7-2.2a.4.4,0,0,1,.4-.2h3c.3,0,.4.1.4.3v2.1a.76.76,0,0,1-.2.4c-.6.6-1.5,1.5-2.6,2.7.6.6,1.5,1.6,2.6,2.8a.76.76,0,0,1,.2.4Z" transform="translate(-3.93 -1.23)"/><path class="cls-3" d="M578.2,57.6a6,6,0,0,1-1.5,4.2,5.13,5.13,0,0,1-4,1.7,4.64,4.64,0,0,1-1.9-.4c-.7-.3-1-.4-.9-.4-.1,0-.2.1-.2.4a13.57,13.57,0,0,0,.1,1.8,13.57,13.57,0,0,1,.1,1.8c0,.3-.1.4-.4.4h-2.4a2.24,2.24,0,0,1-1-.1c-.2-.1-.4-.2-.4-.4v-9a20.15,20.15,0,0,0-.4-4.6v-.2c0-.1,0-.2.1-.2.3-.1.9-.2,1.7-.4s1.4-.2,1.8-.2.5.2.5.6.1.6.2.6c-.1,0,.3-.2,1-.6a4.14,4.14,0,0,1,2-.6,5.35,5.35,0,0,1,4.1,1.7C577.8,54.5,578.2,55.9,578.2,57.6Zm-4.3,0a2.27,2.27,0,0,0-.6-1.6,2,2,0,0,0-3,0,2.77,2.77,0,0,0-.5,1.6,3.1,3.1,0,0,0,.5,1.7,1.8,1.8,0,0,0,1.5.7A2.09,2.09,0,0,0,573.9,57.6Z" transform="translate(-3.93 -1.23)"/><path class="cls-4" d="M69.84,93.42v24H62.71v-24Z" transform="translate(-3.93 -1.23)"/><path class="cls-4" d="M89.78,117.41H83.2v-9.89c0-1-.41-1.52-1.24-1.52s-1.23.51-1.23,1.52v9.89H74.15v-9.77a8,8,0,0,1,2.27-5.78,7.9,7.9,0,0,1,11.58.38,9,9,0,0,1,1.78,5.93Z" transform="translate(-3.93 -1.23)"/><path class="cls-4" d="M99.46,93.42v6.71h3v7h-3a4.65,4.65,0,0,0,.66,2.88,3,3,0,0,0,2.42.79v6.91l-.76,0a9,9,0,0,1-4.21-1,8.62,8.62,0,0,1-3.17-2.81,10.7,10.7,0,0,1-1.51-6V93.42Z" transform="translate(-3.93 -1.23)"/><path class="cls-4" d="M115.27,99.71v7a2.58,2.58,0,0,0-1.25-.38c-1.2,0-1.79.91-1.79,2.74v8.31h-6.58v-9.58a8.55,8.55,0,0,1,2.08-6,7.12,7.12,0,0,1,5.53-2.26A13.27,13.27,0,0,1,115.27,99.71Z" transform="translate(-3.93 -1.23)"/><path class="cls-4" d="M125.51,99.52a8.66,8.66,0,0,1,6.39,2.68,9.08,9.08,0,0,1,0,12.89,9.28,9.28,0,0,1-13,0,8.76,8.76,0,0,1-2.7-6.46,8.67,8.67,0,0,1,2.7-6.47A9.21,9.21,0,0,1,125.51,99.52Zm-.17,6.48a2.4,2.4,0,0,0-1.79.77,2.56,2.56,0,0,0-.74,1.87,2.59,2.59,0,0,0,.74,1.86,2.46,2.46,0,0,0,3.59,0,2.56,2.56,0,0,0,.75-1.86,2.6,2.6,0,0,0-.74-1.87A2.43,2.43,0,0,0,125.34,106Z" transform="translate(-3.93 -1.23)"/><path class="cls-4" d="M148.1,93.42h6.58V108a9.93,9.93,0,0,1-2.11,6.55,8.63,8.63,0,0,1-3.09,2.32,9,9,0,0,1-3.84.86,9.12,9.12,0,0,1-6.61-2.63,8.73,8.73,0,0,1-2.69-6.47,8.85,8.85,0,0,1,2.67-6.42,8.64,8.64,0,0,1,6.33-2.7c.39,0,1,0,1.76.1v7.24a2.64,2.64,0,0,0-1.62-.63,2.36,2.36,0,0,0-1.75.75,2.52,2.52,0,0,0-.73,1.8,2.37,2.37,0,0,0,.76,1.75,2.54,2.54,0,0,0,1.81.73q2.53,0,2.53-3.5Z" transform="translate(-3.93 -1.23)"/><path class="cls-4" d="M158.14,100.13h6.57V110c0,1,.42,1.49,1.25,1.49s1.23-.49,1.23-1.49v-9.9h6.58v9.78a8,8,0,0,1-2.27,5.75,7.4,7.4,0,0,1-5.56,2.35,7.48,7.48,0,0,1-6-2.72,8.93,8.93,0,0,1-1.78-5.91Z" transform="translate(-3.93 -1.23)"/><path class="cls-4" d="M188.36,109.34l6.52-.24a9.28,9.28,0,0,1-2.83,6.24,8.64,8.64,0,0,1-6.21,2.44,8.85,8.85,0,0,1-6.53-2.69,9,9,0,0,1-2.66-6.59,8.6,8.6,0,0,1,2.69-6.35,9.19,9.19,0,0,1,12.25-.56,8.79,8.79,0,0,1,3.13,5.29l-6.66.25a2.65,2.65,0,0,0-2.18-1.13,2.49,2.49,0,0,0-1.85.74,2.57,2.57,0,0,0-.72,1.87,2.6,2.6,0,0,0,.77,1.91,2.54,2.54,0,0,0,1.9.77A2.48,2.48,0,0,0,188.36,109.34Z" transform="translate(-3.93 -1.23)"/><path class="cls-4" d="M203.6,93.42v6.71h3v7h-3a4.65,4.65,0,0,0,.66,2.88,3,3,0,0,0,2.41.79v6.91l-.75,0a9,9,0,0,1-4.21-1,8.57,8.57,0,0,1-3.18-2.81,10.78,10.78,0,0,1-1.51-6V93.42Z" transform="translate(-3.93 -1.23)"/><path class="cls-4" d="M216.36,99.89v17.52h-6.58V99.89Zm-3.27-7.83a3.24,3.24,0,0,1,2.31.94,3,3,0,0,1,1,2.23,3,3,0,0,1-.93,2.25,3.3,3.3,0,0,1-2.36.88,3.34,3.34,0,0,1-2.37-.88,3.12,3.12,0,0,1,.06-4.48A3.24,3.24,0,0,1,213.09,92.06Z" transform="translate(-3.93 -1.23)"/><path class="cls-4" d="M228.54,99.52a9.1,9.1,0,0,1,6.35,15.57,9.27,9.27,0,0,1-13,0,8.77,8.77,0,0,1-2.71-6.46,8.68,8.68,0,0,1,2.71-6.47A9.19,9.19,0,0,1,228.54,99.52Zm-.18,6.48a2.4,2.4,0,0,0-1.79.77,2.6,2.6,0,0,0-.74,1.87,2.56,2.56,0,0,0,.75,1.86,2.38,2.38,0,0,0,1.78.78,2.41,2.41,0,0,0,1.81-.78,2.59,2.59,0,0,0,.74-1.86,2.56,2.56,0,0,0-.74-1.87A2.41,2.41,0,0,0,228.36,106Z" transform="translate(-3.93 -1.23)"/><path class="cls-4" d="M256,117.41h-6.57v-9.89c0-1-.42-1.52-1.25-1.52s-1.23.51-1.23,1.52v9.89h-6.58v-9.77a8,8,0,0,1,2.27-5.78,7.91,7.91,0,0,1,11.59.38,9,9,0,0,1,1.77,5.93Z" transform="translate(-3.93 -1.23)"/><path class="cls-4" d="M274.65,93.42v6.71h3v7h-3a4.65,4.65,0,0,0,.66,2.88,3,3,0,0,0,2.41.79v6.91l-.75,0a9,9,0,0,1-4.21-1,8.57,8.57,0,0,1-3.18-2.81,10.78,10.78,0,0,1-1.51-6V93.42Z" transform="translate(-3.93 -1.23)"/><path class="cls-4" d="M289.15,99.52a8.69,8.69,0,0,1,6.39,2.68,9.09,9.09,0,0,1,0,12.89,9.27,9.27,0,0,1-13,0,8.77,8.77,0,0,1-2.71-6.46,8.68,8.68,0,0,1,2.71-6.47A9.18,9.18,0,0,1,289.15,99.52ZM289,106a2.4,2.4,0,0,0-1.79.77,2.6,2.6,0,0,0-.74,1.87,2.56,2.56,0,0,0,.75,1.86,2.38,2.38,0,0,0,1.78.78,2.41,2.41,0,0,0,1.81-.78,2.59,2.59,0,0,0,.74-1.86,2.56,2.56,0,0,0-.74-1.87A2.41,2.41,0,0,0,289,106Z" transform="translate(-3.93 -1.23)"/><path class="cls-4" d="M317.57,100.31v17.1h-7.13v-24h9.3q6.11,0,9.58,2.78a11,11,0,0,1,4.11,9,11.89,11.89,0,0,1-3.52,8.9,12.4,12.4,0,0,1-9.05,3.44c-.43,0-1.14,0-2.13-.07v-7h1.15q6.24,0,6.24-5.22,0-4.9-6.14-4.9Z" transform="translate(-3.93 -1.23)"/><path class="cls-4" d="M342.87,99.89v17.52h-6.58V99.89Zm-3.27-7.83a3.24,3.24,0,0,1,2.31.94,3,3,0,0,1,1,2.23,3,3,0,0,1-.93,2.25,3.3,3.3,0,0,1-2.36.88,3.34,3.34,0,0,1-2.37-.88,3.12,3.12,0,0,1,.06-4.48A3.24,3.24,0,0,1,339.6,92.06Z" transform="translate(-3.93 -1.23)"/><path class="cls-4" d="M356.09,110.19v6a7.88,7.88,0,0,1-2.73.52,7.06,7.06,0,0,1-5.39-2.4,8.41,8.41,0,0,1-2.2-5.89,8.51,8.51,0,0,1,2.65-6.35,9,9,0,0,1,6.52-2.58,9.66,9.66,0,0,1,3.94.82,7.27,7.27,0,0,1,2.95,2.22q1.8,2.3,1.8,6.68V115a10.86,10.86,0,0,1-2.67,7.62,8.89,8.89,0,0,1-6.93,2.93,11.17,11.17,0,0,1-3.29-.65v-6a5.39,5.39,0,0,0,2.6.71,3.37,3.37,0,0,0,2.75-1.17,5.16,5.16,0,0,0,1-3.35v-6.59c0-1.84-.74-2.76-2.23-2.76a2.23,2.23,0,0,0-1.66.73,2.33,2.33,0,0,0-.71,1.68,2.24,2.24,0,0,0,.68,1.67,2.3,2.3,0,0,0,1.67.66A2.79,2.79,0,0,0,356.09,110.19Z" transform="translate(-3.93 -1.23)"/><path class="cls-4" d="M374.07,99.89v17.52H367.5V99.89Zm-3.27-7.83a3.24,3.24,0,0,1,2.31.94,3,3,0,0,1,1,2.23,3,3,0,0,1-.93,2.25,3.6,3.6,0,0,1-4.72,0,3,3,0,0,1-.93-2.25,3,3,0,0,1,1-2.23A3.24,3.24,0,0,1,370.8,92.06Z" transform="translate(-3.93 -1.23)"/><path class="cls-4" d="M383.79,93.42v6.71h2.95v7h-2.95a4.65,4.65,0,0,0,.66,2.88,3,3,0,0,0,2.42.79v6.91l-.76,0a9,9,0,0,1-4.21-1,8.46,8.46,0,0,1-3.17-2.81,10.7,10.7,0,0,1-1.51-6V93.42Z" transform="translate(-3.93 -1.23)"/><path class="cls-4" d="M399.72,110.84v6.8a9.18,9.18,0,0,1-1.48.14,9,9,0,0,1-6.59-2.6,9.16,9.16,0,0,1,6.5-15.64,9,9,0,0,1,6.71,2.48,9.29,9.29,0,0,1,2.45,6.8v8.59h-6.57v-8.12a3.39,3.39,0,0,0-.68-2.21,2.24,2.24,0,0,0-1.82-.83,2.58,2.58,0,0,0-1.86,4.34,2.3,2.3,0,0,0,1.74.7A3,3,0,0,0,399.72,110.84Z" transform="translate(-3.93 -1.23)"/><path class="cls-4" d="M417.72,93.42v24h-6.58v-24Z" transform="translate(-3.93 -1.23)"/><path class="cls-4" d="M442.33,93.31v6.84a3.93,3.93,0,0,0-1.2-.26,1.9,1.9,0,0,0-1.39.59,2,2,0,0,0-.58,1.45,3.9,3.9,0,0,0,.63,1.82l.55,1a10,10,0,0,1,1.48,5,7.94,7.94,0,0,1-2.49,5.92,8.37,8.37,0,0,1-6.08,2.43,8,8,0,0,1-3.41-.79v-6.94a3.54,3.54,0,0,0,1.82.65,2.29,2.29,0,0,0,1.55-.54,1.7,1.7,0,0,0,.62-1.35,6.84,6.84,0,0,0-1-2.3,11.34,11.34,0,0,1-1.6-5.62,8.07,8.07,0,0,1,2.42-5.85,7.84,7.84,0,0,1,5.77-2.45A8.8,8.8,0,0,1,442.33,93.31Z" transform="translate(-3.93 -1.23)"/><path class="cls-4" d="M452,93.42v24h-6.58v-24Zm10.07,6.47-3.22,6.38,4.79,11.14h-7.28L452.27,106l3-6.08Z" transform="translate(-3.93 -1.23)"/><path class="cls-4" d="M471.43,99.89v17.52h-6.57V99.89Zm-3.26-7.83a3.24,3.24,0,0,1,2.31.94,3.13,3.13,0,0,1,0,4.48,3.62,3.62,0,0,1-4.73,0,3.13,3.13,0,0,1,.05-4.48A3.25,3.25,0,0,1,468.17,92.06Z" transform="translate(-3.93 -1.23)"/><path class="cls-4" d="M481.88,93.42v24H475.3v-24Z" transform="translate(-3.93 -1.23)"/><path class="cls-4" d="M492.3,93.42v24h-6.57v-24Z" transform="translate(-3.93 -1.23)"/><path class="cls-4" d="M507.14,100.13v6.93a2.66,2.66,0,0,0-1.91.52,3.35,3.35,0,0,0-.66,2q-.46,5.07-3.94,7.17a10.44,10.44,0,0,1-5.24,1.09h-.91v-7h.3a3.18,3.18,0,0,0,2.26-.66,3.5,3.5,0,0,0,.78-2.31,16,16,0,0,1,.5-3.78,5.5,5.5,0,0,1,1.47-2.17,7.37,7.37,0,0,1,5.36-1.88Z" transform="translate(-3.93 -1.23)"/></svg>