<svg id="Layer_1" data-name="Layer 1" xmlns="http://www.w3.org/2000/svg" xmlns:xlink="http://www.w3.org/1999/xlink" viewBox="0 0 604.74 159.84"><defs><style>.cls-1{opacity:0.6;isolation:isolate;fill:url(#linear-gradient);}.cls-2{fill:none;stroke:#f44242;stroke-miterlimit:10;stroke-width:18.94px;}.cls-3{fill:#f7f7f7;}.cls-4{fill:#fff;}</style><linearGradient id="linear-gradient" x1="12.4" y1="-571.45" x2="598.2" y2="-571.45" gradientTransform="translate(0 654.6)" gradientUnits="userSpaceOnUse"><stop offset="0.04" stop-color="#ef4725"/><stop offset="0.99" stop-color="#a91e22"/></linearGradient></defs><title>EssentialSafety</title><path class="cls-1" d="M598.2,63a50.3,50.3,0,0,0-100.6,0v.8H57.3a44.9,44.9,0,0,0,0,89.8H510.4a44.9,44.9,0,0,0,44.7-40.7A50.51,50.51,0,0,0,598.2,63Z" transform="translate(-3.93 -1.23)"/><path class="cls-2" d="M599.2,61a50.3,50.3,0,0,0-100.6,0v.8H58.3a44.9,44.9,0,0,0,0,89.8H511.4a44.9,44.9,0,0,0,44.7-40.7A50.51,50.51,0,0,0,599.2,61Z" transform="translate(-3.93 -1.23)"/><path class="cls-3" d="M524.5,57.8h-3.4a15.26,15.26,0,0,0,.1,1.8v1.8c0,.3-.6.5-1.8.5s-1.7-.1-1.7-.3V57.8c-2,.1-3.1.1-3.2.1s-.2-.1-.2-.4a10.3,10.3,0,0,1,.1-1.3V54.8c.1-.1.2-.2.3-.2h3V51c0-.1.1-.2.3-.2h2.6c.4,0,.6.1.6.2v3.6h3.4c.2,0,.2.1.2.2a11.31,11.31,0,0,1-.1,1.4,9.89,9.89,0,0,1-.1,1.5Z" transform="translate(-3.93 -1.23)"/><path class="cls-3" d="M536.9,58.3c0,3.5-2.2,5.2-6.5,5.2-.6,0-1.5-.1-2.5-.2q-2.1-.3-2.1-.6v-1a6.64,6.64,0,0,1,.1-1.3c.1-.7.2-1.1.4-1.1a.31.31,0,0,1,.2.1,6.57,6.57,0,0,0,3.2.7c1.7,0,2.6-.6,2.6-1.7a1.51,1.51,0,0,0-.9-1.4,3.42,3.42,0,0,0-1.8-.4,7.17,7.17,0,0,0-1.3.1,7.17,7.17,0,0,1-1.3.1c-.3,0-.4-.1-.4-.4,0-.8,0-1.9.1-3.4s.1-2.7.1-3.4a1.69,1.69,0,0,1,.2-.5c.1-.2.2-.3.4-.3h7.9a.27.27,0,0,1,.3.3,12.83,12.83,0,0,1-.1,1.8c-.1,1-.3,1.5-.4,1.5H535a28.48,28.48,0,0,0-3.3-.2c-.9,0-1.3,0-1.4.1a3.47,3.47,0,0,0-.2,1.3c0,.1,0,.2.1.2a3.44,3.44,0,0,0,.9-.1c.4,0,.7-.1.9-.1a5.22,5.22,0,0,1,3.6,1.2A5.39,5.39,0,0,1,536.9,58.3Z" transform="translate(-3.93 -1.23)"/><path class="cls-3" d="M552,56.1a7.69,7.69,0,0,1-2,5.2,6.56,6.56,0,0,1-5,2.3,6.41,6.41,0,0,1-5-2.3,7.76,7.76,0,0,1,0-10.4,6.78,6.78,0,0,1,10,0A7.24,7.24,0,0,1,552,56.1Zm-4.3,0A3.14,3.14,0,0,0,547,54a2.32,2.32,0,0,0-1.9-.9,2.2,2.2,0,0,0-1.9.9,3.5,3.5,0,0,0,0,4.2,2.42,2.42,0,0,0,1.9,1,2.17,2.17,0,0,0,1.9-1A3.77,3.77,0,0,0,547.7,56.1Z" transform="translate(-3.93 -1.23)"/><path class="cls-3" d="M563.9,62.9c0,.2-.1.3-.4.3a7.08,7.08,0,0,1-1.5.1,6.15,6.15,0,0,1-1.4-.1c-.1,0-.2-.1-.4-.2-.4-.5-1-1.4-1.7-2.4-.2.2-.8,1-1.9,2.4a1.38,1.38,0,0,1-.4.3,4.51,4.51,0,0,1-1.3.1c-1.2,0-1.9-.1-1.9-.4V61a.76.76,0,0,1,.2-.4c.6-.6,1.5-1.6,2.7-2.9-.5-.5-1.1-1-1.6-1.6a6.74,6.74,0,0,1-1.3-1.5V52.5c0-.2.1-.3.4-.3h2.8c.2,0,.3.1.4.3a22.17,22.17,0,0,0,1.8,2.2c.7-.9,1.3-1.6,1.7-2.2a.4.4,0,0,1,.4-.2h3c.3,0,.4.1.4.3v2.1a.76.76,0,0,1-.2.4c-.6.6-1.5,1.5-2.6,2.7.6.6,1.5,1.6,2.6,2.8a.76.76,0,0,1,.2.4Z" transform="translate(-3.93 -1.23)"/><path class="cls-3" d="M578.2,57.6a6,6,0,0,1-1.5,4.2,5.13,5.13,0,0,1-4,1.7,4.64,4.64,0,0,1-1.9-.4c-.7-.3-1-.4-.9-.4-.1,0-.2.1-.2.4a13.57,13.57,0,0,0,.1,1.8,13.57,13.57,0,0,1,.1,1.8c0,.3-.1.4-.4.4h-2.4a2.24,2.24,0,0,1-1-.1c-.2-.1-.4-.2-.4-.4v-9a20.15,20.15,0,0,0-.4-4.6v-.2c0-.1,0-.2.1-.2.3-.1.9-.2,1.7-.4s1.4-.2,1.8-.2.5.2.5.6.1.6.2.6c-.1,0,.3-.2,1-.6a4.14,4.14,0,0,1,2-.6,5.35,5.35,0,0,1,4.1,1.7C577.8,54.5,578.2,55.9,578.2,57.6Zm-4.3,0a2.27,2.27,0,0,0-.6-1.6,2,2,0,0,0-3,0,2.77,2.77,0,0,0-.5,1.6,3.1,3.1,0,0,0,.5,1.7,1.8,1.8,0,0,0,1.5.7A2.09,2.09,0,0,0,573.9,57.6Z" transform="translate(-3.93 -1.23)"/><path class="cls-4" d="M238.5,102.75v5.35h-4.65a2.4,2.4,0,0,0-1.35.28,1.08,1.08,0,0,0-.39,1,1.06,1.06,0,0,0,.4,1,3.71,3.71,0,0,0,1.65.24H239v6.85h-5.61a8.71,8.71,0,0,1-6-1.89,7,7,0,0,1-2.09-5.46v-9.4a7.06,7.06,0,0,1,2-5.34,7.71,7.71,0,0,1,5.57-1.9H239v6.89h-4.55c-1.23,0-1.85.4-1.85,1.19a1.07,1.07,0,0,0,.44,1,3.26,3.26,0,0,0,1.57.27Z" transform="translate(-3.93 -1.23)"/><path class="cls-4" d="M248.68,104.44v4.66h-8v-4.66Z" transform="translate(-3.93 -1.23)"/><path class="cls-4" d="M262.36,93.31v6.84a3.93,3.93,0,0,0-1.2-.26,1.9,1.9,0,0,0-1.39.59,2,2,0,0,0-.58,1.45,3.94,3.94,0,0,0,.64,1.82l.54,1a9.91,9.91,0,0,1,1.48,5,7.94,7.94,0,0,1-2.49,5.92,8.36,8.36,0,0,1-6.07,2.43,7.9,7.9,0,0,1-3.41-.79v-6.94a3.51,3.51,0,0,0,1.81.65,2.27,2.27,0,0,0,1.55-.54,1.71,1.71,0,0,0,.63-1.35,7.08,7.08,0,0,0-1-2.3,11.24,11.24,0,0,1-1.6-5.62,8.06,8.06,0,0,1,2.41-5.85,7.85,7.85,0,0,1,5.78-2.45A8.79,8.79,0,0,1,262.36,93.31Z" transform="translate(-3.93 -1.23)"/><path class="cls-4" d="M275.23,110.84v6.8a9.18,9.18,0,0,1-1.48.14,9,9,0,0,1-6.59-2.6,9.16,9.16,0,0,1,6.5-15.64,9,9,0,0,1,6.71,2.48,9.29,9.29,0,0,1,2.45,6.8v8.59h-6.57v-8.12a3.39,3.39,0,0,0-.68-2.21,2.24,2.24,0,0,0-1.82-.83,2.58,2.58,0,0,0-1.86,4.34,2.3,2.3,0,0,0,1.74.7A3,3,0,0,0,275.23,110.84Z" transform="translate(-3.93 -1.23)"/><path class="cls-4" d="M296.16,103.77v6.89h-2.93v6.75h-6.58V102.52a9.86,9.86,0,0,1,.86-4.29,9,9,0,0,1,3.32-3.7,8.45,8.45,0,0,1,4.63-1.43l.7,0V100l-.33,0a2.36,2.36,0,0,0-1.93.83,3.62,3.62,0,0,0-.67,2.35v.6Z" transform="translate(-3.93 -1.23)"/><path class="cls-4" d="M316.27,109.71h-10a4.83,4.83,0,0,1-.22-1.39,4.88,4.88,0,0,1,.31-1.72h3.34a2.07,2.07,0,0,0-2.2-1.95,2.38,2.38,0,0,0-2,1,4.34,4.34,0,0,0-.77,2.68,4.76,4.76,0,0,0,.74,2.76,2.31,2.31,0,0,0,2,1,2.63,2.63,0,0,0,1.9-1l3.75,4.5a9.21,9.21,0,0,1-5.82,2.05,9,9,0,0,1-6.56-2.62,9.25,9.25,0,0,1,0-13,9,9,0,0,1,6.58-2.65,8.85,8.85,0,0,1,9,9C316.34,108.74,316.32,109.15,316.27,109.71Z" transform="translate(-3.93 -1.23)"/><path class="cls-4" d="M324.85,93.42v6.71h2.95v7h-2.95a4.65,4.65,0,0,0,.66,2.88,3,3,0,0,0,2.41.79v6.91l-.75,0a9,9,0,0,1-4.21-1,8.46,8.46,0,0,1-3.17-2.81,10.7,10.7,0,0,1-1.52-6V93.42Z" transform="translate(-3.93 -1.23)"/><path class="cls-4" d="M333.3,125.09v-5.71a6.07,6.07,0,0,0,2.34.56c2.13,0,3.52-1.2,4.15-3.6a6.6,6.6,0,0,1-3.37,1,5.11,5.11,0,0,1-4-1.82,6.78,6.78,0,0,1-1.58-4.63v-11h6.57v9.42c0,1,.44,1.56,1.3,1.56s1.25-.57,1.25-1.72V99.89h6.57v15.64A10.08,10.08,0,0,1,344,122.6a9.28,9.28,0,0,1-7.1,3.2A10,10,0,0,1,333.3,125.09Z" transform="translate(-3.93 -1.23)"/></svg>