<svg id="Layer_1" data-name="Layer 1" xmlns="http://www.w3.org/2000/svg" xmlns:xlink="http://www.w3.org/1999/xlink" viewBox="0 0 604.74 159.84"><defs><style>.cls-1{opacity:0.6;isolation:isolate;fill:url(#linear-gradient);}.cls-2{fill:none;stroke:#00aeef;stroke-miterlimit:10;stroke-width:18.94px;}.cls-3{fill:#f7f7f7;}.cls-4{fill:#fff;}</style><linearGradient id="linear-gradient" x1="10.7" y1="86.85" x2="596.5" y2="86.85" gradientTransform="matrix(1, 0, 0, -1, 0, 166.6)" gradientUnits="userSpaceOnUse"><stop offset="0" stop-color="#00b2ed"/><stop offset="0.99" stop-color="#1d71b8"/></linearGradient></defs><title>WebIntro</title><path class="cls-1" d="M596.5,59.6a50.3,50.3,0,1,0-100.6,0v.8H55.6a44.9,44.9,0,0,0,0,89.8H508.7a44.9,44.9,0,0,0,44.7-40.7A50.51,50.51,0,0,0,596.5,59.6Z" transform="translate(-1.23 0.17)"/><path class="cls-2" d="M596.5,59.6a50.3,50.3,0,1,0-100.6,0v.8H55.6a44.9,44.9,0,0,0,0,89.8H508.7a44.9,44.9,0,0,0,44.7-40.7A50.51,50.51,0,0,0,596.5,59.6Z" transform="translate(-1.23 0.17)"/><path class="cls-3" d="M522.8,54.4h-3.4a15.26,15.26,0,0,0,.1,1.8V58c0,.3-.6.5-1.8.5s-1.7-.1-1.7-.3V54.4c-2,.1-3.1.1-3.2.1s-.2-.1-.2-.4a10.3,10.3,0,0,1,.1-1.3V51.4c.1-.1.2-.2.3-.2h3V47.6c0-.1.1-.2.3-.2h2.6c.4,0,.6.1.6.2v3.6h3.4c.2,0,.2.1.2.2a11.31,11.31,0,0,1-.1,1.4,9.89,9.89,0,0,1-.1,1.5Z" transform="translate(-1.23 0.17)"/><path class="cls-3" d="M535.2,54.9c0,3.5-2.2,5.2-6.5,5.2-.6,0-1.5-.1-2.5-.2q-2.1-.3-2.1-.6v-1a6.64,6.64,0,0,1,.1-1.3c.1-.7.2-1.1.4-1.1a.31.31,0,0,1,.2.1,6.57,6.57,0,0,0,3.2.7c1.7,0,2.6-.6,2.6-1.7a1.51,1.51,0,0,0-.9-1.4,3.42,3.42,0,0,0-1.8-.4,7.17,7.17,0,0,0-1.3.1,7.17,7.17,0,0,1-1.3.1c-.3,0-.4-.1-.4-.4,0-.8,0-1.9.1-3.4s.1-2.7.1-3.4a1.69,1.69,0,0,1,.2-.5c.1-.2.2-.3.4-.3h7.9a.27.27,0,0,1,.3.3,12.83,12.83,0,0,1-.1,1.8c-.1,1-.3,1.5-.4,1.5h-.1a28.48,28.48,0,0,0-3.3-.2c-.9,0-1.3,0-1.4.1a3.47,3.47,0,0,0-.2,1.3c0,.1,0,.2.1.2a3.44,3.44,0,0,0,.9-.1c.4,0,.7-.1.9-.1a5.22,5.22,0,0,1,3.6,1.2A5.39,5.39,0,0,1,535.2,54.9Z" transform="translate(-1.23 0.17)"/><path class="cls-3" d="M550.3,52.7a7.69,7.69,0,0,1-2,5.2,6.56,6.56,0,0,1-5,2.3,6.41,6.41,0,0,1-5-2.3,7.76,7.76,0,0,1,0-10.4,6.78,6.78,0,0,1,10,0A7.24,7.24,0,0,1,550.3,52.7Zm-4.3,0a3.14,3.14,0,0,0-.7-2.1,2.32,2.32,0,0,0-1.9-.9,2.2,2.2,0,0,0-1.9.9,3.5,3.5,0,0,0,0,4.2,2.42,2.42,0,0,0,1.9,1,2.17,2.17,0,0,0,1.9-1A3.77,3.77,0,0,0,546,52.7Z" transform="translate(-1.23 0.17)"/><path class="cls-3" d="M562.2,59.5c0,.2-.1.3-.4.3a7.08,7.08,0,0,1-1.5.1,6.15,6.15,0,0,1-1.4-.1c-.1,0-.2-.1-.4-.2-.4-.5-1-1.4-1.7-2.4-.2.2-.8,1-1.9,2.4a1.38,1.38,0,0,1-.4.3,4.51,4.51,0,0,1-1.3.1c-1.2,0-1.9-.1-1.9-.4v-2a.76.76,0,0,1,.2-.4c.6-.6,1.5-1.6,2.7-2.9-.5-.5-1.1-1-1.6-1.6a6.74,6.74,0,0,1-1.3-1.5V49.1c0-.2.1-.3.4-.3h2.8c.2,0,.3.1.4.3a22.17,22.17,0,0,0,1.8,2.2c.7-.9,1.3-1.6,1.7-2.2a.4.4,0,0,1,.4-.2h3c.3,0,.4.1.4.3v2.1a.76.76,0,0,1-.2.4c-.6.6-1.5,1.5-2.6,2.7.6.6,1.5,1.6,2.6,2.8a.76.76,0,0,1,.2.4Z" transform="translate(-1.23 0.17)"/><path class="cls-3" d="M576.5,54.2a6,6,0,0,1-1.5,4.2,5.13,5.13,0,0,1-4,1.7,4.64,4.64,0,0,1-1.9-.4c-.7-.3-1-.4-.9-.4-.1,0-.2.1-.2.4a13.57,13.57,0,0,0,.1,1.8,13.57,13.57,0,0,1,.1,1.8c0,.3-.1.4-.4.4h-2.4a2.24,2.24,0,0,1-1-.1c-.2-.1-.4-.2-.4-.4v-9a20.15,20.15,0,0,0-.4-4.6v-.2c0-.1,0-.2.1-.2.3-.1.9-.2,1.7-.4s1.4-.2,1.8-.2.5.2.5.6.1.6.2.6c-.1,0,.3-.2,1-.6a4.14,4.14,0,0,1,2-.6,5.35,5.35,0,0,1,4.1,1.7C576.1,51.1,576.5,52.5,576.5,54.2Zm-4.3,0a2.27,2.27,0,0,0-.6-1.6,2,2,0,0,0-3,0,2.77,2.77,0,0,0-.5,1.6,3.1,3.1,0,0,0,.5,1.7,1.8,1.8,0,0,0,1.5.7A2.09,2.09,0,0,0,572.2,54.2Z" transform="translate(-1.23 0.17)"/><path class="cls-4" d="M184.87,88.22V105.5a7.32,7.32,0,0,1-2,5.27,6.7,6.7,0,0,1-5,2,6.26,6.26,0,0,1-5.7-3.39,7.78,7.78,0,0,1-2.6,2.61,6.89,6.89,0,0,1-3.42.78,6.13,6.13,0,0,1-5-2,8.86,8.86,0,0,1-1.72-5.87V88.22h7.13v15.61a3.9,3.9,0,0,0,.19,1.53.75.75,0,0,0,.74.37c.71,0,1.06-.6,1.06-1.78V88.22h7.14v15.61a3.88,3.88,0,0,0,.19,1.51.76.76,0,0,0,.75.39c.71,0,1.06-.64,1.06-1.9V88.22Z" transform="translate(-1.23 0.17)"/><path class="cls-4" d="M205.92,104.51H196a4.86,4.86,0,0,1-.23-1.39,4.68,4.68,0,0,1,.32-1.72h3.34a2.07,2.07,0,0,0-2.2-2,2.4,2.4,0,0,0-2,1,4.41,4.41,0,0,0-.77,2.68,4.69,4.69,0,0,0,.75,2.76,2.3,2.3,0,0,0,2,1,2.65,2.65,0,0,0,1.9-1l3.74,4.5a9.19,9.19,0,0,1-5.82,2,8.94,8.94,0,0,1-6.55-2.62,8.73,8.73,0,0,1-2.66-6.48A8.84,8.84,0,0,1,190.41,97,9,9,0,0,1,197,94.3a8.86,8.86,0,0,1,9,9C206,103.54,206,104,205.92,104.51Z" transform="translate(-1.23 0.17)"/><path class="cls-4" d="M214.84,88.22v14.36c0,2.33.83,3.5,2.51,3.5a2.53,2.53,0,0,0,1.82-.73,2.39,2.39,0,0,0,.75-1.77,2.51,2.51,0,0,0-.71-1.8,2.27,2.27,0,0,0-1.72-.73,3.06,3.06,0,0,0-1.65.63V94.44c.77-.07,1.36-.11,1.76-.11A8.62,8.62,0,0,1,224,97a9.15,9.15,0,0,1,0,12.92,9.12,9.12,0,0,1-6.61,2.63,9,9,0,0,1-3.84-.86,8.63,8.63,0,0,1-3.09-2.32,9.93,9.93,0,0,1-2.11-6.55V88.22Z" transform="translate(-1.23 0.17)"/><path class="cls-4" d="M246.11,88.22v24H239v-24Z" transform="translate(-1.23 0.17)"/><path class="cls-4" d="M266,112.21h-6.57v-9.89c0-1-.42-1.52-1.25-1.52s-1.23.51-1.23,1.52v9.89h-6.57v-9.77a8,8,0,0,1,2.26-5.78,7.91,7.91,0,0,1,11.59.38A9,9,0,0,1,266,103Z" transform="translate(-1.23 0.17)"/><path class="cls-4" d="M275.73,88.22v6.71h2.95v6.95h-2.95a4.65,4.65,0,0,0,.66,2.88,3,3,0,0,0,2.41.79v6.91l-.75,0a9,9,0,0,1-4.21-1,8.46,8.46,0,0,1-3.17-2.81,10.7,10.7,0,0,1-1.52-6V88.22Z" transform="translate(-1.23 0.17)"/><path class="cls-4" d="M291.53,94.51v7a2.55,2.55,0,0,0-1.25-.38c-1.19,0-1.79.91-1.79,2.74v8.31h-6.57v-9.58a8.59,8.59,0,0,1,2.07-6,7.14,7.14,0,0,1,5.54-2.26A13.27,13.27,0,0,1,291.53,94.51Z" transform="translate(-1.23 0.17)"/><path class="cls-4" d="M301.78,94.32A8.69,8.69,0,0,1,308.17,97a9.09,9.09,0,0,1,0,12.89,9.27,9.27,0,0,1-13,0,8.73,8.73,0,0,1-2.71-6.46A8.65,8.65,0,0,1,295.1,97,9.18,9.18,0,0,1,301.78,94.32Zm-.18,6.48a2.4,2.4,0,0,0-1.79.77,2.6,2.6,0,0,0-.74,1.87,2.56,2.56,0,0,0,.75,1.86,2.44,2.44,0,0,0,3.58,0,2.71,2.71,0,0,0,0-3.73A2.41,2.41,0,0,0,301.6,100.8Z" transform="translate(-1.23 0.17)"/><path class="cls-4" d="M324.37,88.22h6.57v14.61a9.87,9.87,0,0,1-2.11,6.55,8.68,8.68,0,0,1-3.08,2.32,9.4,9.4,0,0,1-10.45-1.77,8.7,8.7,0,0,1-2.69-6.47A8.85,8.85,0,0,1,315.28,97a8.61,8.61,0,0,1,6.33-2.71c.38,0,1,0,1.75.11v7.24a2.59,2.59,0,0,0-1.61-.63,2.35,2.35,0,0,0-1.75.75,2.46,2.46,0,0,0-.73,1.8,2.36,2.36,0,0,0,.75,1.75,2.56,2.56,0,0,0,1.81.73q2.54,0,2.54-3.5Z" transform="translate(-1.23 0.17)"/><path class="cls-4" d="M334.4,94.93H341v9.9c0,1,.41,1.49,1.25,1.49s1.23-.49,1.23-1.49v-9.9H350v9.78a8,8,0,0,1-2.27,5.75,7.88,7.88,0,0,1-11.58-.38,8.94,8.94,0,0,1-1.78-5.9Z" transform="translate(-1.23 0.17)"/><path class="cls-4" d="M364.62,104.14l6.52-.24a9.28,9.28,0,0,1-2.83,6.24,8.63,8.63,0,0,1-6.2,2.44,8.83,8.83,0,0,1-6.53-2.69,9,9,0,0,1-2.67-6.59A8.6,8.6,0,0,1,355.6,97a8.93,8.93,0,0,1,6.45-2.63,9,9,0,0,1,8.93,7.36l-6.66.25a2.64,2.64,0,0,0-2.18-1.13,2.46,2.46,0,0,0-1.84.74,2.68,2.68,0,0,0,1.95,4.55A2.48,2.48,0,0,0,364.62,104.14Z" transform="translate(-1.23 0.17)"/><path class="cls-4" d="M379.86,88.22v6.71h2.95v6.95h-2.95a4.65,4.65,0,0,0,.66,2.88,3,3,0,0,0,2.42.79v6.91l-.76,0a9,9,0,0,1-4.21-1,8.46,8.46,0,0,1-3.17-2.81,10.7,10.7,0,0,1-1.51-6V88.22Z" transform="translate(-1.23 0.17)"/><path class="cls-4" d="M392.62,94.69v17.52h-6.57V94.69Zm-3.27-7.83a3.24,3.24,0,0,1,2.31.94,3.12,3.12,0,0,1,.06,4.48,3.34,3.34,0,0,1-2.37.88,3.3,3.3,0,0,1-2.36-.88,3,3,0,0,1-.92-2.25,3,3,0,0,1,1-2.23A3.24,3.24,0,0,1,389.35,86.86Z" transform="translate(-1.23 0.17)"/><path class="cls-4" d="M404.8,94.32A8.66,8.66,0,0,1,411.19,97a9.08,9.08,0,0,1,0,12.89,9.28,9.28,0,0,1-13,0,8.76,8.76,0,0,1-2.7-6.46,8.67,8.67,0,0,1,2.7-6.47A9.21,9.21,0,0,1,404.8,94.32Zm-.17,6.48a2.42,2.42,0,0,0-1.8.77,2.73,2.73,0,0,0,0,3.73,2.46,2.46,0,0,0,3.59,0,2.56,2.56,0,0,0,.75-1.86,2.6,2.6,0,0,0-.74-1.87A2.43,2.43,0,0,0,404.63,100.8Z" transform="translate(-1.23 0.17)"/><path class="cls-4" d="M432.23,112.21h-6.58v-9.89c0-1-.41-1.52-1.25-1.52s-1.23.51-1.23,1.52v9.89H416.6v-9.77a8,8,0,0,1,2.27-5.78,7.9,7.9,0,0,1,11.58.38,9,9,0,0,1,1.78,5.93Z" transform="translate(-1.23 0.17)"/></svg>